<?xml version="1.0" standalone="no"?>
<!DOCTYPE svg PUBLIC "-//W3C//DTD SVG 1.1//EN" "http://www.w3.org/Graphics/SVG/1.1/DTD/svg11.dtd" >
<svg xmlns="http://www.w3.org/2000/svg">
<metadata>
Copyright (c) 2015 by Fontsmith Ltd. All rights reserved.
</metadata>
<defs>
<font id="BGFlame-Italic" horiz-adv-x="570" >
  <font-face 
    font-family="BG Flame"
    font-weight="400"
    font-style="italic"
    font-stretch="normal"
    units-per-em="1000"
    panose-1="2 0 5 6 5 0 0 9 0 4"
    ascent="745"
    descent="-255"
    x-height="486"
    cap-height="672"
    bbox="-156 -256 1192 1008"
    underline-thickness="128"
    underline-position="64"
    slope="-11"
    unicode-range="U+000D-FB04"
  />
<missing-glyph horiz-adv-x="500" 
d="M28 672h476v-672h-476v672zM266 380l162 244h-324zM76 92l162 244l-162 244v-488zM294 336l162 -244v488zM266 292l-162 -244h324z" />
    <glyph glyph-name="fi" unicode="fi" horiz-adv-x="602" 
d="M429 638q-42 14 -81 14q-46 0 -68 -21.5t-30 -66.5l-14 -78h140l-10 -63h-141l-74 -423h-80l74 423h-93l6 29q2 11 6 15.5t18 6.5l74 12l15 88q13 75 53 108.5t117 33.5q17 0 36.5 -2t32.5 -5q21 -5 24.5 -10.5t1.5 -21.5l-7 -39v0zM489 0h-80l80 457q2 14 10.5 21.5
t28.5 7.5h46zM506 623q0 62 60 62q44 0 44 -40q0 -61 -60 -61q-44 0 -44 39z" />
    <glyph glyph-name="fl" unicode="fl" horiz-adv-x="591" 
d="M429 638q-42 14 -81 14q-46 0 -68 -21.5t-30 -66.5l-14 -78h140l-10 -63h-141l-74 -423h-80l74 423h-93l6 29q2 11 6 15.5t18 6.5l74 12l15 88q13 75 53 108.5t117 33.5q17 0 36.5 -2t32.5 -5q21 -5 24.5 -10.5t1.5 -21.5l-7 -39v0zM478 0h-80l119 675q2 14 10.5 21.5
t28.5 7.5h46z" />
    <glyph glyph-name="f_f" unicode="ff" horiz-adv-x="714" 
d="M429 638q-42 14 -81 14q-46 0 -68 -21.5t-30 -66.5l-14 -78h140l-10 -63h-141l-74 -423h-80l74 423h-93l6 29q2 11 6 15.5t18 6.5l74 12l15 88q13 75 53 108.5t117 33.5q17 0 36.5 -2t32.5 -5q21 -5 24.5 -10.5t1.5 -21.5l-7 -39v0zM794 638q-42 14 -81 14
q-46 0 -68 -21.5t-30 -66.5l-14 -78h140l-10 -63h-141l-74 -423h-80l74 423h-93l6 29q2 11 6 15.5t18 6.5l74 12l15 88q13 75 53 108.5t117 33.5q17 0 36.5 -2t32.5 -5q21 -5 24.5 -10.5t1.5 -21.5l-7 -39v0z" />
    <glyph glyph-name="f_f_i" unicode="ffi" horiz-adv-x="967" 
d="M429 638q-42 14 -81 14q-46 0 -68 -21.5t-30 -66.5l-14 -78h140l-10 -63h-141l-74 -423h-80l74 423h-93l6 29q2 11 6 15.5t18 6.5l74 12l15 88q13 75 53 108.5t117 33.5q17 0 36.5 -2t32.5 -5q21 -5 24.5 -10.5t1.5 -21.5l-7 -39v0zM794 638q-42 14 -81 14
q-46 0 -68 -21.5t-30 -66.5l-14 -78h140l-10 -63h-141l-74 -423h-80l74 423h-93l6 29q2 11 6 15.5t18 6.5l74 12l15 88q13 75 53 108.5t117 33.5q17 0 36.5 -2t32.5 -5q21 -5 24.5 -10.5t1.5 -21.5l-7 -39v0zM854 0h-80l80 457q2 14 10.5 21.5t28.5 7.5h46zM871 623
q0 62 60 62q44 0 44 -40q0 -61 -60 -61q-44 0 -44 39z" />
    <glyph glyph-name="f_f_l" unicode="ffl" horiz-adv-x="956" 
d="M429 638q-42 14 -81 14q-46 0 -68 -21.5t-30 -66.5l-14 -78h140l-10 -63h-141l-74 -423h-80l74 423h-93l6 29q2 11 6 15.5t18 6.5l74 12l15 88q13 75 53 108.5t117 33.5q17 0 36.5 -2t32.5 -5q21 -5 24.5 -10.5t1.5 -21.5l-7 -39v0zM794 638q-42 14 -81 14
q-46 0 -68 -21.5t-30 -66.5l-14 -78h140l-10 -63h-141l-74 -423h-80l74 423h-93l6 29q2 11 6 15.5t18 6.5l74 12l15 88q13 75 53 108.5t117 33.5q17 0 36.5 -2t32.5 -5q21 -5 24.5 -10.5t1.5 -21.5l-7 -39v0zM843 0h-80l119 675q2 14 10.5 21.5t28.5 7.5h46z" />
    <glyph glyph-name=".notdef" horiz-adv-x="500" 
d="M28 672h476v-672h-476v672zM266 380l162 244h-324zM76 92l162 244l-162 244v-488zM294 336l162 -244v488zM266 292l-162 -244h324z" />
    <glyph glyph-name=".null" horiz-adv-x="0" 
 />
    <glyph glyph-name=".null" horiz-adv-x="0" 
 />
    <glyph glyph-name="nonmarkingreturn" unicode="&#xd;" horiz-adv-x="224" 
 />
    <glyph glyph-name="nonbreakingspace" unicode="&#xa0;" horiz-adv-x="224" 
 />
    <glyph glyph-name="space" unicode=" " horiz-adv-x="224" 
 />
    <glyph glyph-name="A" unicode="A" horiz-adv-x="629" 
d="M452 197h-286l-102 -197h-87l348 646q9 17 17.5 21.5t26.5 4.5h66l132 -672h-78zM198 259h243l-63 337h-4z" />
    <glyph glyph-name="B" unicode="B" horiz-adv-x="622" 
d="M40 0l112 640q3 17 10.5 24.5t26.5 7.5h199q43 0 77.5 -5.5t58.5 -20.5t37 -42t13 -70q0 -32 -6 -61t-19.5 -53t-35.5 -41.5t-54 -24.5q56 -7 85 -39t29 -86t-17.5 -101.5t-45.5 -73.5q-32 -30 -77 -42t-117 -12h-276zM177 311l-43 -248h182q23 0 42 1t34.5 5t29 11.5
t26.5 20.5q19 19 30 50.5t11 66.5q0 31 -11.5 49t-31.5 28t-47.5 13t-58.5 3h-163zM188 373h138q42 0 72 7.5t51 28.5q42 42 42 117q0 28 -8 44.5t-23.5 25t-38.5 11t-52 2.5h-139z" />
    <glyph glyph-name="C" unicode="C" horiz-adv-x="589" 
d="M355 55q41 0 81 6t78 17l-12 -69q-39 -11 -84 -16t-89 -5q-271 0 -271 252q0 48 8 96.5t23 93.5t37.5 84t52.5 69q56 56 118.5 78.5t146.5 22.5q34 0 71.5 -6t61.5 -14q27 -9 31.5 -14.5t1.5 -18.5l-11 -47q-30 12 -70.5 22.5t-84.5 10.5q-54 0 -100.5 -12.5t-87.5 -53.5
q-55 -55 -84 -135.5t-29 -171.5q0 -54 14.5 -90.5t41.5 -58t66.5 -31t89.5 -9.5z" />
    <glyph glyph-name="D" unicode="D" horiz-adv-x="679" 
d="M534 97q-23 -23 -50.5 -41t-63 -30.5t-79.5 -19t-101 -6.5h-200l112 640q3 17 10.5 24.5t26.5 7.5h168q82 0 138.5 -13.5t92 -41t51.5 -70.5t16 -103q0 -109 -31.5 -199t-89.5 -148zM570 440q0 47 -11.5 78.5t-37 51t-66.5 28t-99 8.5h-127l-95 -540h108q85 0 137 17.5
t90 55.5q19 19 37 49t32.5 69t23 85t8.5 98z" />
    <glyph glyph-name="E" unicode="E" horiz-adv-x="568" 
d="M593 672l-11 -64h-353l-41 -235h259l-10 -62h-260l-43 -247h362l-10 -64h-446l112 640q3 17 10 24.5t27 7.5h404z" />
    <glyph glyph-name="F" unicode="F" horiz-adv-x="546" 
d="M152 640q3 17 10 24.5t27 7.5h404l-11 -66h-353l-45 -258h267l-10 -64h-269l-49 -284h-83l112 640v0z" />
    <glyph glyph-name="G" unicode="G" horiz-adv-x="648" 
d="M544 11q-26 -6 -54.5 -10t-56.5 -7t-53 -4.5t-44 -1.5q-146 0 -212 65t-66 187q0 48 7.5 97.5t24 96t42.5 89t63 75.5q55 50 117 68t131 18q40 0 84 -6t72 -15q27 -9 31.5 -14.5t1.5 -18.5l-11 -46q-47 18 -91 25.5t-86 7.5q-55 0 -101.5 -13t-83.5 -50
q-57 -57 -86.5 -138t-29.5 -172q0 -98 49.5 -144t158.5 -46q26 0 59.5 3t68.5 11l39 227h-187l5 33q4 26 34 26h233l-59 -343v0z" />
    <glyph glyph-name="H" unicode="H" horiz-adv-x="703" 
d="M606 640q3 17 10 24.5t26 7.5h53l-118 -672h-83l55 311h-372l-54 -311h-83l112 640q3 17 10 24.5t27 7.5h52l-52 -296h372l45 264v0z" />
    <glyph glyph-name="I" unicode="I" horiz-adv-x="249" 
d="M152 640q3 17 10 24.5t26 7.5h53l-118 -672h-83z" />
    <glyph glyph-name="J" unicode="J" horiz-adv-x="432" 
d="M335 640q3 17 10 24.5t27 7.5h52l-90 -510q-16 -91 -66.5 -132.5t-144.5 -41.5q-42 0 -77 4.5t-58 12.5l12 67q29 -9 58.5 -13t58.5 -4q63 0 94 27.5t42 91.5l82 466v0z" />
    <glyph glyph-name="K" unicode="K" horiz-adv-x="601" 
d="M185 369h50l297 280q14 13 23 18t29 5h69l-358 -336l245 -336h-93l-220 305h-53l-53 -305h-80l118 672h80z" />
    <glyph glyph-name="L" unicode="L" horiz-adv-x="505" 
d="M135 66h316l-11 -66h-400l112 640q3 17 10 24.5t26 7.5h53z" />
    <glyph glyph-name="M" unicode="M" horiz-adv-x="785" 
d="M674 645q12 17 19.5 22t27.5 5h56l-118 -672h-77l97 551l-266 -350h-55l-143 351l-97 -552h-77l118 672h80l159 -392l276 365v0z" />
    <glyph glyph-name="N" unicode="N" horiz-adv-x="699" 
d="M608 640q3 17 10 24.5t26 7.5h47l-118 -672h-83l-273 555l-99 -555h-77l118 672h82l275 -558l92 526v0z" />
    <glyph glyph-name="O" unicode="O" horiz-adv-x="709" 
d="M419 684q126 0 196 -61t70 -191q0 -54 -8.5 -105.5t-25 -98t-40.5 -86t-55 -69.5q-42 -41 -101 -63t-131 -22q-126 0 -196 60.5t-70 191.5q0 54 8.5 105.5t25 98t40.5 86t55 69.5q42 41 101 63t131 22zM413 615q-49 0 -92 -16.5t-76 -49.5q-23 -23 -42 -56.5t-32.5 -73
t-20.5 -84.5t-7 -91q0 -36 8 -69.5t29 -59.5t57.5 -42t92.5 -16q49 0 92 16.5t76 49.5q23 23 42 56.5t32.5 73t20.5 84.5t7 91q0 36 -8 69.5t-29 59.5t-57.5 42t-92.5 16z" />
    <glyph glyph-name="P" unicode="P" horiz-adv-x="596" 
d="M529 321q-14 -13 -31 -24.5t-40.5 -19.5t-53.5 -13t-70 -5h-169l-45 -259h-80l112 640q2 17 9.5 24.5t26.5 7.5h217q57 0 95.5 -9.5t62 -29t33 -48t9.5 -65.5q0 -60 -19 -111t-57 -88zM177 324h158q49 0 84 12t58 39q20 23 31.5 58.5t11.5 73.5q0 31 -7.5 50t-23.5 30
t-42.5 15t-63.5 4h-156z" />
    <glyph glyph-name="Q" unicode="Q" horiz-adv-x="709" 
d="M419 684q126 0 196 -61t70 -191q0 -54 -8.5 -105.5t-25 -98t-40.5 -86t-55 -69.5q-16 -16 -34 -28t-39 -23l99 -144h-86l-82 120q-21 -5 -43.5 -7.5t-46.5 -2.5q-126 0 -196 60.5t-70 191.5q0 54 8.5 105.5t25 98t40.5 86t55 69.5q42 41 101 63t131 22zM413 615
q-49 0 -92 -16.5t-76 -49.5q-23 -23 -42 -56.5t-32.5 -73t-20.5 -84.5t-7 -91q0 -36 8 -69.5t29 -59.5t57.5 -42t92.5 -16q49 0 92 16.5t76 49.5q23 23 42 56.5t32.5 73t20.5 84.5t7 91q0 36 -8 69.5t-29 59.5t-57.5 42t-92.5 16z" />
    <glyph glyph-name="R" unicode="R" horiz-adv-x="626" 
d="M179 329h157q48 0 83 11t58 37q22 25 33 62t11 74q0 31 -8.5 50t-25 29t-41 13t-57.5 3h-161zM315 265h-147l-47 -265h-80l112 640q3 17 10 24.5t26 7.5h222q107 0 150.5 -36.5t43.5 -111.5q0 -51 -12.5 -95t-38.5 -77t-65.5 -54t-94.5 -26l143 -272h-85z" />
    <glyph glyph-name="S" unicode="S" horiz-adv-x="572" 
d="M358 684q50 0 95 -6.5t72 -14.5q13 -3 20 -6t10 -6t3 -7t-1 -10l-10 -51q-46 17 -92.5 26t-97.5 9q-83 0 -129 -28.5t-46 -90.5q0 -31 14 -51.5t37 -34.5t52.5 -23.5t60 -19.5t60 -23t53 -32.5t37.5 -49t14 -72.5q0 -102 -68.5 -153.5t-192.5 -51.5q-63 0 -121 10
t-106 31l12 65q53 -20 104.5 -30t109.5 -10q85 0 131.5 30.5t46.5 95.5q0 44 -24.5 68.5t-61 39.5t-79 27t-79 31t-61 51t-24.5 87q0 97 69.5 148.5t191.5 51.5z" />
    <glyph glyph-name="T" unicode="T" horiz-adv-x="575" 
d="M598 672q20 0 24 -7.5t2 -24.5l-6 -34h-226l-107 -606h-82l106 606h-223l10 66h502v0z" />
    <glyph glyph-name="U" unicode="U" horiz-adv-x="701" 
d="M604 640q3 17 9.5 24.5t26.5 7.5h53l-77 -439q-11 -65 -34 -111.5t-59.5 -76t-88.5 -43.5t-121 -14q-109 0 -171.5 50.5t-62.5 138.5q0 21 2 43t6 45l72 407h83l-72 -407q-6 -38 -6 -75q0 -62 41.5 -98.5t113.5 -36.5q99 0 148.5 43.5t66.5 140.5l70 401v0z" />
    <glyph glyph-name="V" unicode="V" horiz-adv-x="627" 
d="M584 645q9 17 18 22t27 5h54l-362 -672h-93l-133 672h81l110 -588h4l294 561v0z" />
    <glyph glyph-name="W" unicode="W" horiz-adv-x="919" 
d="M569 672l59 -562h4l233 535q8 19 17.5 23t28.5 4h48l-303 -672h-89l-55 530h-3l-238 -530h-88l-72 672h82l53 -562h4l252 562h67z" />
    <glyph glyph-name="X" unicode="X" horiz-adv-x="630" 
d="M669 672l-286 -338l173 -334h-88l-147 289l-242 -289h-94l296 349l-168 323h88l141 -277l210 250q15 18 23 22.5t27 4.5h67z" />
    <glyph glyph-name="Y" unicode="Y" horiz-adv-x="579" 
d="M641 672l-303 -399l-48 -273h-83l49 280l-168 392h89l133 -323l214 289q8 11 14 18t12 10.5t13 4.5t18 1h60z" />
    <glyph glyph-name="Z" unicode="Z" horiz-adv-x="604" 
d="M507 606h-391l12 66h497l-11 -65l-493 -541h407l-11 -66h-513l4 30q2 11 4 18.5t5 14t8.5 13t14.5 16.5z" />
    <glyph glyph-name="a" unicode="a" horiz-adv-x="562" 
d="M372 41v7.5t2 11.5q-23 -35 -65 -53.5t-96 -18.5q-81 0 -127 48.5t-46 137.5q0 78 21.5 144.5t65.5 111.5q31 32 68.5 50t91.5 18q57 0 90.5 -20.5t52.5 -55.5l11 38q7 26 34 26h38l-70 -402q-4 -21 1.5 -27.5t22.5 -8.5l17 -2l-9 -49q-11 -2 -23 -2.5t-20 -0.5
q-27 0 -43.5 11t-16.5 36zM399 284q14 77 -14 113.5t-90 36.5q-32 0 -57 -11.5t-46 -32.5q-16 -16 -29 -39.5t-22 -51t-14 -58.5t-5 -63q0 -71 29.5 -98.5t80.5 -27.5q41 0 68.5 14t44.5 35.5t25.5 46t12.5 45.5z" />
    <glyph glyph-name="b" unicode="b" horiz-adv-x="550" 
d="M258 -12q-60 0 -98 21t-52 50l-21 -59h-60l119 675q2 14 10.5 21.5t28.5 7.5h46l-46 -261q24 26 60.5 40.5t84.5 14.5q40 0 73 -12t57 -36t37 -59t13 -80q0 -80 -21.5 -146.5t-66.5 -111.5q-65 -65 -164 -65zM251 52q32 0 59.5 11.5t47.5 31.5q30 30 50 85.5t20 126.5
q0 65 -30 96t-87 31q-67 0 -104.5 -37.5t-48.5 -103.5l-16 -91q-6 -33 -3.5 -60.5t15 -47.5t36.5 -31t61 -11z" />
    <glyph glyph-name="c" unicode="c" horiz-adv-x="450" 
d="M315 498q30 0 57.5 -5t44.5 -10q13 -4 20 -6.5t10 -5.5t3 -7.5t-1 -10.5l-8 -44q-31 12 -59.5 18.5t-60.5 6.5q-39 0 -70.5 -11t-57.5 -37q-34 -34 -52.5 -90.5t-18.5 -116.5q0 -71 35 -99t111 -28q48 0 113 17l-12 -65q-31 -8 -61 -12t-56 -4q-109 0 -160.5 46.5
t-51.5 140.5q0 79 23 143.5t65 106.5q38 38 82.5 55.5t104.5 17.5z" />
    <glyph glyph-name="d" unicode="d" horiz-adv-x="565" 
d="M408 284q14 79 -16.5 114.5t-92.5 35.5q-61 0 -105 -44q-35 -35 -53.5 -91t-18.5 -120q0 -71 33 -99t84 -28q41 0 69 13.5t45 34.5t26 46t13 47zM381 41v9.5t2 9.5q-23 -34 -65.5 -53t-97.5 -19q-39 0 -72 12t-57 35.5t-37.5 58.5t-13.5 81q0 78 22.5 145t67.5 112
q30 31 70 48.5t92 17.5q54 0 90.5 -20t49.5 -45l43 242q2 14 9.5 21.5t27.5 7.5h48l-108 -620q-4 -21 1.5 -27.5t22.5 -8.5l17 -2l-9 -49q-11 -2 -23 -2.5t-20 -0.5q-27 0 -43.5 11t-16.5 36z" />
    <glyph glyph-name="e" unicode="e" horiz-adv-x="517" 
d="M411 7q-67 -19 -146 -19q-113 0 -169 46t-56 151q0 32 5.5 65.5t17 65t28 60t37.5 49.5q35 35 78.5 54t101.5 19q39 0 73 -9t58.5 -28.5t39 -51.5t14.5 -77q0 -13 -2 -32t-5 -33q-4 -20 -8 -31.5t-11.5 -17.5t-20.5 -8t-34 -2h-290v-18q0 -76 38.5 -107.5t120.5 -31.5
q37 0 70.5 5t70.5 15zM308 434q-32 0 -60.5 -10.5t-54.5 -36.5q-22 -22 -38 -55.5t-23 -65.5h275q4 14 6 31t2 31q0 58 -28 82t-79 24z" />
    <glyph glyph-name="f" unicode="f" horiz-adv-x="349" 
d="M429 638q-42 14 -81 14q-46 0 -68 -21.5t-30 -66.5l-14 -78h140l-10 -63h-141l-74 -423h-80l74 423h-93l6 29q2 11 6 15.5t18 6.5l74 12l15 88q13 75 53 108.5t117 33.5q17 0 36.5 -2t32.5 -5q21 -5 24.5 -10.5t1.5 -21.5l-7 -39v0z" />
    <glyph glyph-name="g" unicode="g" horiz-adv-x="547" 
d="M404 284q14 77 -15 113.5t-91 36.5q-61 0 -105 -44q-16 -16 -29 -39t-22.5 -50.5t-14.5 -58.5t-5 -63q0 -71 31 -99t82 -28q41 0 69 13.5t45 34.5t26 46t13 47zM289 498q57 0 92 -20.5t54 -55.5l11 38q7 26 34 26h38l-88 -501q-10 -55 -26.5 -94t-43.5 -63.5t-67 -36
t-97 -11.5q-21 0 -56 3t-67 10l11 62q29 -6 57 -9.5t53 -3.5q36 0 62 6.5t45 23t30.5 43.5t19.5 68l10 56q-53 -51 -145 -51q-81 0 -128.5 49t-47.5 138q0 78 22 144t66 111q31 32 69 50t92 18z" />
    <glyph glyph-name="h" unicode="h" horiz-adv-x="544" 
d="M431 0h-80l52 290q5 28 5 51q0 91 -103 91q-57 0 -95.5 -32t-49.5 -98l-53 -302h-80l119 675q2 14 10.5 21.5t28.5 7.5h46l-47 -260q30 27 68.5 40.5t77.5 13.5q75 0 116.5 -37.5t41.5 -106.5q0 -33 -6 -64z" />
    <glyph glyph-name="i" unicode="i" horiz-adv-x="221" 
d="M108 0h-80l80 457q2 14 10.5 21.5t28.5 7.5h46zM125 623q0 62 60 62q44 0 44 -40q0 -61 -60 -61q-44 0 -44 39z" />
    <glyph glyph-name="j" unicode="j" horiz-adv-x="215" 
d="M102 457q2 14 10.5 21.5t28.5 7.5h46l-100 -572q-12 -72 -48.5 -103t-108.5 -31q-16 0 -37 1.5t-40 5.5l12 59q17 -2 31.5 -3.5t27.5 -1.5q19 0 33 3.5t24 13t16.5 26t11.5 42.5zM119 623q0 62 60 62q44 0 44 -40q0 -61 -60 -61q-44 0 -44 39z" />
    <glyph glyph-name="k" unicode="k" horiz-adv-x="466" 
d="M144 226l-40 -226h-77l119 675q2 14 10.5 21.5t28.5 7.5h43l-74 -418h38l173 169q11 10 17.5 16.5t12.5 9.5t12.5 4t17.5 1h65l-240 -233l159 -253h-87l-139 226h-39z" />
    <glyph glyph-name="l" unicode="l" horiz-adv-x="220" 
d="M107 0h-80l119 675q2 14 10.5 21.5t28.5 7.5h46z" />
    <glyph glyph-name="m" unicode="m" horiz-adv-x="842" 
d="M108 457q2 14 10.5 21.5t27.5 7.5h24l-2 -55q31 37 71.5 52t87.5 15q57 0 89.5 -20.5t43.5 -57.5q27 37 69.5 57.5t105.5 20.5q74 0 112.5 -35.5t38.5 -101.5q0 -34 -6 -64l-51 -297h-78l51 297q3 13 4 26t1 25q0 42 -23 63t-73 21q-118 0 -139 -122l-53 -310h-79l51 297
q5 28 5 51q0 84 -96 84q-117 0 -139 -122l-53 -310h-78l78 457v0z" />
    <glyph glyph-name="n" unicode="n" horiz-adv-x="545" 
d="M171 430q30 35 72.5 51.5t87.5 16.5q75 0 116.5 -37.5t41.5 -106.5q0 -33 -6 -64l-51 -290h-80l52 290q5 28 5 51q0 91 -103 91q-57 0 -95.5 -32t-49.5 -98l-53 -302h-80l80 457q2 14 10.5 21.5t27.5 7.5h27z" />
    <glyph glyph-name="o" unicode="o" horiz-adv-x="547" 
d="M308 498q101 0 150 -48.5t49 -136.5q0 -86 -23 -150t-63 -104q-37 -38 -84.5 -54.5t-97.5 -16.5q-105 0 -152 50.5t-47 136.5q0 85 24.5 148t63.5 102t84 56t96 17zM239 52q70 0 116 46q35 36 52.5 92t17.5 119q0 36 -9 60t-25 38.5t-37.5 20.5t-45.5 6q-36 0 -64 -12.5
t-51 -35.5q-35 -36 -53 -91.5t-18 -115.5q0 -71 33 -99t84 -28z" />
    <glyph glyph-name="p" unicode="p" horiz-adv-x="551" 
d="M252 52q32 0 59.5 11.5t47.5 31.5q30 30 50 85.5t20 126.5q0 65 -30 96t-87 31q-67 0 -104.5 -37.5t-48.5 -103.5l-16 -91q-6 -33 -3.5 -60.5t15 -47.5t36.5 -31t61 -11zM259 -12q-60 0 -94 19t-49 42l-45 -257h-80l117 665q2 14 10.5 21.5t27.5 7.5h27l-1 -58
q26 33 66 51.5t93 18.5q37 0 69.5 -11t57 -34.5t39 -58.5t14.5 -83q0 -80 -21.5 -146.5t-66.5 -111.5q-65 -65 -164 -65z" />
    <glyph glyph-name="q" unicode="q" horiz-adv-x="550" 
d="M292 498q57 0 92.5 -20.5t54.5 -55.5l11 38q7 26 34 26h38l-122 -694h-79l45 252q-22 -21 -55.5 -38.5t-90.5 -17.5q-81 0 -130.5 47t-49.5 140q0 78 21.5 144t66.5 111q30 31 71 49.5t93 18.5zM408 284q14 79 -16.5 114.5t-92.5 35.5t-106 -44q-35 -35 -53 -91t-18 -120
q0 -71 31 -99t84 -28q41 0 69 13.5t46 34.5t27 46t13 47z" />
    <glyph glyph-name="r" unicode="r" horiz-adv-x="360" 
d="M108 457q2 14 10.5 21.5t27.5 7.5h27l-1 -56q29 34 71.5 51t85.5 17q27 0 53 -6l-11 -66q-14 3 -29.5 4.5t-29.5 1.5q-64 0 -102 -33t-52 -112l-50 -287h-80l80 457v0z" />
    <glyph glyph-name="s" unicode="s" horiz-adv-x="452" 
d="M408 409q-35 14 -68 20.5t-69 6.5q-57 0 -89 -19t-32 -61q0 -27 17.5 -42.5t43.5 -26t56.5 -19.5t56.5 -24t43.5 -39.5t17.5 -66.5q0 -74 -51.5 -112t-147.5 -38q-41 0 -86 6t-84 21l12 64q77 -28 156 -28q60 0 91.5 18t31.5 58q0 29 -17.5 44.5t-43.5 26t-57 19.5
t-57 24t-43.5 39.5t-17.5 66.5q0 73 51.5 112t142.5 39q40 0 72 -5t49 -10q21 -6 26.5 -12t2.5 -23l-7 -39v0z" />
    <glyph glyph-name="t" unicode="t" horiz-adv-x="382" 
d="M176 619q2 14 10.5 21.5t27.5 7.5h48l-29 -162h141l-12 -63h-140l-45 -261q-2 -10 -3 -19.5t-1 -19.5q0 -40 20.5 -55.5t68.5 -15.5q11 0 26 1t32 3l-11 -62q-32 -6 -70 -6q-74 0 -111 30.5t-37 89.5q0 23 5 51l46 264h-90l4 29q2 11 6.5 15.5t19.5 6.5l71 12z" />
    <glyph glyph-name="u" unicode="u" horiz-adv-x="544" 
d="M431 457q2 14 10.5 21.5t27.5 7.5h47l-55 -317q-17 -95 -71 -138t-157 -43q-82 0 -129.5 37.5t-47.5 103.5q0 32 6 64l51 293h80l-51 -293q-5 -28 -5 -51q0 -42 27.5 -66t76.5 -24q63 0 96.5 29t44.5 94l49 282v0z" />
    <glyph glyph-name="v" unicode="v" horiz-adv-x="491" 
d="M415 459q9 17 18 22t28 5h48l-259 -486h-90l-95 486h79l73 -405h3l195 378v0z" />
    <glyph glyph-name="w" unicode="w" horiz-adv-x="755" 
d="M773 486l-226 -486h-95l-46 403h-4l-174 -403h-91l-64 486h76l46 -403h4l174 403h90l47 -403h4l168 376q8 17 17.5 22t27.5 5h46z" />
    <glyph glyph-name="x" unicode="x" horiz-adv-x="494" 
d="M501 486l-206 -245l125 -241h-83l-99 196l-162 -196h-89l213 252l-122 234h83l96 -188l132 160q7 8 12.5 13.5t11 8.5t12 4.5t16.5 1.5h60z" />
    <glyph glyph-name="y" unicode="y" horiz-adv-x="545" 
d="M361 46l-1 -4q-21 -25 -61.5 -39.5t-80.5 -14.5q-79 0 -120.5 37.5t-41.5 103.5q0 32 6 64l51 293h80l-51 -293q-5 -28 -5 -51q0 -41 26 -64t74 -23q42 0 69 12t44 32.5t25 46t13 52.5l44 259q2 14 10.5 21.5t27.5 7.5h47l-87 -501q-9 -54 -26 -92.5t-44.5 -63.5
t-67.5 -37t-96 -12q-21 0 -56 3t-67 10l11 62q29 -6 57 -9.5t53 -3.5q37 0 63.5 7.5t44 24t28.5 42.5t18 63z" />
    <glyph glyph-name="z" unicode="z" horiz-adv-x="470" 
d="M353 423h-267l11 63h362l-10 -60l-338 -363h283l-11 -63h-382l6 33q2 14 8.5 24t20.5 25z" />
    <glyph glyph-name="ampersand" unicode="&#x26;" horiz-adv-x="654" 
d="M235 525q0 -25 11 -54t40 -67q77 30 112 59.5t35 77.5q0 41 -25.5 62t-63.5 21q-51 0 -80 -28.5t-29 -70.5zM248 51q48 0 91 17t82 62l-165 203q-67 -29 -105 -69.5t-38 -98.5q0 -28 10.5 -49t29 -35.5t43 -22t52.5 -7.5zM461 82q-26 -28 -53 -46t-55 -28.5t-56.5 -15
t-58.5 -4.5q-45 0 -82 11t-63.5 32t-41 52.5t-14.5 72.5q0 80 48 134t135 89q-35 45 -47.5 79.5t-12.5 66.5q0 73 50 116t137 43q76 0 117.5 -38.5t41.5 -96.5q0 -34 -10.5 -60t-33 -48.5t-57 -42t-83.5 -39.5l140 -172q18 30 28 60t18 68q3 12 5.5 19.5t7 11.5t12 5.5
t21.5 1.5h30q-10 -63 -30.5 -117t-49.5 -99l31 -39q21 -26 39.5 -33.5t42.5 -9.5l-12 -55q-38 -2 -64 6.5t-51 39.5z" />
    <glyph glyph-name="at" unicode="@" horiz-adv-x="948" 
d="M691 -164q-57 -21 -120.5 -30.5t-132.5 -9.5q-193 0 -291 86t-98 254q0 127 32.5 229.5t95 174.5t154 111t210.5 39q83 0 150.5 -21t115 -61t73 -97.5t25.5 -129.5q0 -82 -18 -148t-49.5 -112.5t-75 -71.5t-94.5 -25q-18 0 -35.5 3t-31.5 10.5t-23 21t-12 34.5
q-21 -32 -55.5 -50.5t-81.5 -18.5q-42 0 -70.5 12.5t-45.5 34t-24.5 50.5t-7.5 62q0 78 21.5 131t52.5 86q32 34 68.5 48.5t69.5 14.5q45 0 74 -18t40 -48l13 29q8 18 15 21.5t26 3.5h18l-50 -264q-2 -11 -4 -23.5t-2 -21.5q0 -29 12 -44t44 -15q30 0 58 19.5t49.5 56.5
t34 90.5t12.5 120.5q0 64 -21.5 112t-60 80t-92.5 48t-119 16q-93 0 -170 -31.5t-132 -92t-85.5 -150t-30.5 -206.5q0 -64 18.5 -117t57.5 -90.5t99 -58t143 -20.5q69 0 136.5 11t128.5 33zM416 366q-27 -27 -44 -73t-17 -106q0 -51 21.5 -77.5t63.5 -26.5q52 0 79.5 30
t38.5 85l13 64q3 14 5.5 31.5t2.5 28.5q0 41 -25 59t-60 18q-45 0 -78 -33z" />
    <glyph glyph-name="exclam" unicode="!" horiz-adv-x="247" 
d="M36 32q0 30 16.5 47t45.5 17q46 0 46 -42q0 -30 -16.5 -46.5t-45.5 -16.5q-46 0 -46 41zM153 643q2 14 10.5 21.5t28.5 7.5h48l-87 -468h-73z" />
    <glyph glyph-name="exclamdown" unicode="&#xa1;" horiz-adv-x="247" 
d="M209.987 453.973q0 -29.998 -16.499 -46.9971t-45.4971 -16.999q-45.9971 0 -45.9971 41.9971q0 29.998 16.499 46.4971t45.4971 16.499q45.9971 0 45.9971 -40.9971zM92.9941 -156.99q-2 -13.999 -10.499 -21.499q-8.5 -7.49902 -28.498 -7.49902h-47.9971
l86.9941 467.971h72.9961z" />
    <glyph glyph-name="question" unicode="?" horiz-adv-x="436" 
d="M91 32q0 30 16.5 47t45.5 17q46 0 46 -42q0 -30 -16.5 -46.5t-45.5 -16.5q-46 0 -46 41zM255 684q97 0 143.5 -35t46.5 -109q0 -46 -16 -77.5t-40.5 -55t-53.5 -42.5t-55.5 -38.5t-46.5 -44t-25 -59.5l-3 -19h-68l3 24q6 45 24.5 75.5t43.5 52.5t52 39t50 35.5t38 42
t15 59.5q0 88 -123 88q-33 0 -70 -5.5t-77 -17.5l7 40q3 17 10.5 22.5t30.5 11.5t51 9.5t63 3.5z" />
    <glyph glyph-name="questiondown" unicode="&#xbf;" horiz-adv-x="412" 
d="M351.979 453.973q0 -29.998 -16.499 -46.9971t-45.4971 -16.999q-45.9971 0 -45.9971 41.9971q0 29.998 16.499 46.4971t45.4971 16.499q45.9971 0 45.9971 -40.9971zM187.988 -197.988q-96.9941 0 -143.491 34.998t-46.4971 108.993q0 45.9971 15.999 77.4961
q15.999 31.498 40.498 54.9961q24.498 23.499 53.4961 42.4971q28.998 18.999 55.4971 38.498q26.498 19.499 46.4971 43.9971q19.999 24.499 24.998 59.4971l3 18.998h67.9961l-3 -23.998q-6 -44.9971 -24.498 -75.4951q-18.499 -30.499 -43.498 -52.4971
q-24.998 -21.999 -51.9961 -38.998q-26.999 -16.999 -49.9971 -35.4971q-22.999 -18.499 -37.998 -41.998q-14.999 -23.498 -14.999 -59.4961q0 -87.9951 122.992 -87.9951q32.998 0 69.9961 5.5t76.9951 17.499l-6.99902 -39.998q-3 -16.999 -10.5 -22.498
q-7.49902 -5.5 -30.498 -11.499q-22.998 -6 -50.9971 -9.5q-27.998 -3.5 -62.9961 -3.5z" />
    <glyph glyph-name="asterisk" unicode="*" horiz-adv-x="471" 
d="M310 502l158 15v-76l-162 11l65 -147l-75 -25l-31 158l-120 -109l-47 65l140 80l-142 85l46 62l124 -106l23 133q4 28 41 16l44 -15z" />
    <glyph glyph-name="period" unicode="." horiz-adv-x="231" 
d="M26 33q0 30 16.5 47t45.5 17q48 0 48 -42q0 -30 -17 -47t-46 -17q-47 0 -47 42z" />
    <glyph glyph-name="comma" unicode="," horiz-adv-x="231" 
d="M143 83l-112 -227h-68l81 197q4 10 8 16t8.5 9t10.5 4t16 1h56z" />
    <glyph glyph-name="colon" unicode=":" horiz-adv-x="247" 
d="M34 33q0 30 16.5 47t45.5 17q48 0 48 -42q0 -30 -17 -47t-46 -17q-47 0 -47 42zM104 431q0 30 16.5 47t45.5 17q48 0 48 -42q0 -30 -17 -47t-46 -17q-47 0 -47 42z" />
    <glyph glyph-name="semicolon" unicode=";" horiz-adv-x="247" 
d="M151 83l-112 -227h-68l81 197q4 10 8 16t8.5 9t10.5 4t16 1h56zM104 431q0 30 16.5 47t45.5 17q48 0 48 -42q0 -30 -17 -47t-46 -17q-47 0 -47 42z" />
    <glyph glyph-name="ellipsis" unicode="&#x2026;" horiz-adv-x="864" 
d="M54 33q0 30 16.5 47t45.5 17q48 0 48 -42q0 -30 -17 -47t-46 -17q-47 0 -47 42zM342 33q0 30 16.5 47t45.5 17q48 0 48 -42q0 -30 -17 -47t-46 -17q-47 0 -47 42zM630 33q0 30 16.5 47t45.5 17q48 0 48 -42q0 -30 -17 -47t-46 -17q-47 0 -47 42z" />
    <glyph glyph-name="periodcentered" unicode="&#xb7;" horiz-adv-x="231" 
d="M61 236q0 30 16.5 47t45.5 17q48 0 48 -42q0 -30 -17 -47t-46 -17q-47 0 -47 42z" />
    <glyph glyph-name="uni22C5" unicode="&#x22c5;" horiz-adv-x="231" 
d="M61 236q0 30 16.5 47t45.5 17q48 0 48 -42q0 -30 -17 -47t-46 -17q-47 0 -47 42z" />
    <glyph glyph-name="bullet" unicode="&#x2022;" horiz-adv-x="414" 
d="M114 336q0 47 31.5 78.5t79.5 31.5q47 0 78.5 -31.5t31.5 -78.5q0 -48 -31.5 -79.5t-78.5 -31.5q-48 0 -79.5 31.5t-31.5 79.5z" />
    <glyph glyph-name="slash" unicode="/" horiz-adv-x="379" 
d="M360 676q10 18 18.5 23t27.5 5h45l-432 -832h-77z" />
    <glyph glyph-name="parenleft" unicode="(" horiz-adv-x="306" 
d="M362 704q-105 -97 -159 -227.5t-54 -278.5q0 -88 16 -171.5t53 -154.5h-76q-36 65 -52.5 147t-16.5 173q0 139 45 263.5t131 221.5q17 18 24 22.5t21 4.5h68z" />
    <glyph glyph-name="brokenbar" unicode="&#xa6;" horiz-adv-x="240" 
d="M154 -176h-68v384h68v-384zM154 304h-68v352q0 17 6 24.5t26 7.5h36v-384z" />
    <glyph glyph-name="parenright" unicode=")" horiz-adv-x="306" 
d="M-42 -128q105 97 159 227.5t54 278.5q0 88 -16 171.5t-53 154.5h76q36 -65 52.5 -147t16.5 -173q0 -139 -45.5 -263.5t-130.5 -221.5q-17 -18 -24 -22.5t-21 -4.5h-68z" />
    <glyph glyph-name="bracketleft" unicode="[" horiz-adv-x="304" 
d="M358 704l-11 -63h-108l-124 -706h108l-11 -63h-182l141 800q3 17 10 24.5t27 7.5h150z" />
    <glyph glyph-name="backslash" unicode="\" horiz-adv-x="380" 
d="M92 704h69l142 -832h-32q-19 0 -28.5 5t-12.5 23z" />
    <glyph glyph-name="bracketright" unicode="]" horiz-adv-x="302" 
d="M-39 -128l11 63h108l124 706h-108l11 63h182l-141 -800q-3 -17 -10 -24.5t-27 -7.5h-150z" />
    <glyph glyph-name="braceleft" unicode="{" horiz-adv-x="303" 
d="M50 320q38 2 58 26t28 66l26 152q13 74 51 107t115 33h30l-11 -63h-15q-44 0 -66.5 -20t-30.5 -65l-27 -156q-17 -96 -91 -117q54 -17 54 -80q0 -9 -1 -19t-3 -20l-24 -136q-3 -18 -3 -35q0 -31 17.5 -44.5t54.5 -13.5h10l-11 -63h-22q-127 0 -127 100q0 12 1.5 23
t3.5 25l26 144q3 16 3 33q0 60 -71 60h-12l7 40q3 14 8 18t22 5z" />
    <glyph glyph-name="bar" unicode="|" horiz-adv-x="240" 
d="M154 -224h-68v928q0 17 6 24.5t26 7.5h36v-960z" />
    <glyph glyph-name="braceright" unicode="}" horiz-adv-x="303" 
d="M225 410q-9 -50 7 -69t46 -21q17 -1 21 -5.5t1 -18.5l-6 -38h-9q-47 0 -70.5 -21t-31.5 -69l-26 -146q-14 -78 -54.5 -113.5t-119.5 -35.5h-20l11 63h9q47 0 69 20.5t31 68.5l27 149q8 45 29 74.5t59 40.5q-33 11 -44.5 40.5t-3.5 74.5l27 149q9 48 -7.5 68.5t-62.5 20.5
h-9l11 63h20q78 0 107 -35.5t15 -113.5z" />
    <glyph glyph-name="hyphen" unicode="-" horiz-adv-x="320" 
d="M300 278l-11 -62h-268l5 30q3 17 10 24.5t27 7.5h237z" />
    <glyph glyph-name="uni00AD" unicode="&#xad;" horiz-adv-x="336" 
d="M300 278l-11 -62h-268l5 30q3 17 10 24.5t27 7.5h237z" />
    <glyph glyph-name="endash" unicode="&#x2013;" horiz-adv-x="576" 
d="M556 278l-11 -62h-524l5 30q3 17 10 24.5t27 7.5h493z" />
    <glyph glyph-name="emdash" unicode="&#x2014;" horiz-adv-x="864" 
d="M844 278l-11 -62h-812l5 30q3 17 10 24.5t27 7.5h781z" />
    <glyph glyph-name="underscore" unicode="_" horiz-adv-x="480" 
d="M420 -97l-11 -62h-480l5 30q3 17 10 24.5t27 7.5h449z" />
    <glyph glyph-name="dagger" unicode="&#x2020;" horiz-adv-x="463" 
d="M71 435l6 33q2 14 10.5 21.5t28.5 7.5h126l26 146q2 14 10.5 21.5t28.5 7.5h34l-31 -175h164l-12 -62h-163l-76 -435h-68l76 435h-160z" />
    <glyph glyph-name="daggerdbl" unicode="&#x2021;" horiz-adv-x="467" 
d="M201 237l34 198h-164l6 33q2 14 10.5 21.5t28.5 7.5h130l26 146q2 14 10.5 21.5t28.5 7.5h34l-31 -175h164l-12 -62h-163l-34 -198h168l-11 -62h-168l-31 -175h-68l30 175h-158l6 33q2 14 10.5 21.5t28.5 7.5h125z" />
    <glyph glyph-name="section" unicode="&#xa7;" horiz-adv-x="541" 
d="M12 -50q45 -18 100 -29t105 -11q63 0 96 22.5t33 77.5q0 35 -20.5 55t-52 34.5t-67.5 26.5t-67.5 31t-52 48t-20.5 77q0 42 18.5 76t57.5 69q-25 33 -25 83q0 80 56 127t162 47q43 0 82 -6.5t75 -16.5q21 -6 27.5 -11t3.5 -19l-9 -47q-42 15 -84.5 24.5t-90.5 9.5
q-67 0 -103 -24.5t-36 -79.5q0 -35 21 -55t52 -34.5t68 -26.5t68 -31t52 -48t21 -77q0 -42 -19 -76.5t-58 -69.5q11 -16 17.5 -36t6.5 -46q0 -80 -56 -124.5t-162 -44.5q-26 0 -54 3t-55.5 8t-53.5 12.5t-48 15.5zM288 338q-26 11 -51.5 22t-48.5 25q-25 -21 -35.5 -45.5
t-10.5 -47.5q0 -25 10 -41t26.5 -27.5t38 -20t43.5 -17.5q26 -11 51.5 -22t47.5 -25q26 21 36.5 45t10.5 48q0 25 -10 41t-26.5 27.5t-38 20t-43.5 17.5z" />
    <glyph glyph-name="paragraph" unicode="&#xb6;" horiz-adv-x="623" 
d="M613 672q20 0 24.5 -7.5t1.5 -24.5l-5 -31h-59l-133 -753h-69l133 753h-59l-133 -753h-69l71 403h-39q-99 0 -150 43t-51 125q0 58 18 103.5t51.5 77t80.5 48t105 16.5h282z" />
    <glyph glyph-name="registered" unicode="&#xae;" horiz-adv-x="820" 
d="M58 336q0 96 21 165.5t65.5 114.5t114 66.5t167.5 21.5q97 0 167 -21.5t114.5 -66.5t65.5 -114.5t21 -165.5t-21 -165.5t-65.5 -114.5t-114.5 -66.5t-167 -21.5q-98 0 -167.5 21.5t-114 66.5t-65.5 114.5t-21 165.5zM109 336q0 -86 18.5 -147.5t57.5 -100.5t99 -57.5
t142 -18.5t142 18.5t99 57.5t57.5 100.5t18.5 147.5t-18 147.5t-56.5 100.5t-98.5 57.5t-144 18.5t-144 -18.5t-98.5 -57.5t-56.5 -100.5t-18 -147.5zM280 525q0 11 4 15t16 4h149q77 0 111 -30t34 -97q0 -57 -28.5 -87.5t-78.5 -34.5l121 -167h-70l-114 161h-84v-161h-60
v397zM340 338h107q45 0 65.5 18.5t20.5 60.5t-20.5 60t-65.5 18h-107v-157z" />
    <glyph glyph-name="copyright" unicode="&#xa9;" horiz-adv-x="820" 
d="M58 336q0 96 21 165.5t65.5 114.5t114 66.5t167.5 21.5q97 0 167 -21.5t114.5 -66.5t65.5 -114.5t21 -165.5t-21 -165.5t-65.5 -114.5t-114.5 -66.5t-167 -21.5q-98 0 -167.5 21.5t-114 66.5t-65.5 114.5t-21 165.5zM109 336q0 -86 18.5 -147.5t57.5 -100.5t99 -57.5
t142 -18.5t142 18.5t99 57.5t57.5 100.5t18.5 147.5t-18 147.5t-56.5 100.5t-98.5 57.5t-144 18.5t-144 -18.5t-98.5 -57.5t-56.5 -100.5t-18 -147.5zM529 544q22 -6 26.5 -10.5t4.5 -15.5v-33q-51 16 -112 16q-78 0 -110.5 -38.5t-32.5 -126.5q0 -89 33 -127t110 -38
q61 0 112 16v-50q-26 -9 -56 -13t-63 -4q-106 0 -153 51t-47 165t47 165t153 51q29 0 52 -2.5t36 -5.5z" />
    <glyph glyph-name="trademark" unicode="&#x2122;" horiz-adv-x="915" 
d="M816 646q5 8 9 13t8 8t10 4t16 1h35v-416h-60v321l-124 -201h-43l-121 201v-321h-59v416h61l141 -233zM381 672q15 0 20 -5t5 -19v-26h-140v-366h-62v366h-141v50h318z" />
    <glyph glyph-name="quotedblleft" unicode="&#x201c;" horiz-adv-x="431" 
d="M80 446l112 227h68l-81 -197q-9 -21 -16.5 -25.5t-26.5 -4.5h-56zM279 446l112 227h68l-81 -197q-9 -21 -16.5 -25.5t-26.5 -4.5h-56z" />
    <glyph glyph-name="quotedblright" unicode="&#x201d;" horiz-adv-x="431" 
d="M263 672l-112 -227h-68l81 197q4 10 8 16t8.5 9t10.5 4t16 1h56zM462 672l-112 -227h-68l81 197q4 10 8 16t8.5 9t10.5 4t16 1h56z" />
    <glyph glyph-name="quoteleft" unicode="&#x2018;" horiz-adv-x="231" 
d="M80 446l112 227h68l-81 -197q-9 -21 -16.5 -25.5t-26.5 -4.5h-56z" />
    <glyph glyph-name="quoteright" unicode="&#x2019;" horiz-adv-x="231" 
d="M263 672l-112 -227h-68l81 197q4 10 8 16t8.5 9t10.5 4t16 1h56z" />
    <glyph glyph-name="guillemotleft" unicode="&#xab;" horiz-adv-x="495" 
d="M175 406q9 11 15.5 17t13 9t13.5 3.5t18 0.5h43l-167 -197l103 -189h-72l-111 193zM390 406q9 11 15.5 17t13 9t13.5 3.5t18 0.5h43l-166 -197l102 -189h-72l-111 193z" />
    <glyph glyph-name="guillemotright" unicode="&#xbb;" horiz-adv-x="495" 
d="M319 80q-9 -11 -15.5 -17t-13 -9t-13.5 -3.5t-18 -0.5h-43l167 197l-103 189h72l111 -193zM104 80q-9 -11 -15.5 -17t-13 -9t-13.5 -3.5t-18 -0.5h-43l166 197l-102 189h72l111 -193z" />
    <glyph glyph-name="guilsinglleft" unicode="&#x2039;" horiz-adv-x="279" 
d="M175 406q9 11 15.5 17t13 9t13.5 3.5t18 0.5h43l-167 -197l103 -189h-72l-111 193l144 163v0z" />
    <glyph glyph-name="guilsinglright" unicode="&#x203a;" horiz-adv-x="279" 
d="M105 80q-9 -11 -15.5 -17t-13 -9t-13.5 -3.5t-18 -0.5h-44l167 197l-103 189h72l112 -193l-144 -163v0z" />
    <glyph glyph-name="quotesinglbase" unicode="&#x201a;" horiz-adv-x="231" 
d="M143 83l-112 -227h-68l81 197q4 10 8 16t8.5 9t10.5 4t16 1h56z" />
    <glyph glyph-name="quotedblbase" unicode="&#x201e;" horiz-adv-x="431" 
d="M143 83l-112 -227h-68l81 197q4 10 8 16t8.5 9t10.5 4t16 1h56zM342 83l-112 -227h-68l81 197q4 10 8 16t8.5 9t10.5 4t16 1h56z" />
    <glyph glyph-name="ordfeminine" unicode="&#xaa;" horiz-adv-x="411" 
d="M307 377v6.5t1 7.5q-14 -23 -41 -36.5t-64 -13.5q-51 0 -84 27t-33 91q0 42 10.5 81.5t31.5 70.5t51.5 50t69.5 19t64 -15t37 -38l8 27q7 18 23 18h28l-53 -265q-3 -15 1 -19.5t15 -5.5l12 -1l-7 -34q-8 -1 -16.5 -1.5t-13.5 -0.5q-18 0 -29.5 7.5t-10.5 24.5zM142 464
q0 -45 22 -61.5t59 -16.5q35 0 59.5 21.5t32.5 63.5l11 56q4 19 4 36q1 37 -23 54.5t-57 17.5q-28 0 -48.5 -15t-33.5 -39t-19.5 -55t-6.5 -62zM77 278h302l-9 -50h-302z" />
    <glyph glyph-name="ordmasculine" unicode="&#xba;" horiz-adv-x="388" 
d="M53 278h302l-9 -50h-302zM86 461q0 103 46 161t131 58q136 0 136 -120q0 -103 -47 -161t-130 -58q-136 0 -136 120zM147 467q0 -77 78 -77q52 0 82.5 44t30.5 120t-78 76q-54 0 -83.5 -43.5t-29.5 -119.5z" />
    <glyph glyph-name="arrowleft" unicode="&#x2190;" horiz-adv-x="864" 
d="M189 251l234 -231h-107l-268 268l268 268h107l-234 -231h630v-74h-630z" />
    <glyph glyph-name="arrowup" unicode="&#x2191;" horiz-adv-x="864" 
d="M402 538l-230 -233v107l267 267l268 -267v-107l-231 233v-630h-74v630z" />
    <glyph glyph-name="arrowright" unicode="&#x2192;" horiz-adv-x="985" 
d="M689 325l-233 231h107l268 -268l-268 -268h-107l233 231h-629v74h629z" />
    <glyph glyph-name="arrowdown" unicode="&#x2193;" horiz-adv-x="864" 
d="M476 38l231 233v-107l-268 -267l-267 267v107l230 -233v630h74v-630z" />
    <glyph glyph-name="zero" unicode="0" 
d="M262 55q41 0 69 12.5t54 38.5q24 24 43.5 65.5t32.5 90.5t20 101.5t7 100.5q0 78 -33.5 115.5t-93.5 37.5q-41 0 -69.5 -12.5t-54.5 -38.5q-24 -24 -43.5 -65.5t-32.5 -90.5t-20 -101.5t-7 -100.5q0 -78 34 -115.5t94 -37.5zM262 -12q-108 0 -159 57t-51 159
q0 56 8.5 115.5t25 115t40.5 102t55 76.5q38 36 81 53.5t99 17.5q108 0 158.5 -57t50.5 -159q0 -56 -8.5 -115.5t-25 -115t-40.5 -102t-55 -76.5q-38 -36 -80.5 -53.5t-98.5 -17.5z" />
    <glyph glyph-name="one" unicode="1" 
d="M92 64h151l91 522l-151 -20l8 49q2 14 7 17.5t18 5.5l214 34l-107 -608h149l-11 -64h-380z" />
    <glyph glyph-name="two" unicode="2" 
d="M332 341q24 22 45 43t37 42.5t25 44t9 48.5q0 53 -32 75.5t-103 22.5q-35 0 -82 -7.5t-90 -21.5l8 44q1 8 2.5 13t5 8.5t10 6t18.5 5.5q32 9 68.5 14t67.5 5q106 0 156.5 -41.5t49.5 -118.5q0 -37 -11 -66t-29.5 -55.5t-44.5 -51.5t-57 -54l-249 -231h325l-12 -66h-432
l5 32q2 14 7.5 23t23.5 26z" />
    <glyph glyph-name="three" unicode="3" 
d="M541 537q0 -39 -12 -71t-31 -56t-43.5 -39.5t-48.5 -21.5q17 -3 33.5 -10.5t30 -21.5t22 -36t8.5 -54q0 -55 -17.5 -99.5t-53.5 -75.5t-91 -47.5t-130 -16.5q-47 0 -89.5 5.5t-80.5 13.5l12 66q38 -9 78.5 -15t84.5 -6q104 0 154 42.5t50 120.5q0 60 -43 80.5t-139 20.5
h-24l10 60h25q36 0 62 3t45.5 8.5t33.5 13.5t25 17q27 23 37.5 50t10.5 56q0 51 -35.5 72t-104.5 21q-41 0 -84 -7.5t-84 -21.5l8 45q2 17 7.5 21t25.5 10q23 7 65 13.5t86 6.5q96 0 146.5 -37.5t50.5 -109.5z" />
    <glyph glyph-name="four" unicode="4" 
d="M444 225h93l-11 -63h-93l-28 -162h-74l28 162h-337l7 44q2 14 6 20.5t15 18.5l361 399q9 10 14.5 15.5t11 8.5t12.5 3.5t18 0.5h56zM370 225l62 353l-323 -353h261z" />
    <glyph glyph-name="five" unicode="5" 
d="M217 -12q-48 0 -92 4.5t-83 14.5l12 64q40 -9 81.5 -14t81.5 -5q107 0 156.5 41t49.5 122q0 36 -13 59.5t-37 37.5t-57.5 19.5t-75.5 5.5q-26 0 -59.5 -3.5t-62.5 -10.5l56 317q3 17 10.5 24.5t26.5 7.5h344l-11 -63h-301l-39 -217q17 3 37.5 4.5t35.5 1.5q46 0 87 -7
t72.5 -26.5t50 -53t18.5 -86.5q0 -110 -72 -173.5t-216 -63.5z" />
    <glyph glyph-name="six" unicode="6" 
d="M526 256q0 -58 -16 -107t-48 -85t-80 -56t-112 -20q-45 0 -83 12t-66 37.5t-44 65t-16 95.5q0 122 34 225.5t100 170.5q45 46 106.5 68t131.5 22q26 0 53.5 -2.5t53.5 -10.5q23 -8 27 -14t-1 -25l-9 -35q-33 14 -67 18.5t-67 4.5q-105 0 -173 -67q-33 -33 -58.5 -87.5
t-36.5 -112.5q28 33 69.5 54.5t108.5 21.5q91 0 142 -42t51 -131zM323 367q-39 0 -72 -12.5t-57 -36t-37 -56.5t-13 -75q0 -38 10.5 -64t28.5 -41.5t42.5 -22.5t52.5 -7q42 0 74.5 14t54 39.5t32.5 61t11 78.5q0 60 -32.5 91t-94.5 31z" />
    <glyph glyph-name="seven" unicode="7" 
d="M570 608l-367 -608h-88l368 606h-354l11 66h441z" />
    <glyph glyph-name="eight" unicode="8" 
d="M274 -12q-111 0 -167.5 45.5t-56.5 126.5q0 75 40.5 126.5t109.5 65.5q-42 16 -63.5 48.5t-21.5 77.5q0 93 59 149.5t177 56.5q111 0 159 -41.5t48 -113.5q0 -31 -8 -61.5t-24.5 -55.5t-41.5 -42.5t-59 -23.5q58 -14 82.5 -56t24.5 -93q0 -47 -15.5 -85.5t-47 -66
t-80.5 -42.5t-115 -15zM478 512q0 46 -30 77t-100 31q-77 0 -115 -39t-38 -99q0 -21 6.5 -40.5t21.5 -34t39 -23.5t59 -9q82 0 119.5 38.5t37.5 98.5zM450 193q0 24 -6.5 45.5t-23 38t-45.5 26t-73 9.5q-83 0 -126.5 -40t-43.5 -107q0 -52 36 -82.5t109 -30.5q49 0 82 11
t53 30t29 44.5t9 55.5z" />
    <glyph glyph-name="nine" unicode="9" 
d="M307 304q39 0 72 13t56.5 36.5t36.5 57t13 74.5q0 38 -10.5 64t-29.5 41.5t-44 22.5t-54 7q-38 0 -69 -13t-53 -37t-34 -57.5t-12 -73.5q0 -38 9.5 -63.5t26.5 -41.5t40.5 -23t51.5 -7zM196 -12q-33 0 -67 3.5t-72 14.5l13 64q38 -11 71 -14.5t65 -3.5q52 0 94.5 17
t78.5 50q35 32 58 82.5t37 116.5q-26 -32 -69.5 -53.5t-109.5 -21.5q-43 0 -78 11t-60.5 33.5t-39.5 56t-14 79.5q0 58 16.5 106t48.5 82.5t78.5 53.5t107.5 19q101 0 156.5 -54t55.5 -166q0 -57 -8.5 -113.5t-24.5 -107.5t-40 -93.5t-55 -72.5q-47 -45 -109.5 -67
t-132.5 -22z" />
    <glyph glyph-name="dollar" unicode="$" 
d="M529 555q-43 15 -85.5 23t-89.5 8q-72 0 -111.5 -26.5t-39.5 -79.5q0 -37 21.5 -57t54.5 -33t70.5 -23.5t70.5 -29t54.5 -49.5t21.5 -85q0 -83 -53 -130t-156 -53l-29 -164h-74l29 166q-44 3 -84.5 12t-78.5 23l12 66q48 -18 95.5 -27.5t99.5 -9.5q75 0 115 28t40 83
q0 38 -22 59.5t-54.5 34.5t-70.5 24t-70.5 29t-54.5 48t-22 82q0 80 53 126t153 51l24 136q2 14 10.5 21.5t28.5 7.5h40l-29 -167q35 -2 60.5 -7t47.5 -11q23 -7 27.5 -12t2.5 -20l-7 -44v0z" />
    <glyph glyph-name="cent" unicode="&#xa2;" 
d="M369 726q2 14 10.5 21.5t28.5 7.5h40l-30 -166q20 -2 38 -4.5t35 -6.5q26 -5 30 -11.5t2 -19.5l-8 -44q-30 11 -62 17.5t-66 6.5q-91 0 -140 -66.5t-49 -189.5q0 -126 133 -126q66 0 124 16l-11 -65q-28 -8 -56 -11.5t-60 -3.5l-28 -164h-74l29 168q-139 26 -139 174
q0 145 60 231.5t169 98.5z" />
    <glyph glyph-name="Euro" unicode="&#x20ac;" 
d="M203 237v-14q0 -94 41.5 -134t136.5 -40q32 0 64.5 4t64.5 12l-11 -62q-65 -15 -132 -15q-129 0 -187 53.5t-58 172.5v23h-89l4 26q2 14 8 18t29 8l51 9q4 24 7 44.5t8 43.5h-81l4 24q2 14 8 18.5t29 8.5l58 10q43 119 123.5 178t185.5 59q33 0 64 -4t48 -9
q25 -7 29 -12.5t2 -19.5l-7 -39q-32 11 -63 17t-66 6q-73 0 -133 -40.5t-99 -135.5h248l-11 -61h-257q-6 -23 -9 -43.5t-6 -44.5h255l-11 -61h-248z" />
    <glyph glyph-name="florin" unicode="&#x192;" 
d="M178 385q1 7 2.5 11.5t5.5 7.5t10.5 4.5t17.5 3.5l53 9l22 124q24 139 160 139q20 0 38 -2t29 -4q14 -3 17.5 -8.5t1.5 -18.5l-8 -40q-33 9 -68 9q-76 0 -91 -81l-21 -117h123l-12 -63h-122l-41 -237q-12 -67 -50 -100.5t-106 -33.5q-43 0 -85 11l11 62q34 -9 64 -9
q74 0 87 76l40 233h-83z" />
    <glyph glyph-name="sterling" unicode="&#xa3;" 
d="M212 495q17 98 73.5 143.5t156.5 45.5q35 0 67.5 -5.5t52.5 -10.5q19 -5 22.5 -11.5t0.5 -23.5l-7 -37q-36 11 -70 16.5t-64 5.5q-37 0 -63 -7.5t-43.5 -24t-28 -41.5t-16.5 -59l-20 -113h192l-9 -62h-194l-43 -247h273l-11 -64h-446l11 64h90l43 247h-82l4 26
q2 14 8 18.5t29 8.5l52 9z" />
    <glyph glyph-name="yen" unicode="&#xa5;" 
d="M335 273h182l-11 -61h-182l-37 -212h-80l37 212h-182l11 61h182l-33 88h-139l11 61h104l-104 250h92l121 -328h2l216 301q7 9 12 14.5t9.5 8.5t10.5 3.5t16 0.5h63l-192 -250h104l-11 -61h-139z" />
    <glyph glyph-name="numbersign" unicode="#" horiz-adv-x="620" 
d="M150 243l56 186h-122l10 56h128l49 162q5 17 12.5 21t24.5 4h34l-56 -187h169l49 162q5 17 12.5 21t24.5 4h32l-56 -187h119l-10 -56h-126l-56 -186h123l-10 -56h-129l-56 -187h-62l56 187h-169l-56 -187h-63l56 187h-118l10 56h124zM213 243h170l55 186h-169z" />
    <glyph glyph-name="percent" unicode="%" horiz-adv-x="862" 
d="M607 642q6 10 11 16t10 9t11.5 4t16.5 1h27l-417 -672h-56zM87 456q0 107 49 168t138 61q146 0 146 -130q0 -107 -49.5 -168t-137.5 -61q-146 0 -146 130zM148 462q0 -87 88 -87q57 0 90 46.5t33 127.5q0 86 -88 86q-58 0 -90.5 -46t-32.5 -127zM476 118q0 107 49 168
t138 61q146 0 146 -130q0 -107 -49.5 -168t-137.5 -61q-146 0 -146 130zM537 124q0 -87 88 -87q57 0 90 46.5t33 127.5q0 86 -88 86q-58 0 -90.5 -46t-32.5 -127z" />
    <glyph glyph-name="perthousand" unicode="&#x2030;" horiz-adv-x="1245" 
d="M607 642q6 10 11 16t10 9t11.5 4t16.5 1h27l-417 -672h-56zM87 456q0 107 49 168t138 61q146 0 146 -130q0 -107 -49.5 -168t-137.5 -61q-146 0 -146 130zM148 462q0 -87 88 -87q57 0 90 46.5t33 127.5q0 86 -88 86q-58 0 -90.5 -46t-32.5 -127zM476 118q0 107 49 168
t138 61q146 0 146 -130q0 -107 -49.5 -168t-137.5 -61q-146 0 -146 130zM537 124q0 -87 88 -87q57 0 90 46.5t33 127.5q0 86 -88 86q-58 0 -90.5 -46t-32.5 -127zM859 118q0 107 49 168t138 61q146 0 146 -130q0 -107 -49.5 -168t-137.5 -61q-146 0 -146 130zM920 124
q0 -87 88 -87q57 0 90 46.5t33 127.5q0 86 -88 86q-58 0 -90.5 -46t-32.5 -127z" />
    <glyph glyph-name="plus" unicode="+" horiz-adv-x="565" 
d="M252 473q0 14 7 21.5t27 7.5h34v-180h178v-68h-178v-180h-68v180h-176v39q0 14 7 21.5t27 7.5h142v151z" />
    <glyph glyph-name="minus" unicode="&#x2212;" horiz-adv-x="565" 
d="M498 322v-68h-422v39q0 14 7 21.5t27 7.5h388z" />
    <glyph glyph-name="multiply" unicode="&#xd7;" horiz-adv-x="565" 
d="M97 138l150 150l-150 150l48 48l150 -150l150 150l48 -48l-150 -150l150 -150l-48 -48l-150 150l-150 -150z" />
    <glyph glyph-name="less" unicode="&#x3c;" horiz-adv-x="565" 
d="M500 503v-74l-340 -140v-2l340 -139v-75l-422 177v50q0 15 5.5 23t25.5 16z" />
    <glyph glyph-name="divide" unicode="&#xf7;" horiz-adv-x="565" 
d="M237 464q0 26 12 37.5t39 11.5q50 0 50 -49t-50 -49q-27 0 -39 11.5t-12 37.5zM237 112q0 26 12 37.5t39 11.5q50 0 50 -49t-50 -49q-27 0 -39 11.5t-12 37.5zM499 322v-68h-422v39q0 14 7 21.5t27 7.5h388z" />
    <glyph glyph-name="equal" unicode="=" horiz-adv-x="565" 
d="M498 422v-68h-422v39q0 14 7 21.5t27 7.5h388zM498 222v-68h-422v39q0 14 7 21.5t27 7.5h388z" />
    <glyph glyph-name="logicalnot" unicode="&#xac;" horiz-adv-x="565" 
d="M498 322v-248h-70v180h-352v39q0 14 7 21.5t27 7.5h388z" />
    <glyph glyph-name="greater" unicode="&#x3e;" horiz-adv-x="565" 
d="M81 73v74l340 140v2l-340 139v75l422 -177v-50q0 -15 -5.5 -23t-25.5 -16z" />
    <glyph glyph-name="notequal" unicode="&#x2260;" horiz-adv-x="565" 
d="M345 576h72l-50 -154h131v-68h-153l-43 -132h196v-68h-218l-51 -154h-72l50 154h-131v39q0 14 7 21.5t27 7.5h119l43 132h-196v39q0 14 7 21.5t27 7.5h184z" />
    <glyph glyph-name="approxequal" unicode="&#x2248;" horiz-adv-x="565" 
d="M81 412q45 47 117 47q35 0 59 -11.5t44.5 -25.5t41 -25.5t49.5 -11.5q32 0 58.5 13.5t52.5 41.5v-77q-45 -47 -117 -47q-36 0 -60.5 11.5t-44.5 26t-40.5 26t-48.5 11.5q-32 0 -58.5 -13.5t-52.5 -42.5v77zM81 213q45 47 117 47q35 0 59 -11.5t44.5 -25.5t41 -25.5
t49.5 -11.5q32 0 58.5 13.5t52.5 41.5v-77q-45 -47 -117 -47q-36 0 -60.5 11.5t-44.5 26t-40.5 26t-48.5 11.5q-32 0 -58.5 -13.5t-52.5 -42.5v77z" />
    <glyph glyph-name="plusminus" unicode="&#xb1;" horiz-adv-x="565" 
d="M252 560q0 14 7 21.5t27 7.5h36v-180h176v-68h-176v-180h-70v180h-176v39q0 14 7 21.5t27 7.5h142v151zM498 68v-68h-422v39q0 14 7 21.5t27 7.5h388z" />
    <glyph glyph-name="lessequal" unicode="&#x2264;" horiz-adv-x="565" 
d="M500 68v-68h-422v39q0 14 7 21.5t27 7.5h388zM500 590v-74l-340 -140v-2l340 -139v-75l-422 177v50q0 15 5.5 23t25.5 16z" />
    <glyph glyph-name="greaterequal" unicode="&#x2265;" horiz-adv-x="565" 
d="M504 68v-68h-422v39q0 14 7 21.5t27 7.5h388zM82 161v74l340 140v2l-340 139v75l422 -177v-50q0 -15 -5.5 -23t-25.5 -16z" />
    <glyph glyph-name="asciicircum" unicode="^" horiz-adv-x="568" 
d="M260 645q8 17 15.5 22t25.5 5h53l192 -428h-78l-154 347h-2l-154 -347h-78z" />
    <glyph glyph-name="asciitilde" unicode="~" horiz-adv-x="568" 
d="M187 379q40 0 67.5 -17.5t49.5 -38.5t42 -38.5t46 -17.5q38 0 53.5 24.5t16.5 77.5h69q-1 -89 -33 -130.5t-103 -41.5q-41 0 -68.5 17.5t-49 38.5t-42 38.5t-45.5 17.5q-38 0 -54 -24.5t-16 -77.5h-69q1 89 33 130.5t103 41.5z" />
    <glyph glyph-name="lozenge" unicode="&#x25ca;" horiz-adv-x="568" 
d="M227 644q11 17 17.5 22.5t24.5 5.5h55l203 -336l-203 -336h-80l-203 336zM123 336l161 -266l161 266l-161 267z" />
    <glyph glyph-name="degree" unicode="&#xb0;" horiz-adv-x="339" 
d="M102 535q0 69 37 107.5t103 38.5q106 0 106 -99q0 -69 -37 -107.5t-103 -38.5q-53 0 -79.5 25.5t-26.5 73.5zM150 543q0 -61 63 -61q42 0 64.5 24.5t22.5 67.5q0 61 -63 61q-42 0 -64.5 -24.5t-22.5 -67.5z" />
    <glyph glyph-name="quotesingle" unicode="'" horiz-adv-x="231" 
d="M152 643q2 14 10.5 21.5t27.5 7.5h35l-40 -227h-68z" />
    <glyph glyph-name="quotedbl" unicode="&#x22;" horiz-adv-x="431" 
d="M152 643q2 14 10.5 21.5t28.5 7.5h34l-40 -227h-68zM335 643q2 14 10.5 21.5t28.5 7.5h34l-40 -227h-68z" />
    <glyph glyph-name="radical" unicode="&#x221a;" horiz-adv-x="658" 
d="M576 645q8 22 18.5 24.5t33.5 2.5h31l-250 -672h-85l-117 355h-134v39q0 14 7 21.5t27 7.5h151l109 -336h2z" />
    <glyph glyph-name="currency" unicode="&#xa4;" 
d="M115 336q0 72 25 114q-17 17 -35.5 37t-35.5 37l48 49l72 -73q40 25 112 25t112 -25l72 73l48 -49l-71 -74q25 -42 25 -114t-25 -114q17 -17 35.5 -37t35.5 -37l-48 -49l-72 73q-40 -25 -112 -25t-112 25l-72 -73l-48 49l71 74q-25 42 -25 114zM179 336q0 -67 28.5 -96
t93.5 -29t93 29t28 96t-28 96t-93 29t-93.5 -29t-28.5 -96z" />
    <glyph glyph-name="infinity" unicode="&#x221e;" horiz-adv-x="769" 
d="M41 234q0 55 13.5 100.5t38.5 78t61 50t80 17.5q33 0 57 -7.5t43 -24t34 -42t30 -61.5q44 73 91 104t112 31q73 0 107.5 -33.5t34.5 -104.5q0 -55 -13.5 -100.5t-38.5 -77.5t-61 -50t-80 -18q-33 0 -57 7.5t-43 24t-34 42t-30 61.5q-22 -37 -44.5 -62.5t-46.5 -41.5
t-51.5 -23.5t-60.5 -7.5q-73 0 -107.5 33.5t-34.5 104.5zM115 249q0 -47 19 -68t65 -21q49 0 84.5 29.5t70.5 101.5q-11 34 -21 57.5t-22.5 38.5t-29.5 22t-42 7q-57 0 -90.5 -45t-33.5 -122zM669 327q0 47 -19 68t-65 21q-49 0 -84.5 -29.5t-70.5 -101.5q11 -34 21 -57.5
t22.5 -38.5t29.5 -22t42 -7q57 0 90.5 45t33.5 122z" />
    <glyph glyph-name="mu" unicode="&#x3bc;" horiz-adv-x="551" 
d="M438 457q2 14 10.5 21.5t28.5 7.5h46l-85 -486h-60l3 57q-26 -34 -62.5 -51t-86.5 -17q-44 0 -74.5 15.5t-41.5 41.5l-45 -254h-80l122 694h80l-51 -289q-5 -28 -5 -52q0 -91 109 -91q121 0 144 129l48 274v0z" />
    <glyph glyph-name="uni00B5" unicode="&#xb5;" horiz-adv-x="551" 
d="M438 457q2 14 10.5 21.5t28.5 7.5h46l-85 -486h-60l3 57q-26 -34 -62.5 -51t-86.5 -17q-44 0 -74.5 15.5t-41.5 41.5l-45 -254h-80l122 694h80l-51 -289q-5 -28 -5 -52q0 -91 109 -91q121 0 144 129l48 274v0z" />
    <glyph glyph-name="partialdiff" unicode="&#x2202;" horiz-adv-x="551" 
d="M126 187q0 -70 29.5 -102.5t86.5 -32.5q42 0 75.5 20.5t57 56t35.5 84.5t12 106q0 56 -32 85.5t-89 29.5q-41 0 -73.5 -18t-55 -51t-34.5 -78.5t-12 -99.5zM299 653q-34 0 -68 -7t-70 -19l8 40q2 16 7 22t27 11q25 6 53.5 11t63.5 5q56 0 94.5 -14t62 -43t34 -75
t10.5 -110q0 -243 -71.5 -364.5t-213.5 -121.5q-95 0 -143.5 47.5t-48.5 146.5q0 70 17 128.5t49.5 100t79.5 64.5t106 23q52 0 89.5 -21t56.5 -59q2 18 2 36t-1 35q-1 43 -8.5 74t-24 51t-44 29.5t-67.5 9.5z" />
    <glyph glyph-name="summation" unicode="&#x2211;" horiz-adv-x="642" 
d="M366 257l-237 396l10 51h545l-12 -66h-445l222 -365l-7 -41l-364 -374h472l-11 -66h-577l4 25q2 11 3.5 18.5t5 14t9 13t14.5 16.5z" />
    <glyph glyph-name="product" unicode="&#x220f;" horiz-adv-x="826" 
d="M812 672q20 0 24.5 -7.5t1.5 -24.5l-6 -34h-80l-143 -814h-83l143 814h-353l-143 -814h-83l143 814h-86l12 66h653z" />
    <glyph glyph-name="pi" unicode="&#x3c0;" horiz-adv-x="577" 
d="M432 0h-77l74 423h-218l-74 -423h-77l74 423h-68l11 63h478q20 0 24.5 -7.5t1.5 -24.5l-5 -31h-70z" />
    <glyph glyph-name="integral" unicode="&#x222b;" horiz-adv-x="401" 
d="M319 650q-58 0 -82 -33t-24 -99q0 -54 8 -121t18 -139t18 -143.5t8 -133.5q0 -97 -40 -149t-124 -52q-47 0 -87 12l11 64q15 -5 31.5 -7.5t32.5 -2.5q54 0 77 33t23 99q0 54 -8 121t-17.5 139t-17.5 143.5t-8 133.5q0 97 40.5 149t130.5 52q6 0 22 -1t28 -4t17.5 -5
t7.5 -5t1.5 -8t-1.5 -13l-7 -39q-33 9 -58 9z" />
    <glyph glyph-name="Omega" unicode="&#x3a9;" horiz-adv-x="700" 
d="M-5 66h181q-51 56 -75.5 121t-24.5 144q0 82 22 147t64 111t103.5 70.5t140.5 24.5q134 0 200.5 -60.5t66.5 -175.5q0 -131 -52.5 -223.5t-156.5 -158.5h179l-11 -66h-274l12 63q108 63 163.5 157t55.5 216q0 181 -188 181q-117 0 -181.5 -76.5t-64.5 -215.5
q0 -78 25.5 -145t78.5 -121l-10 -59h-266z" />
    <glyph glyph-name="Ohm" unicode="&#x2126;" horiz-adv-x="700" 
d="M-5 66h181q-51 56 -75.5 121t-24.5 144q0 82 22 147t64 111t103.5 70.5t140.5 24.5q134 0 200.5 -60.5t66.5 -175.5q0 -131 -52.5 -223.5t-156.5 -158.5h179l-11 -66h-274l12 63q108 63 163.5 157t55.5 216q0 181 -188 181q-117 0 -181.5 -76.5t-64.5 -215.5
q0 -78 25.5 -145t78.5 -121l-10 -59h-266z" />
    <glyph glyph-name="uni0394" unicode="&#x394;" horiz-adv-x="671" 
d="M349 647q10 17 18.5 21t26.5 4h61l144 -619l-10 -53h-592l9 57zM397 593l-302 -527h423l-119 527h-2z" />
    <glyph glyph-name="Delta" unicode="&#x2206;" horiz-adv-x="671" 
d="M349 647q10 17 18.5 21t26.5 4h61l144 -619l-10 -53h-592l9 57zM397 593l-302 -527h423l-119 527h-2z" />
    <glyph glyph-name="litre" unicode="&#x2113;" horiz-adv-x="377" 
d="M399 591q0 -89 -64.5 -173t-185.5 -150l-18 -106q-2 -11 -3 -20t-1 -19q0 -71 85 -71q17 0 34 0.5t34 2.5l-11 -63q-17 -2 -34.5 -3t-37.5 -1q-73 0 -109.5 30.5t-36.5 89.5q0 23 5 51l70 402q27 155 154 155q119 0 119 -125zM335 582q0 70 -56 70q-64 0 -80 -96
l-36 -208q81 51 126.5 112t45.5 122z" />
    <glyph glyph-name="estimated" unicode="&#x212e;" horiz-adv-x="960" 
d="M496 16q73 0 135.5 30t107.5 82h66q-53 -66 -133 -105t-176 -39q-80 0 -149.5 27.5t-122 75.5t-82.5 112t-30 137t30 137t82.5 112t122 75.5t149.5 27.5q79 0 149 -27.5t122.5 -75.5t82.5 -112t30 -137q0 -11 -1 -16h-623v-196q44 -51 106 -79.5t134 -28.5zM256 352h480
v196q-45 50 -106.5 79t-133.5 29t-134 -29t-106 -79v-196z" />
    <glyph glyph-name="numero" unicode="&#x2116;" horiz-adv-x="1085" 
d="M608 640q3 17 10 24.5t26 7.5h47l-118 -672h-83l-273 555l-99 -555h-77l118 672h82l275 -558l92 526v0z" />
    <glyph glyph-name="fraction" unicode="&#x2044;" horiz-adv-x="128" 
d="M241 642q6 10 11 16t10 9t11.5 4t16.5 1h27l-417 -672h-56z" />
    <glyph glyph-name="onesuperior" unicode="&#xb9;" horiz-adv-x="311" 
d="M51 432h105l53 305l-112 -15l6 34q2 11 5.5 13.5t13.5 4.5l157 25l-65 -367h102l-8 -48h-265z" />
    <glyph glyph-name="twosuperior" unicode="&#xb2;" horiz-adv-x="348" 
d="M239 808q78 0 110 -27.5t32 -75.5q0 -26 -8.5 -47.5t-22.5 -41t-32.5 -37.5t-39.5 -35l-132 -110h192l-9 -50h-277l4 24q2 10 5 17.5t17 18.5l159 130q35 29 59.5 58.5t24.5 65.5q0 32 -21 45.5t-67 13.5q-27 0 -52 -3.5t-53 -11.5l6 32q2 13 6 17t21 8q19 5 42.5 7
t35.5 2z" />
    <glyph glyph-name="threesuperior" unicode="&#xb3;" horiz-adv-x="348" 
d="M161 572l7 44h18q39 0 65 6t41.5 16.5t21.5 25.5t6 33q0 32 -21 46.5t-69 14.5q-25 0 -51.5 -4t-51.5 -13l7 35q2 11 5.5 14.5t17.5 7.5t36 7t48 3q64 0 102 -23t38 -80q0 -19 -6.5 -37t-18.5 -33t-28.5 -25.5t-36.5 -14.5q24 -5 44.5 -24.5t20.5 -62.5
q0 -61 -45.5 -96.5t-143.5 -35.5q-24 0 -56.5 4.5t-58.5 13.5l9 49q26 -8 53 -12.5t56 -4.5q63 0 92.5 20.5t29.5 58.5q0 40 -28 53.5t-91 13.5h-12z" />
    <glyph glyph-name="onehalf" unicode="&#xbd;" horiz-adv-x="864" 
d="M46 304h105l53 305l-112 -15l6 34q2 11 5.5 13.5t13.5 4.5l157 25l-65 -367h102l-8 -48h-265zM608 642q6 10 11 16t10 9t11.5 4t16.5 1h27l-417 -672h-56zM696 424q78 0 110 -27.5t32 -75.5q0 -26 -8.5 -47.5t-22.5 -41t-32.5 -37.5t-39.5 -35l-132 -110h192l-9 -50h-277
l4 24q2 10 5 17.5t17 18.5l159 130q35 29 59.5 58.5t24.5 65.5q0 32 -21 45.5t-67 13.5q-27 0 -52 -3.5t-53 -11.5l6 32q2 13 6 17t21 8q19 5 42.5 7t35.5 2z" />
    <glyph glyph-name="onequarter" unicode="&#xbc;" horiz-adv-x="854" 
d="M732 143h61l-9 -47h-60l-16 -96h-55l17 96h-216l5 33q2 8 3.5 12.5t9.5 12.5l227 244q12 13 17 15.5t19 2.5h45zM678 143l36 207l-196 -207h160zM46 304h105l53 305l-112 -15l6 34q2 11 5.5 13.5t13.5 4.5l157 25l-65 -367h102l-8 -48h-265zM608 642q6 10 11 16t10 9
t11.5 4t16.5 1h27l-417 -672h-56z" />
    <glyph glyph-name="threequarters" unicode="&#xbe;" horiz-adv-x="865" 
d="M743 143h61l-9 -47h-60l-16 -96h-55l17 96h-216l5 33q2 8 3.5 12.5t9.5 12.5l227 244q12 13 17 15.5t19 2.5h45zM689 143l36 207l-196 -207h160zM149 444l7 44h18q39 0 65 6t41.5 16.5t21.5 25.5t6 33q0 32 -21 46.5t-69 14.5q-25 0 -51.5 -4t-51.5 -13l7 35
q2 11 5.5 14.5t17.5 7.5t36 7t48 3q64 0 102 -23t38 -80q0 -19 -6.5 -37t-18.5 -33t-28.5 -25.5t-36.5 -14.5q24 -5 44.5 -24.5t20.5 -62.5q0 -61 -45.5 -96.5t-143.5 -35.5q-24 0 -56.5 4.5t-58.5 13.5l9 49q26 -8 53 -12.5t56 -4.5q63 0 92.5 20.5t29.5 58.5
q0 40 -28 53.5t-91 13.5h-12zM608 642q6 10 11 16t10 9t11.5 4t16.5 1h27l-417 -672h-56z" />
    <glyph glyph-name="grave" unicode="`" horiz-adv-x="240" 
d="M227 564h-68l-109 140h50q20 0 27.5 -3t17.5 -17z" />
    <glyph glyph-name="acute" unicode="&#xb4;" horiz-adv-x="211" 
d="M230 684q13 13 20.5 16.5t27.5 3.5h64l-155 -140h-77z" />
    <glyph glyph-name="dieresis" unicode="&#xa8;" horiz-adv-x="240" 
d="M36 623q0 60 59 60q42 0 42 -38q0 -29 -14.5 -44.5t-43.5 -15.5q-43 0 -43 38zM230 623q0 60 58 60q43 0 43 -38q0 -29 -15 -44.5t-44 -15.5q-42 0 -42 38z" />
    <glyph glyph-name="circumflex" unicode="&#x2c6;" horiz-adv-x="240" 
d="M138 684q13 13 20 16.5t27 3.5h49l97 -140h-67l-70 101h-4l-100 -101h-76z" />
    <glyph glyph-name="tilde" unicode="&#x2dc;" horiz-adv-x="240" 
d="M23 589q8 52 31 75t67 23q20 0 36 -8t29.5 -17.5t26.5 -17.5t27 -8q19 0 30.5 11t15.5 37l2 10h58l-2 -14q-7 -53 -30 -76t-67 -23q-20 0 -36 8t-29.5 17.5t-26.5 17.5t-27 8q-20 0 -31 -11t-16 -37l-1 -9h-59z" />
    <glyph glyph-name="macron" unicode="&#xaf;" horiz-adv-x="240" 
d="M336 663l-10 -57h-295l5 28q2 14 10.5 21.5t27.5 7.5h262z" />
    <glyph glyph-name="breve" unicode="&#x2d8;" horiz-adv-x="240" 
d="M104 704q-8 -49 10.5 -71.5t67.5 -22.5t73.5 21.5t32.5 72.5h58q-12 -80 -51.5 -114.5t-117.5 -34.5q-133 0 -133 106q0 10 1 20.5t3 22.5h56z" />
    <glyph glyph-name="dotaccent" unicode="&#x2d9;" horiz-adv-x="240" 
d="M136 623q0 60 58 60q43 0 43 -38q0 -29 -14.5 -44.5t-43.5 -15.5q-43 0 -43 38z" />
    <glyph glyph-name="ring" unicode="&#x2da;" horiz-adv-x="240" 
d="M82 614q0 54 31 84t85 30q89 0 89 -74q0 -53 -31 -83.5t-85 -30.5q-89 0 -89 74zM127 619q0 -41 48 -41q29 0 48 19t19 52q0 42 -48 42q-30 0 -48.5 -19.5t-18.5 -52.5z" />
    <glyph glyph-name="cedilla" unicode="&#xb8;" horiz-adv-x="240" 
d="M49 0h56l-11 -60q67 -6 67 -67q0 -49 -34 -76.5t-94 -27.5q-23 0 -45.5 3t-45.5 10l8 46q19 -6 38 -9.5t39 -3.5q34 0 52.5 14t18.5 39q0 36 -59 36h-7z" />
    <glyph glyph-name="hungarumlaut" unicode="&#x2dd;" horiz-adv-x="240" 
d="M146 684q14 13 21 16.5t27 3.5h64l-156 -140h-78zM337 684q13 13 20.5 16.5t27.5 3.5h64l-155 -140h-78z" />
    <glyph glyph-name="ogonek" unicode="&#x2db;" horiz-adv-x="240" 
d="M115 0q-63 -47 -91 -80t-28 -60q0 -41 53 -41q18 0 36 3l-9 -49q-19 -4 -48 -4q-51 0 -73.5 18.5t-22.5 56.5q0 79 133 169z" />
    <glyph glyph-name="caron" unicode="&#x2c7;" horiz-adv-x="240" 
d="M238 584q-7 -7 -11.5 -11t-9 -6t-10.5 -2.5t-16 -0.5h-53l-96 140h67l70 -99h4l101 99h76z" />
    <glyph glyph-name="commaaccent" unicode="&#xf6c3;" horiz-adv-x="240" 
d="M35 -98q9 21 17 25.5t28 4.5h41l-97 -188h-59z" />
    <glyph glyph-name="grave.cap" unicode="&#xe840;" horiz-adv-x="240" 
d="M257 740h-68l-109 140h50q20 0 27.5 -3t17.5 -17z" />
    <glyph glyph-name="acute.cap" unicode="&#xe841;" horiz-adv-x="239" 
d="M274 860q13 13 20.5 16.5t27.5 3.5h64l-155 -140h-77z" />
    <glyph glyph-name="dieresis.cap" unicode="&#xe845;" horiz-adv-x="234" 
d="M66 799q0 60 59 60q42 0 42 -38q0 -29 -14.5 -44.5t-43.5 -15.5q-43 0 -43 38zM260 799q0 60 58 60q43 0 43 -38q0 -29 -15 -44.5t-44 -15.5q-42 0 -42 38z" />
    <glyph glyph-name="circumflex.cap" unicode="&#xe842;" horiz-adv-x="234" 
d="M165 860q13 13 20 16.5t27 3.5h49l97 -140h-67l-70 101h-4l-100 -101h-76z" />
    <glyph glyph-name="tilde.cap" unicode="&#xe844;" horiz-adv-x="234" 
d="M53 765q8 52 31 75t67 23q20 0 36 -8t29.5 -17.5t26.5 -17.5t27 -8q19 0 30.5 11t15.5 37l2 10h58l-2 -14q-7 -53 -30 -76t-67 -23q-20 0 -36 8t-29.5 17.5t-26.5 17.5t-27 8q-20 0 -31 -11t-16 -37l-1 -9h-59z" />
    <glyph glyph-name="macron.cap" unicode="&#xe846;" horiz-adv-x="233" 
d="M365 839l-10 -57h-295l5 28q2 14 10.5 21.5t27.5 7.5h262z" />
    <glyph glyph-name="breve.cap" unicode="&#xe847;" horiz-adv-x="234" 
d="M134 880q-8 -49 10.5 -71.5t67.5 -22.5t73.5 21.5t32.5 72.5h58q-12 -80 -51.5 -114.5t-117.5 -34.5q-133 0 -133 106q0 10 1 20.5t3 22.5h56z" />
    <glyph glyph-name="dotaccent.cap" unicode="&#xe84a;" horiz-adv-x="240" 
d="M166 799q0 60 58 60q43 0 43 -38q0 -29 -14.5 -44.5t-43.5 -15.5q-43 0 -43 38z" />
    <glyph glyph-name="ring.cap" unicode="&#xe848;" horiz-adv-x="237" 
d="M112 790q0 54 31 84t85 30q89 0 89 -74q0 -53 -31 -83.5t-85 -30.5q-89 0 -89 74zM157 795q0 -41 48 -41q29 0 48 19t19 52q0 42 -48 42q-30 0 -48.5 -19.5t-18.5 -52.5z" />
    <glyph glyph-name="hungarumlaut.cap" unicode="&#xe849;" horiz-adv-x="232" 
d="M176 860q14 13 21 16.5t27 3.5h64l-156 -140h-78zM367 860q13 13 20.5 16.5t27.5 3.5h64l-155 -140h-78z" />
    <glyph glyph-name="caron.cap" unicode="&#xe843;" horiz-adv-x="234" 
d="M265 760q-7 -7 -11.5 -11t-9 -6t-10.5 -2.5t-16 -0.5h-53l-96 140h67l70 -99h4l101 99h76z" />
    <glyph glyph-name="Agrave" unicode="&#xc0;" horiz-adv-x="629" 
d="M452 197h-286l-102 -197h-87l348 646q9 17 17.5 21.5t26.5 4.5h66l132 -672h-78zM198 259h243l-63 337h-4zM452 740h-68l-109 140h50q20 0 27.5 -3t17.5 -17z" />
    <glyph glyph-name="Aacute" unicode="&#xc1;" horiz-adv-x="629" 
d="M452 197h-286l-102 -197h-87l348 646q9 17 17.5 21.5t26.5 4.5h66l132 -672h-78zM198 259h243l-63 337h-4zM469 860q13 13 20.5 16.5t27.5 3.5h64l-155 -140h-77z" />
    <glyph glyph-name="Acircumflex" unicode="&#xc2;" horiz-adv-x="629" 
d="M452 197h-286l-102 -197h-87l348 646q9 17 17.5 21.5t26.5 4.5h66l132 -672h-78zM198 259h243l-63 337h-4zM363 860q13 13 20 16.5t27 3.5h49l97 -140h-67l-70 101h-4l-100 -101h-76z" />
    <glyph glyph-name="Atilde" unicode="&#xc3;" horiz-adv-x="629" 
d="M452 197h-286l-102 -197h-87l348 646q9 17 17.5 21.5t26.5 4.5h66l132 -672h-78zM198 259h243l-63 337h-4zM248 765q8 52 31 75t67 23q20 0 36 -8t29.5 -17.5t26.5 -17.5t27 -8q19 0 30.5 11t15.5 37l2 10h58l-2 -14q-7 -53 -30 -76t-67 -23q-20 0 -36 8t-29.5 17.5
t-26.5 17.5t-27 8q-20 0 -31 -11t-16 -37l-1 -9h-59z" />
    <glyph glyph-name="Adieresis" unicode="&#xc4;" horiz-adv-x="629" 
d="M452 197h-286l-102 -197h-87l348 646q9 17 17.5 21.5t26.5 4.5h66l132 -672h-78zM198 259h243l-63 337h-4zM264 799q0 60 59 60q42 0 42 -38q0 -29 -14.5 -44.5t-43.5 -15.5q-43 0 -43 38zM458 799q0 60 58 60q43 0 43 -38q0 -29 -15 -44.5t-44 -15.5q-42 0 -42 38z" />
    <glyph glyph-name="Amacron" unicode="&#x100;" horiz-adv-x="629" 
d="M452 197h-286l-102 -197h-87l348 646q9 17 17.5 21.5t26.5 4.5h66l132 -672h-78zM198 259h243l-63 337h-4zM564 839l-10 -57h-295l5 28q2 14 10.5 21.5t27.5 7.5h262z" />
    <glyph glyph-name="Abreve" unicode="&#x102;" horiz-adv-x="629" 
d="M452 197h-286l-102 -197h-87l348 646q9 17 17.5 21.5t26.5 4.5h66l132 -672h-78zM198 259h243l-63 337h-4zM332 880q-8 -49 10.5 -71.5t67.5 -22.5t73.5 21.5t32.5 72.5h58q-12 -80 -51.5 -114.5t-117.5 -34.5q-133 0 -133 106q0 10 1 20.5t3 22.5h56z" />
    <glyph glyph-name="Acaron" unicode="&#x1cd;" horiz-adv-x="629" 
d="M452 197h-286l-102 -197h-87l348 646q9 17 17.5 21.5t26.5 4.5h66l132 -672h-78zM198 259h243l-63 337h-4zM468 760q-7 -7 -11.5 -11t-9 -6t-10.5 -2.5t-16 -0.5h-53l-96 140h67l70 -99h4l101 99h76z" />
    <glyph glyph-name="Aring" unicode="&#xc5;" horiz-adv-x="629" 
d="M452 197h-286l-102 -197h-87l348 646q9 17 17.5 21.5t26.5 4.5h66l132 -672h-78zM198 259h243l-63 337h-4zM309 790q0 54 31 84t85 30q89 0 89 -74q0 -53 -31 -83.5t-85 -30.5q-89 0 -89 74zM354 795q0 -41 48 -41q29 0 48 19t19 52q0 42 -48 42q-30 0 -48.5 -19.5
t-18.5 -52.5z" />
    <glyph glyph-name="Aringacute" unicode="&#x1fa;" horiz-adv-x="629" 
d="M360 795q0 -41 48 -41q29 0 48 19t19 52q0 42 -48 42q-30 0 -48.5 -19.5t-18.5 -52.5zM606 1008l-124 -113q38 -17 38 -65q0 -53 -31 -83.5t-85 -30.5q-89 0 -89 74q0 48 25 77t69 35l88 86l10 10t8.5 6t10.5 3t16 1h64zM452 197h-286l-102 -197h-87l348 646
q9 17 17.5 21.5t26.5 4.5h66l132 -672h-78zM198 259h243l-63 337h-4z" />
    <glyph glyph-name="Aogonek" unicode="&#x104;" horiz-adv-x="629" 
d="M452 197h-286l-102 -197h-87l348 646q9 17 17.5 21.5t26.5 4.5h66l132 -672q-65 -47 -93.5 -80t-28.5 -60q0 -41 55 -41q18 0 36 3l-9 -49q-11 -2 -23 -3t-26 -1q-51 0 -74.5 18.5t-23.5 56.5q0 36 28.5 75t88.5 81h-8zM198 259h243l-63 337h-4z" />
    <glyph glyph-name="AE" unicode="&#xc6;" horiz-adv-x="923" 
d="M243 259h217l61 349h-4zM450 197h-256l-156 -197h-91l517 646q14 18 21.5 22t23.5 4h439l-11 -64h-333l-41 -235h239l-10 -62h-240l-43 -247h342l-10 -64h-426z" />
    <glyph glyph-name="AEacute" unicode="&#x1fc;" horiz-adv-x="923" 
d="M243 259h217l61 349h-4zM450 197h-256l-156 -197h-91l517 646q14 18 21.5 22t23.5 4h439l-11 -64h-333l-41 -235h239l-10 -62h-240l-43 -247h342l-10 -64h-426zM666 860q13 13 20.5 16.5t27.5 3.5h64l-155 -140h-77z" />
    <glyph glyph-name="Cacute" unicode="&#x106;" horiz-adv-x="589" 
d="M355 55q41 0 81 6t78 17l-12 -69q-39 -11 -84 -16t-89 -5q-271 0 -271 252q0 48 8 96.5t23 93.5t37.5 84t52.5 69q56 56 118.5 78.5t146.5 22.5q34 0 71.5 -6t61.5 -14q27 -9 31.5 -14.5t1.5 -18.5l-11 -47q-30 12 -70.5 22.5t-84.5 10.5q-54 0 -100.5 -12.5t-87.5 -53.5
q-55 -55 -84 -135.5t-29 -171.5q0 -54 14.5 -90.5t41.5 -58t66.5 -31t89.5 -9.5zM504 860q13 13 20.5 16.5t27.5 3.5h64l-155 -140h-77z" />
    <glyph glyph-name="Ccedilla" unicode="&#xc7;" horiz-adv-x="589" 
d="M355 55q41 0 81 6t78 17l-12 -69q-38 -10 -81.5 -15t-85.5 -6l-9 -48q67 -6 67 -67q0 -49 -34 -76.5t-94 -27.5q-23 0 -45.5 3t-45.5 10l8 46q19 -6 38 -9.5t39 -3.5q34 0 52.5 14t18.5 39q0 36 -59 36h-7l15 87q-221 21 -221 249q0 48 8 96.5t23 93.5t37.5 84t52.5 69
q56 56 118.5 78.5t146.5 22.5q34 0 71.5 -6t61.5 -14q27 -9 31.5 -14.5t1.5 -18.5l-11 -47q-30 12 -70.5 22.5t-84.5 10.5q-54 0 -100.5 -12.5t-87.5 -53.5q-55 -55 -84 -135.5t-29 -171.5q0 -54 14.5 -90.5t41.5 -58t66.5 -31t89.5 -9.5z" />
    <glyph glyph-name="Ccircumflex" unicode="&#x108;" horiz-adv-x="589" 
d="M355 55q41 0 81 6t78 17l-12 -69q-39 -11 -84 -16t-89 -5q-271 0 -271 252q0 48 8 96.5t23 93.5t37.5 84t52.5 69q56 56 118.5 78.5t146.5 22.5q34 0 71.5 -6t61.5 -14q27 -9 31.5 -14.5t1.5 -18.5l-11 -47q-30 12 -70.5 22.5t-84.5 10.5q-54 0 -100.5 -12.5t-87.5 -53.5
q-55 -55 -84 -135.5t-29 -171.5q0 -54 14.5 -90.5t41.5 -58t66.5 -31t89.5 -9.5zM399 860q13 13 20 16.5t27 3.5h49l97 -140h-67l-70 101h-4l-100 -101h-76z" />
    <glyph glyph-name="Ccaron" unicode="&#x10c;" horiz-adv-x="589" 
d="M355 55q41 0 81 6t78 17l-12 -69q-39 -11 -84 -16t-89 -5q-271 0 -271 252q0 48 8 96.5t23 93.5t37.5 84t52.5 69q56 56 118.5 78.5t146.5 22.5q34 0 71.5 -6t61.5 -14q27 -9 31.5 -14.5t1.5 -18.5l-11 -47q-30 12 -70.5 22.5t-84.5 10.5q-54 0 -100.5 -12.5t-87.5 -53.5
q-55 -55 -84 -135.5t-29 -171.5q0 -54 14.5 -90.5t41.5 -58t66.5 -31t89.5 -9.5zM499 760q-7 -7 -11.5 -11t-9 -6t-10.5 -2.5t-16 -0.5h-53l-96 140h67l70 -99h4l101 99h76z" />
    <glyph glyph-name="Cdotaccent" unicode="&#x10a;" horiz-adv-x="589" 
d="M355 55q41 0 81 6t78 17l-12 -69q-39 -11 -84 -16t-89 -5q-271 0 -271 252q0 48 8 96.5t23 93.5t37.5 84t52.5 69q56 56 118.5 78.5t146.5 22.5q34 0 71.5 -6t61.5 -14q27 -9 31.5 -14.5t1.5 -18.5l-11 -47q-30 12 -70.5 22.5t-84.5 10.5q-54 0 -100.5 -12.5t-87.5 -53.5
q-55 -55 -84 -135.5t-29 -171.5q0 -54 14.5 -90.5t41.5 -58t66.5 -31t89.5 -9.5zM397 799q0 60 58 60q43 0 43 -38q0 -29 -14.5 -44.5t-43.5 -15.5q-43 0 -43 38z" />
    <glyph glyph-name="Dcaron" unicode="&#x10e;" horiz-adv-x="679" 
d="M534 97q-23 -23 -50.5 -41t-63 -30.5t-79.5 -19t-101 -6.5h-200l112 640q3 17 10.5 24.5t26.5 7.5h168q82 0 138.5 -13.5t92 -41t51.5 -70.5t16 -103q0 -109 -31.5 -199t-89.5 -148zM570 440q0 47 -11.5 78.5t-37 51t-66.5 28t-99 8.5h-127l-95 -540h108q85 0 137 17.5
t90 55.5q19 19 37 49t32.5 69t23 85t8.5 98zM473 760q-7 -7 -11.5 -11t-9 -6t-10.5 -2.5t-16 -0.5h-53l-96 140h67l70 -99h4l101 99h76z" />
    <glyph glyph-name="Dcroat" unicode="&#x110;" horiz-adv-x="695" 
d="M550 97q-23 -23 -50.5 -41t-63 -30.5t-79.5 -19t-101 -6.5h-200l54 312h-74l9 60h76l47 268q3 17 10.5 24.5t26.5 7.5h168q82 0 138.5 -13.5t92 -41t51.5 -70.5t16 -103q0 -109 -31.5 -199t-89.5 -148zM586 440q0 47 -11.5 78.5t-37 51t-66.5 28t-99 8.5h-127l-41 -234
h177l-9 -60h-179l-43 -246h108q85 0 137 17.5t90 55.5q19 19 37 49t32.5 69t23 85t8.5 98z" />
    <glyph glyph-name="Eth" unicode="&#xd0;" horiz-adv-x="695" 
d="M550 97q-23 -23 -50.5 -41t-63 -30.5t-79.5 -19t-101 -6.5h-200l54 312h-74l9 60h76l47 268q3 17 10.5 24.5t26.5 7.5h168q82 0 138.5 -13.5t92 -41t51.5 -70.5t16 -103q0 -109 -31.5 -199t-89.5 -148zM586 440q0 47 -11.5 78.5t-37 51t-66.5 28t-99 8.5h-127l-41 -234
h177l-9 -60h-179l-43 -246h108q85 0 137 17.5t90 55.5q19 19 37 49t32.5 69t23 85t8.5 98z" />
    <glyph glyph-name="Egrave" unicode="&#xc8;" horiz-adv-x="573" 
d="M593 672l-11 -64h-353l-41 -235h259l-10 -62h-260l-43 -247h362l-10 -64h-446l112 640q3 17 10 24.5t27 7.5h404zM437 740h-68l-109 140h50q20 0 27.5 -3t17.5 -17z" />
    <glyph glyph-name="Eacute" unicode="&#xc9;" horiz-adv-x="573" 
d="M593 672l-11 -64h-353l-41 -235h259l-10 -62h-260l-43 -247h362l-10 -64h-446l112 640q3 17 10 24.5t27 7.5h404zM453 860q13 13 20.5 16.5t27.5 3.5h64l-155 -140h-77z" />
    <glyph glyph-name="Ecircumflex" unicode="&#xca;" horiz-adv-x="573" 
d="M593 672l-11 -64h-353l-41 -235h259l-10 -62h-260l-43 -247h362l-10 -64h-446l112 640q3 17 10 24.5t27 7.5h404zM348 860q13 13 20 16.5t27 3.5h49l97 -140h-67l-70 101h-4l-100 -101h-76z" />
    <glyph glyph-name="Ecaron" unicode="&#x11a;" horiz-adv-x="573" 
d="M593 672l-11 -64h-353l-41 -235h259l-10 -62h-260l-43 -247h362l-10 -64h-446l112 640q3 17 10 24.5t27 7.5h404zM447 760q-7 -7 -11.5 -11t-9 -6t-10.5 -2.5t-16 -0.5h-53l-96 140h67l70 -99h4l101 99h76z" />
    <glyph glyph-name="Edieresis" unicode="&#xcb;" horiz-adv-x="573" 
d="M593 672l-11 -64h-353l-41 -235h259l-10 -62h-260l-43 -247h362l-10 -64h-446l112 640q3 17 10 24.5t27 7.5h404zM248 799q0 60 59 60q42 0 42 -38q0 -29 -14.5 -44.5t-43.5 -15.5q-43 0 -43 38zM442 799q0 60 58 60q43 0 43 -38q0 -29 -15 -44.5t-44 -15.5q-42 0 -42 38
z" />
    <glyph glyph-name="Emacron" unicode="&#x112;" horiz-adv-x="573" 
d="M593 672l-11 -64h-353l-41 -235h259l-10 -62h-260l-43 -247h362l-10 -64h-446l112 640q3 17 10 24.5t27 7.5h404zM548 839l-10 -57h-295l5 28q2 14 10.5 21.5t27.5 7.5h262z" />
    <glyph glyph-name="Ebreve" unicode="&#x114;" horiz-adv-x="573" 
d="M593 672l-11 -64h-353l-41 -235h259l-10 -62h-260l-43 -247h362l-10 -64h-446l112 640q3 17 10 24.5t27 7.5h404zM317 880q-8 -49 10.5 -71.5t67.5 -22.5t73.5 21.5t32.5 72.5h58q-12 -80 -51.5 -114.5t-117.5 -34.5q-133 0 -133 106q0 10 1 20.5t3 22.5h56z" />
    <glyph glyph-name="Edotaccent" unicode="&#x116;" horiz-adv-x="573" 
d="M593 672l-11 -64h-353l-41 -235h259l-10 -62h-260l-43 -247h362l-10 -64h-446l112 640q3 17 10 24.5t27 7.5h404zM346 799q0 60 58 60q43 0 43 -38q0 -29 -14.5 -44.5t-43.5 -15.5q-43 0 -43 38z" />
    <glyph glyph-name="Eogonek" unicode="&#x118;" horiz-adv-x="573" 
d="M303 -156q0 36 28 75t86 81h-377l112 640q3 17 10 24.5t27 7.5h404l-11 -64h-353l-41 -235h259l-10 -62h-260l-43 -247h362l-10 -64q-63 -47 -91 -80t-28 -60q0 -41 53 -41q18 0 36 3l-9 -49q-19 -4 -48 -4q-51 0 -73.5 18.5t-22.5 56.5z" />
    <glyph glyph-name="Gcircumflex" unicode="&#x11c;" horiz-adv-x="648" 
d="M544 11q-26 -6 -54.5 -10t-56.5 -7t-53 -4.5t-44 -1.5q-146 0 -212 65t-66 187q0 48 7.5 97.5t24 96t42.5 89t63 75.5q55 50 117 68t131 18q40 0 84 -6t72 -15q27 -9 31.5 -14.5t1.5 -18.5l-11 -46q-47 18 -91 25.5t-86 7.5q-55 0 -101.5 -13t-83.5 -50
q-57 -57 -86.5 -138t-29.5 -172q0 -98 49.5 -144t158.5 -46q26 0 59.5 3t68.5 11l39 227h-187l5 33q4 26 34 26h233l-59 -343v0zM413 860q13 13 20 16.5t27 3.5h49l97 -140h-67l-70 101h-4l-100 -101h-76z" />
    <glyph glyph-name="Gbreve" unicode="&#x11e;" horiz-adv-x="648" 
d="M544 11q-26 -6 -54.5 -10t-56.5 -7t-53 -4.5t-44 -1.5q-146 0 -212 65t-66 187q0 48 7.5 97.5t24 96t42.5 89t63 75.5q55 50 117 68t131 18q40 0 84 -6t72 -15q27 -9 31.5 -14.5t1.5 -18.5l-11 -46q-47 18 -91 25.5t-86 7.5q-55 0 -101.5 -13t-83.5 -50
q-57 -57 -86.5 -138t-29.5 -172q0 -98 49.5 -144t158.5 -46q26 0 59.5 3t68.5 11l39 227h-187l5 33q4 26 34 26h233l-59 -343v0zM381 880q-8 -49 10.5 -71.5t67.5 -22.5t73.5 21.5t32.5 72.5h58q-12 -80 -51.5 -114.5t-117.5 -34.5q-133 0 -133 106q0 10 1 20.5t3 22.5h56z
" />
    <glyph glyph-name="Gdotaccent" unicode="&#x120;" horiz-adv-x="648" 
d="M544 11q-26 -6 -54.5 -10t-56.5 -7t-53 -4.5t-44 -1.5q-146 0 -212 65t-66 187q0 48 7.5 97.5t24 96t42.5 89t63 75.5q55 50 117 68t131 18q40 0 84 -6t72 -15q27 -9 31.5 -14.5t1.5 -18.5l-11 -46q-47 18 -91 25.5t-86 7.5q-55 0 -101.5 -13t-83.5 -50
q-57 -57 -86.5 -138t-29.5 -172q0 -98 49.5 -144t158.5 -46q26 0 59.5 3t68.5 11l39 227h-187l5 33q4 26 34 26h233l-59 -343v0zM410 799q0 60 58 60q43 0 43 -38q0 -29 -14.5 -44.5t-43.5 -15.5q-43 0 -43 38z" />
    <glyph glyph-name="Gcommaaccent" unicode="&#x122;" horiz-adv-x="648" 
d="M544 11q-26 -6 -54.5 -10t-56.5 -7t-53 -4.5t-44 -1.5q-146 0 -212 65t-66 187q0 48 7.5 97.5t24 96t42.5 89t63 75.5q55 50 117 68t131 18q40 0 84 -6t72 -15q27 -9 31.5 -14.5t1.5 -18.5l-11 -46q-47 18 -91 25.5t-86 7.5q-55 0 -101.5 -13t-83.5 -50
q-57 -57 -86.5 -138t-29.5 -172q0 -98 49.5 -144t158.5 -46q26 0 59.5 3t68.5 11l39 227h-187l5 33q4 26 34 26h233l-59 -343v0zM286 -98q9 21 17 25.5t28 4.5h41l-97 -188h-59z" />
    <glyph glyph-name="Hcircumflex" unicode="&#x124;" horiz-adv-x="703" 
d="M606 640q3 17 10 24.5t26 7.5h53l-118 -672h-83l55 311h-372l-54 -311h-83l112 640q3 17 10 24.5t27 7.5h52l-52 -296h372l45 264v0zM401 860q13 13 20 16.5t27 3.5h49l97 -140h-67l-70 101h-4l-100 -101h-76z" />
    <glyph glyph-name="Hbar" unicode="&#x126;" horiz-adv-x="699" 
d="M605 640q3 17 10 24.5t26 7.5h53l-17 -95h68l-10 -56h-68l-91 -521h-83l55 311h-372l-54 -311h-83l91 521h-69l11 56h68l11 63q3 17 10 24.5t27 7.5h52l-17 -95h371zM560 376l24 145h-371l-25 -145h372z" />
    <glyph glyph-name="Igrave" unicode="&#xcc;" horiz-adv-x="250" 
d="M152 640q3 17 10 24.5t26 7.5h53l-118 -672h-83zM262 740h-68l-109 140h50q20 0 27.5 -3t17.5 -17z" />
    <glyph glyph-name="Iacute" unicode="&#xcd;" horiz-adv-x="250" 
d="M152 640q3 17 10 24.5t26 7.5h53l-118 -672h-83zM279 860q13 13 20.5 16.5t27.5 3.5h64l-155 -140h-77z" />
    <glyph glyph-name="Icircumflex" unicode="&#xce;" horiz-adv-x="250" 
d="M152 640q3 17 10 24.5t26 7.5h53l-118 -672h-83zM173 860q13 13 20 16.5t27 3.5h49l97 -140h-67l-70 101h-4l-100 -101h-76z" />
    <glyph glyph-name="Itilde" unicode="&#x128;" horiz-adv-x="250" 
d="M152 640q3 17 10 24.5t26 7.5h53l-118 -672h-83zM58 765q8 52 31 75t67 23q20 0 36 -8t29.5 -17.5t26.5 -17.5t27 -8q19 0 30.5 11t15.5 37l2 10h58l-2 -14q-7 -53 -30 -76t-67 -23q-20 0 -36 8t-29.5 17.5t-26.5 17.5t-27 8q-20 0 -31 -11t-16 -37l-1 -9h-59z" />
    <glyph glyph-name="Idieresis" unicode="&#xcf;" horiz-adv-x="250" 
d="M152 640q3 17 10 24.5t26 7.5h53l-118 -672h-83zM74 799q0 60 59 60q42 0 42 -38q0 -29 -14.5 -44.5t-43.5 -15.5q-43 0 -43 38zM268 799q0 60 58 60q43 0 43 -38q0 -29 -15 -44.5t-44 -15.5q-42 0 -42 38z" />
    <glyph glyph-name="Imacron" unicode="&#x12a;" horiz-adv-x="250" 
d="M152 640q3 17 10 24.5t26 7.5h53l-118 -672h-83zM374 839l-10 -57h-295l5 28q2 14 10.5 21.5t27.5 7.5h262z" />
    <glyph glyph-name="Ibreve" unicode="&#x12c;" horiz-adv-x="250" 
d="M152 640q3 17 10 24.5t26 7.5h53l-118 -672h-83zM139 880q-8 -49 10.5 -71.5t67.5 -22.5t73.5 21.5t32.5 72.5h58q-12 -80 -51.5 -114.5t-117.5 -34.5q-133 0 -133 106q0 10 1 20.5t3 22.5h56z" />
    <glyph glyph-name="Idotaccent" unicode="&#x130;" horiz-adv-x="250" 
d="M152 640q3 17 10 24.5t26 7.5h53l-118 -672h-83zM171 799q0 60 58 60q43 0 43 -38q0 -29 -14.5 -44.5t-43.5 -15.5q-43 0 -43 38z" />
    <glyph glyph-name="Iogonek" unicode="&#x12e;" horiz-adv-x="250" 
d="M124 0q-63 -47 -91 -80t-28 -60q0 -41 53 -41q18 0 36 3l-9 -49q-19 -4 -48 -4q-51 0 -73.5 18.5t-22.5 56.5q0 73 114 156h-14l112 640q3 17 10 24.5t26 7.5h53l-118 -672v0z" />
    <glyph glyph-name="IJ" unicode="&#x132;" horiz-adv-x="683" 
d="M152 640q3 17 10 24.5t26 7.5h53l-118 -672h-83zM585 640q3 17 10 24.5t27 7.5h52l-90 -510q-16 -91 -66.5 -132.5t-144.5 -41.5q-42 0 -77 4.5t-58 12.5l12 67q29 -9 58.5 -13t58.5 -4q63 0 94 27.5t42 91.5l82 466v0z" />
    <glyph glyph-name="Jcircumflex" unicode="&#x134;" horiz-adv-x="439" 
d="M335 640q3 17 10 24.5t27 7.5h52l-90 -510q-16 -91 -66.5 -132.5t-144.5 -41.5q-42 0 -77 4.5t-58 12.5l12 67q29 -9 58.5 -13t58.5 -4q63 0 94 27.5t42 91.5l82 466v0zM354 860q13 13 20 16.5t27 3.5h49l97 -140h-67l-70 101h-4l-100 -101h-76z" />
    <glyph glyph-name="Kcommaaccent" unicode="&#x136;" horiz-adv-x="601" 
d="M185 369h50l297 280q14 13 23 18t29 5h69l-358 -336l245 -336h-93l-220 305h-53l-53 -305h-80l118 672h80zM211 -98q9 21 17 25.5t28 4.5h41l-97 -188h-59z" />
    <glyph glyph-name="Lacute" unicode="&#x139;" horiz-adv-x="508" 
d="M148 66h316l-11 -66h-400l112 640q3 17 10 24.5t26 7.5h53zM292 860q13 13 20.5 16.5t27.5 3.5h64l-155 -140h-77z" />
    <glyph glyph-name="Lcaron" unicode="&#x13d;" horiz-adv-x="495" 
d="M339 642q9 21 16.5 25.5t27.5 4.5h43l-97 -188h-59zM135 66h316l-11 -66h-400l112 640q3 17 10 24.5t26 7.5h53z" />
    <glyph glyph-name="Lcommaaccent" unicode="&#x13b;" horiz-adv-x="495" 
d="M135 66h316l-11 -66h-400l112 640q3 17 10 24.5t26 7.5h53zM202 -98q9 21 17 25.5t28 4.5h41l-97 -188h-59z" />
    <glyph glyph-name="Lslash" unicode="&#x141;" horiz-adv-x="510" 
d="M55 0l51 291l-83 -39l10 65l84 38l50 285q3 17 10 24.5t26 7.5h53l-51 -290l175 78l-11 -65l-175 -77l-44 -252h316l-11 -66h-400z" />
    <glyph glyph-name="Ldot" unicode="&#x13f;" horiz-adv-x="505" 
d="M135 66h316l-11 -66h-400l112 640q3 17 10 24.5t26 7.5h53zM337 344q0 60 58 60q43 0 43 -38q0 -29 -14.5 -44.5t-43.5 -15.5q-43 0 -43 38z" />
    <glyph glyph-name="Nacute" unicode="&#x143;" horiz-adv-x="699" 
d="M608 640q3 17 10 24.5t26 7.5h47l-118 -672h-83l-273 555l-99 -555h-77l118 672h82l275 -558l92 526v0zM503 860q13 13 20.5 16.5t27.5 3.5h64l-155 -140h-77z" />
    <glyph glyph-name="Ncaron" unicode="&#x147;" horiz-adv-x="699" 
d="M608 640q3 17 10 24.5t26 7.5h47l-118 -672h-83l-273 555l-99 -555h-77l118 672h82l275 -558l92 526v0zM505 760q-7 -7 -11.5 -11t-9 -6t-10.5 -2.5t-16 -0.5h-53l-96 140h67l70 -99h4l101 99h76z" />
    <glyph glyph-name="Ntilde" unicode="&#xd1;" horiz-adv-x="699" 
d="M608 640q3 17 10 24.5t26 7.5h47l-118 -672h-83l-273 555l-99 -555h-77l118 672h82l275 -558l92 526v0zM287 765q8 52 31 75t67 23q20 0 36 -8t29.5 -17.5t26.5 -17.5t27 -8q19 0 30.5 11t15.5 37l2 10h58l-2 -14q-7 -53 -30 -76t-67 -23q-20 0 -36 8t-29.5 17.5
t-26.5 17.5t-27 8q-20 0 -31 -11t-16 -37l-1 -9h-59z" />
    <glyph glyph-name="Ncommaaccent" unicode="&#x145;" horiz-adv-x="699" 
d="M608 640q3 17 10 24.5t26 7.5h47l-118 -672h-83l-273 555l-99 -555h-77l118 672h82l275 -558l92 526v0zM266 -98q9 21 17 25.5t28 4.5h41l-97 -188h-59z" />
    <glyph glyph-name="Eng" unicode="&#x14a;" horiz-adv-x="699" 
d="M348 -153q63 0 95 26.5t43 90.5l5 33l-274 558l-99 -555h-77l118 672h82l275 -558l92 526q3 17 10 24.5t26 7.5h47l-126 -718q-16 -91 -66.5 -132.5t-144.5 -41.5q-38 0 -70.5 4t-64.5 13l11 67q29 -9 59 -13t59 -4z" />
    <glyph glyph-name="Ograve" unicode="&#xd2;" horiz-adv-x="709" 
d="M419 684q126 0 196 -61t70 -191q0 -54 -8.5 -105.5t-25 -98t-40.5 -86t-55 -69.5q-42 -41 -101 -63t-131 -22q-126 0 -196 60.5t-70 191.5q0 54 8.5 105.5t25 98t40.5 86t55 69.5q42 41 101 63t131 22zM413 615q-49 0 -92 -16.5t-76 -49.5q-23 -23 -42 -56.5t-32.5 -73
t-20.5 -84.5t-7 -91q0 -36 8 -69.5t29 -59.5t57.5 -42t92.5 -16q49 0 92 16.5t76 49.5q23 23 42 56.5t32.5 73t20.5 84.5t7 91q0 36 -8 69.5t-29 59.5t-57.5 42t-92.5 16zM494 740h-68l-109 140h50q20 0 27.5 -3t17.5 -17z" />
    <glyph glyph-name="Oacute" unicode="&#xd3;" horiz-adv-x="709" 
d="M419 684q126 0 196 -61t70 -191q0 -54 -8.5 -105.5t-25 -98t-40.5 -86t-55 -69.5q-42 -41 -101 -63t-131 -22q-126 0 -196 60.5t-70 191.5q0 54 8.5 105.5t25 98t40.5 86t55 69.5q42 41 101 63t131 22zM413 615q-49 0 -92 -16.5t-76 -49.5q-23 -23 -42 -56.5t-32.5 -73
t-20.5 -84.5t-7 -91q0 -36 8 -69.5t29 -59.5t57.5 -42t92.5 -16q49 0 92 16.5t76 49.5q23 23 42 56.5t32.5 73t20.5 84.5t7 91q0 36 -8 69.5t-29 59.5t-57.5 42t-92.5 16zM507 860q13 13 20.5 16.5t27.5 3.5h64l-155 -140h-77z" />
    <glyph glyph-name="Ocircumflex" unicode="&#xd4;" horiz-adv-x="709" 
d="M419 684q126 0 196 -61t70 -191q0 -54 -8.5 -105.5t-25 -98t-40.5 -86t-55 -69.5q-42 -41 -101 -63t-131 -22q-126 0 -196 60.5t-70 191.5q0 54 8.5 105.5t25 98t40.5 86t55 69.5q42 41 101 63t131 22zM413 615q-49 0 -92 -16.5t-76 -49.5q-23 -23 -42 -56.5t-32.5 -73
t-20.5 -84.5t-7 -91q0 -36 8 -69.5t29 -59.5t57.5 -42t92.5 -16q49 0 92 16.5t76 49.5q23 23 42 56.5t32.5 73t20.5 84.5t7 91q0 36 -8 69.5t-29 59.5t-57.5 42t-92.5 16zM405 860q13 13 20 16.5t27 3.5h49l97 -140h-67l-70 101h-4l-100 -101h-76z" />
    <glyph glyph-name="Otilde" unicode="&#xd5;" horiz-adv-x="709" 
d="M419 684q126 0 196 -61t70 -191q0 -54 -8.5 -105.5t-25 -98t-40.5 -86t-55 -69.5q-42 -41 -101 -63t-131 -22q-126 0 -196 60.5t-70 191.5q0 54 8.5 105.5t25 98t40.5 86t55 69.5q42 41 101 63t131 22zM413 615q-49 0 -92 -16.5t-76 -49.5q-23 -23 -42 -56.5t-32.5 -73
t-20.5 -84.5t-7 -91q0 -36 8 -69.5t29 -59.5t57.5 -42t92.5 -16q49 0 92 16.5t76 49.5q23 23 42 56.5t32.5 73t20.5 84.5t7 91q0 36 -8 69.5t-29 59.5t-57.5 42t-92.5 16zM291 765q8 52 31 75t67 23q20 0 36 -8t29.5 -17.5t26.5 -17.5t27 -8q19 0 30.5 11t15.5 37l2 10h58
l-2 -14q-7 -53 -30 -76t-67 -23q-20 0 -36 8t-29.5 17.5t-26.5 17.5t-27 8q-20 0 -31 -11t-16 -37l-1 -9h-59z" />
    <glyph glyph-name="Odieresis" unicode="&#xd6;" horiz-adv-x="709" 
d="M419 684q126 0 196 -61t70 -191q0 -54 -8.5 -105.5t-25 -98t-40.5 -86t-55 -69.5q-42 -41 -101 -63t-131 -22q-126 0 -196 60.5t-70 191.5q0 54 8.5 105.5t25 98t40.5 86t55 69.5q42 41 101 63t131 22zM413 615q-49 0 -92 -16.5t-76 -49.5q-23 -23 -42 -56.5t-32.5 -73
t-20.5 -84.5t-7 -91q0 -36 8 -69.5t29 -59.5t57.5 -42t92.5 -16q49 0 92 16.5t76 49.5q23 23 42 56.5t32.5 73t20.5 84.5t7 91q0 36 -8 69.5t-29 59.5t-57.5 42t-92.5 16zM301 799q0 60 59 60q42 0 42 -38q0 -29 -14.5 -44.5t-43.5 -15.5q-43 0 -43 38zM495 799q0 60 58 60
q43 0 43 -38q0 -29 -15 -44.5t-44 -15.5q-42 0 -42 38z" />
    <glyph glyph-name="Omacron" unicode="&#x14c;" horiz-adv-x="709" 
d="M419 684q126 0 196 -61t70 -191q0 -54 -8.5 -105.5t-25 -98t-40.5 -86t-55 -69.5q-42 -41 -101 -63t-131 -22q-126 0 -196 60.5t-70 191.5q0 54 8.5 105.5t25 98t40.5 86t55 69.5q42 41 101 63t131 22zM413 615q-49 0 -92 -16.5t-76 -49.5q-23 -23 -42 -56.5t-32.5 -73
t-20.5 -84.5t-7 -91q0 -36 8 -69.5t29 -59.5t57.5 -42t92.5 -16q49 0 92 16.5t76 49.5q23 23 42 56.5t32.5 73t20.5 84.5t7 91q0 36 -8 69.5t-29 59.5t-57.5 42t-92.5 16zM604 839l-10 -57h-295l5 28q2 14 10.5 21.5t27.5 7.5h262z" />
    <glyph glyph-name="Obreve" unicode="&#x14e;" horiz-adv-x="709" 
d="M419 684q126 0 196 -61t70 -191q0 -54 -8.5 -105.5t-25 -98t-40.5 -86t-55 -69.5q-42 -41 -101 -63t-131 -22q-126 0 -196 60.5t-70 191.5q0 54 8.5 105.5t25 98t40.5 86t55 69.5q42 41 101 63t131 22zM413 615q-49 0 -92 -16.5t-76 -49.5q-23 -23 -42 -56.5t-32.5 -73
t-20.5 -84.5t-7 -91q0 -36 8 -69.5t29 -59.5t57.5 -42t92.5 -16q49 0 92 16.5t76 49.5q23 23 42 56.5t32.5 73t20.5 84.5t7 91q0 36 -8 69.5t-29 59.5t-57.5 42t-92.5 16zM371 880q-8 -49 10.5 -71.5t67.5 -22.5t73.5 21.5t32.5 72.5h58q-12 -80 -51.5 -114.5t-117.5 -34.5
q-133 0 -133 106q0 10 1 20.5t3 22.5h56z" />
    <glyph glyph-name="Ohungarumlaut" unicode="&#x150;" horiz-adv-x="709" 
d="M419 684q126 0 196 -61t70 -191q0 -54 -8.5 -105.5t-25 -98t-40.5 -86t-55 -69.5q-42 -41 -101 -63t-131 -22q-126 0 -196 60.5t-70 191.5q0 54 8.5 105.5t25 98t40.5 86t55 69.5q42 41 101 63t131 22zM413 615q-49 0 -92 -16.5t-76 -49.5q-23 -23 -42 -56.5t-32.5 -73
t-20.5 -84.5t-7 -91q0 -36 8 -69.5t29 -59.5t57.5 -42t92.5 -16q49 0 92 16.5t76 49.5q23 23 42 56.5t32.5 73t20.5 84.5t7 91q0 36 -8 69.5t-29 59.5t-57.5 42t-92.5 16zM413 860q14 13 21 16.5t27 3.5h64l-156 -140h-78zM604 860q13 13 20.5 16.5t27.5 3.5h64l-155 -140
h-78z" />
    <glyph glyph-name="Oslash" unicode="&#xd8;" horiz-adv-x="709" 
d="M422 684q108 0 173 -43l32 36q16 18 24 22.5t27 4.5h49l-90 -101q51 -62 51 -171q0 -54 -8.5 -105.5t-25 -98t-40.5 -86t-55 -69.5q-42 -41 -101 -63t-131 -22q-118 0 -187 53l-65 -73h-71l99 113q-20 29 -31 68.5t-11 90.5q0 54 8.5 105.5t25 98t40.5 86t55 69.5
q42 41 101 63t131 22zM603 428q0 32 -5.5 59t-18.5 50l-385 -434q22 -21 55.5 -33.5t83.5 -12.5q49 0 92 16.5t76 49.5q23 23 42 56.5t32.5 73t20.5 84.5t7 91zM416 615q-49 0 -92 -16.5t-76 -49.5q-23 -23 -42 -56.5t-32.5 -73t-20.5 -84.5t-7 -91q0 -26 4 -50t13 -45
l379 431q-21 16 -52 25.5t-74 9.5z" />
    <glyph glyph-name="Oslashacute" unicode="&#x1fe;" horiz-adv-x="709" 
d="M507 860q13 13 20.5 16.5t27.5 3.5h64l-155 -140h-77zM422 684q108 0 173 -43l32 36q16 18 24 22.5t27 4.5h49l-90 -101q51 -62 51 -171q0 -54 -8.5 -105.5t-25 -98t-40.5 -86t-55 -69.5q-42 -41 -101 -63t-131 -22q-118 0 -187 53l-65 -73h-71l99 113q-20 29 -31 68.5
t-11 90.5q0 54 8.5 105.5t25 98t40.5 86t55 69.5q42 41 101 63t131 22zM603 428q0 32 -5.5 59t-18.5 50l-385 -434q22 -21 55.5 -33.5t83.5 -12.5q49 0 92 16.5t76 49.5q23 23 42 56.5t32.5 73t20.5 84.5t7 91zM416 615q-49 0 -92 -16.5t-76 -49.5q-23 -23 -42 -56.5
t-32.5 -73t-20.5 -84.5t-7 -91q0 -26 4 -50t13 -45l379 431q-21 16 -52 25.5t-74 9.5z" />
    <glyph glyph-name="OE" unicode="&#x152;" horiz-adv-x="990" 
d="M999 608h-346l-42 -235h277l-11 -62h-277l-43 -247h356l-10 -64h-533q-163 0 -236.5 64.5t-73.5 190.5q0 199 97.5 308t288.5 109h564zM569 606h-126q-151 0 -226 -90t-75 -256q0 -96 55.5 -145t181.5 -49h95z" />
    <glyph glyph-name="Thorn" unicode="&#xde;" horiz-adv-x="608" 
d="M152 640q3 17 10 24.5t26 7.5h53l-22 -123h167q57 0 95.5 -9.5t62 -29t33 -48t9.5 -65.5q0 -60 -19 -111t-57 -88q-14 -13 -31 -24.5t-40.5 -19.5t-53.5 -13t-70 -5h-168l-24 -136h-83zM208 483l-50 -282h158q49 0 84 12t58 39q20 23 31.5 58.5t11.5 73.5q0 31 -7.5 50
t-23.5 30t-42.5 15t-63.5 4h-156z" />
    <glyph glyph-name="Racute" unicode="&#x154;" horiz-adv-x="626" 
d="M179 329h157q48 0 83 11t58 37q22 25 33 62t11 74q0 31 -8.5 50t-25 29t-41 13t-57.5 3h-161zM315 265h-147l-47 -265h-80l112 640q3 17 10 24.5t26 7.5h222q107 0 150.5 -36.5t43.5 -111.5q0 -51 -12.5 -95t-38.5 -77t-65.5 -54t-94.5 -26l143 -272h-85zM457 860
q13 13 20.5 16.5t27.5 3.5h64l-155 -140h-77z" />
    <glyph glyph-name="Rcaron" unicode="&#x158;" horiz-adv-x="626" 
d="M179 329h157q48 0 83 11t58 37q22 25 33 62t11 74q0 31 -8.5 50t-25 29t-41 13t-57.5 3h-161zM315 265h-147l-47 -265h-80l112 640q3 17 10 24.5t26 7.5h222q107 0 150.5 -36.5t43.5 -111.5q0 -51 -12.5 -95t-38.5 -77t-65.5 -54t-94.5 -26l143 -272h-85zM465 760
q-7 -7 -11.5 -11t-9 -6t-10.5 -2.5t-16 -0.5h-53l-96 140h67l70 -99h4l101 99h76z" />
    <glyph glyph-name="Rcommaaccent" unicode="&#x156;" horiz-adv-x="626" 
d="M179 329h157q48 0 83 11t58 37q22 25 33 62t11 74q0 31 -8.5 50t-25 29t-41 13t-57.5 3h-161zM315 265h-147l-47 -265h-80l112 640q3 17 10 24.5t26 7.5h222q107 0 150.5 -36.5t43.5 -111.5q0 -51 -12.5 -95t-38.5 -77t-65.5 -54t-94.5 -26l143 -272h-85zM232 -98
q9 21 17 25.5t28 4.5h41l-97 -188h-59z" />
    <glyph glyph-name="Sacute" unicode="&#x15a;" horiz-adv-x="572" 
d="M358 684q50 0 95 -6.5t72 -14.5q13 -3 20 -6t10 -6t3 -7t-1 -10l-10 -51q-46 17 -92.5 26t-97.5 9q-83 0 -129 -28.5t-46 -90.5q0 -31 14 -51.5t37 -34.5t52.5 -23.5t60 -19.5t60 -23t53 -32.5t37.5 -49t14 -72.5q0 -102 -68.5 -153.5t-192.5 -51.5q-63 0 -121 10
t-106 31l12 65q53 -20 104.5 -30t109.5 -10q85 0 131.5 30.5t46.5 95.5q0 44 -24.5 68.5t-61 39.5t-79 27t-79 31t-61 51t-24.5 87q0 97 69.5 148.5t191.5 51.5zM440 860q13 13 20.5 16.5t27.5 3.5h64l-155 -140h-77z" />
    <glyph glyph-name="Scircumflex" unicode="&#x15c;" horiz-adv-x="572" 
d="M358 684q50 0 95 -6.5t72 -14.5q13 -3 20 -6t10 -6t3 -7t-1 -10l-10 -51q-46 17 -92.5 26t-97.5 9q-83 0 -129 -28.5t-46 -90.5q0 -31 14 -51.5t37 -34.5t52.5 -23.5t60 -19.5t60 -23t53 -32.5t37.5 -49t14 -72.5q0 -102 -68.5 -153.5t-192.5 -51.5q-63 0 -121 10
t-106 31l12 65q53 -20 104.5 -30t109.5 -10q85 0 131.5 30.5t46.5 95.5q0 44 -24.5 68.5t-61 39.5t-79 27t-79 31t-61 51t-24.5 87q0 97 69.5 148.5t191.5 51.5zM334 860q13 13 20 16.5t27 3.5h49l97 -140h-67l-70 101h-4l-100 -101h-76z" />
    <glyph glyph-name="Scaron" unicode="&#x160;" horiz-adv-x="572" 
d="M358 684q50 0 95 -6.5t72 -14.5q13 -3 20 -6t10 -6t3 -7t-1 -10l-10 -51q-46 17 -92.5 26t-97.5 9q-83 0 -129 -28.5t-46 -90.5q0 -31 14 -51.5t37 -34.5t52.5 -23.5t60 -19.5t60 -23t53 -32.5t37.5 -49t14 -72.5q0 -102 -68.5 -153.5t-192.5 -51.5q-63 0 -121 10
t-106 31l12 65q53 -20 104.5 -30t109.5 -10q85 0 131.5 30.5t46.5 95.5q0 44 -24.5 68.5t-61 39.5t-79 27t-79 31t-61 51t-24.5 87q0 97 69.5 148.5t191.5 51.5zM434 760q-7 -7 -11.5 -11t-9 -6t-10.5 -2.5t-16 -0.5h-53l-96 140h67l70 -99h4l101 99h76z" />
    <glyph glyph-name="Scedilla" unicode="&#x15e;" horiz-adv-x="572" 
d="M358 684q50 0 95 -6.5t72 -14.5q13 -3 20 -6t10 -6t3 -7t-1 -10l-10 -51q-46 17 -92.5 26t-97.5 9q-83 0 -129 -28.5t-46 -90.5q0 -31 14 -51.5t37 -34.5t52.5 -23.5t60 -19.5t60 -23t53 -32.5t37.5 -49t14 -72.5q0 -97 -63 -148t-177 -56l-9 -49q67 -6 67 -67
q0 -49 -34 -76.5t-94 -27.5q-23 0 -45.5 3t-45.5 10l8 46q19 -6 38 -9.5t39 -3.5q34 0 52.5 14t18.5 39q0 36 -59 36h-7l15 85q-54 2 -102 12t-90 28l12 65q53 -20 104.5 -30t109.5 -10q85 0 131.5 30.5t46.5 95.5q0 44 -24.5 68.5t-61 39.5t-79 27t-79 31t-61 51t-24.5 87
q0 97 69.5 148.5t191.5 51.5z" />
    <glyph glyph-name="Scommaaccent" unicode="&#x218;" horiz-adv-x="572" 
d="M358 684q50 0 95 -6.5t72 -14.5q13 -3 20 -6t10 -6t3 -7t-1 -10l-10 -51q-46 17 -92.5 26t-97.5 9q-83 0 -129 -28.5t-46 -90.5q0 -31 14 -51.5t37 -34.5t52.5 -23.5t60 -19.5t60 -23t53 -32.5t37.5 -49t14 -72.5q0 -102 -68.5 -153.5t-192.5 -51.5q-63 0 -121 10
t-106 31l12 65q53 -20 104.5 -30t109.5 -10q85 0 131.5 30.5t46.5 95.5q0 44 -24.5 68.5t-61 39.5t-79 27t-79 31t-61 51t-24.5 87q0 97 69.5 148.5t191.5 51.5zM201 -98q9 21 17 25.5t28 4.5h41l-97 -188h-59z" />
    <glyph glyph-name="Tcaron" unicode="&#x164;" horiz-adv-x="575" 
d="M598 672q20 0 24 -7.5t2 -24.5l-6 -34h-226l-107 -606h-82l106 606h-223l10 66h502v0zM436 760q-7 -7 -11.5 -11t-9 -6t-10.5 -2.5t-16 -0.5h-53l-96 140h67l70 -99h4l101 99h76z" />
    <glyph glyph-name="Tcommaaccent" unicode="&#x162;" horiz-adv-x="575" 
d="M598 672q20 0 24 -7.5t2 -24.5l-6 -34h-226l-107 -606h-82l106 606h-223l10 66h502v0zM202 -98q9 21 17 25.5t28 4.5h41l-97 -188h-59z" />
    <glyph glyph-name="uni021A" unicode="&#x21a;" horiz-adv-x="575" 
d="M598 672q20 0 24 -7.5t2 -24.5l-6 -34h-226l-107 -606h-82l106 606h-223l10 66h502v0zM203 -98q9 21 17 25.5t28 4.5h41l-97 -188h-59z" />
    <glyph glyph-name="Tbar" unicode="&#x166;" horiz-adv-x="575" 
d="M598 672q20 0 24 -7.5t2 -24.5l-6 -34h-226l-46 -260h147l-11 -59h-147l-50 -287h-82l50 287h-148l10 59h148l46 260h-223l10 66h502v0z" />
    <glyph glyph-name="Ugrave" unicode="&#xd9;" horiz-adv-x="701" 
d="M604 640q3 17 9.5 24.5t26.5 7.5h53l-77 -439q-11 -65 -34 -111.5t-59.5 -76t-88.5 -43.5t-121 -14q-109 0 -171.5 50.5t-62.5 138.5q0 21 2 43t6 45l72 407h83l-72 -407q-6 -38 -6 -75q0 -62 41.5 -98.5t113.5 -36.5q99 0 148.5 43.5t66.5 140.5l70 401v0zM488 740h-68
l-109 140h50q20 0 27.5 -3t17.5 -17z" />
    <glyph glyph-name="Uacute" unicode="&#xda;" horiz-adv-x="701" 
d="M604 640q3 17 9.5 24.5t26.5 7.5h53l-77 -439q-11 -65 -34 -111.5t-59.5 -76t-88.5 -43.5t-121 -14q-109 0 -171.5 50.5t-62.5 138.5q0 21 2 43t6 45l72 407h83l-72 -407q-6 -38 -6 -75q0 -62 41.5 -98.5t113.5 -36.5q99 0 148.5 43.5t66.5 140.5l70 401v0zM507 860
q13 13 20.5 16.5t27.5 3.5h64l-155 -140h-77z" />
    <glyph glyph-name="Ucircumflex" unicode="&#xdb;" horiz-adv-x="701" 
d="M604 640q3 17 9.5 24.5t26.5 7.5h53l-77 -439q-11 -65 -34 -111.5t-59.5 -76t-88.5 -43.5t-121 -14q-109 0 -171.5 50.5t-62.5 138.5q0 21 2 43t6 45l72 407h83l-72 -407q-6 -38 -6 -75q0 -62 41.5 -98.5t113.5 -36.5q99 0 148.5 43.5t66.5 140.5l70 401v0zM398 861
q13 13 20 16.5t27 3.5h49l97 -140h-67l-70 101h-4l-100 -101h-76z" />
    <glyph glyph-name="Utilde" unicode="&#x168;" horiz-adv-x="701" 
d="M604 640q3 17 9.5 24.5t26.5 7.5h53l-77 -439q-11 -65 -34 -111.5t-59.5 -76t-88.5 -43.5t-121 -14q-109 0 -171.5 50.5t-62.5 138.5q0 21 2 43t6 45l72 407h83l-72 -407q-6 -38 -6 -75q0 -62 41.5 -98.5t113.5 -36.5q99 0 148.5 43.5t66.5 140.5l70 401v0zM286 765
q8 52 31 75t67 23q20 0 36 -8t29.5 -17.5t26.5 -17.5t27 -8q19 0 30.5 11t15.5 37l2 10h58l-2 -14q-7 -53 -30 -76t-67 -23q-20 0 -36 8t-29.5 17.5t-26.5 17.5t-27 8q-20 0 -31 -11t-16 -37l-1 -9h-59z" />
    <glyph glyph-name="Udieresis" unicode="&#xdc;" horiz-adv-x="701" 
d="M604 640q3 17 9.5 24.5t26.5 7.5h53l-77 -439q-11 -65 -34 -111.5t-59.5 -76t-88.5 -43.5t-121 -14q-109 0 -171.5 50.5t-62.5 138.5q0 21 2 43t6 45l72 407h83l-72 -407q-6 -38 -6 -75q0 -62 41.5 -98.5t113.5 -36.5q99 0 148.5 43.5t66.5 140.5l70 401v0zM300 799
q0 60 59 60q42 0 42 -38q0 -29 -14.5 -44.5t-43.5 -15.5q-43 0 -43 38zM494 799q0 60 58 60q43 0 43 -38q0 -29 -15 -44.5t-44 -15.5q-42 0 -42 38z" />
    <glyph glyph-name="Umacron" unicode="&#x16a;" horiz-adv-x="701" 
d="M604 640q3 17 9.5 24.5t26.5 7.5h53l-77 -439q-11 -65 -34 -111.5t-59.5 -76t-88.5 -43.5t-121 -14q-109 0 -171.5 50.5t-62.5 138.5q0 21 2 43t6 45l72 407h83l-72 -407q-6 -38 -6 -75q0 -62 41.5 -98.5t113.5 -36.5q99 0 148.5 43.5t66.5 140.5l70 401v0zM600 839
l-10 -57h-295l5 28q2 14 10.5 21.5t27.5 7.5h262z" />
    <glyph glyph-name="Ubreve" unicode="&#x16c;" horiz-adv-x="701" 
d="M604 640q3 17 9.5 24.5t26.5 7.5h53l-77 -439q-11 -65 -34 -111.5t-59.5 -76t-88.5 -43.5t-121 -14q-109 0 -171.5 50.5t-62.5 138.5q0 21 2 43t6 45l72 407h83l-72 -407q-6 -38 -6 -75q0 -62 41.5 -98.5t113.5 -36.5q99 0 148.5 43.5t66.5 140.5l70 401v0zM368 880
q-8 -49 10.5 -71.5t67.5 -22.5t73.5 21.5t32.5 72.5h58q-12 -80 -51.5 -114.5t-117.5 -34.5q-133 0 -133 106q0 10 1 20.5t3 22.5h56z" />
    <glyph glyph-name="Uring" unicode="&#x16e;" horiz-adv-x="701" 
d="M604 640q3 17 9.5 24.5t26.5 7.5h53l-77 -439q-11 -65 -34 -111.5t-59.5 -76t-88.5 -43.5t-121 -14q-109 0 -171.5 50.5t-62.5 138.5q0 21 2 43t6 45l72 407h83l-72 -407q-6 -38 -6 -75q0 -62 41.5 -98.5t113.5 -36.5q99 0 148.5 43.5t66.5 140.5l70 401v0zM345 790
q0 54 31 84t85 30q89 0 89 -74q0 -53 -31 -83.5t-85 -30.5q-89 0 -89 74zM390 795q0 -41 48 -41q29 0 48 19t19 52q0 42 -48 42q-30 0 -48.5 -19.5t-18.5 -52.5z" />
    <glyph glyph-name="Uhungarumlaut" unicode="&#x170;" horiz-adv-x="701" 
d="M604 640q3 17 9.5 24.5t26.5 7.5h53l-77 -439q-11 -65 -34 -111.5t-59.5 -76t-88.5 -43.5t-121 -14q-109 0 -171.5 50.5t-62.5 138.5q0 21 2 43t6 45l72 407h83l-72 -407q-6 -38 -6 -75q0 -62 41.5 -98.5t113.5 -36.5q99 0 148.5 43.5t66.5 140.5l70 401v0zM411 860
q14 13 21 16.5t27 3.5h64l-156 -140h-78zM602 860q13 13 20.5 16.5t27.5 3.5h64l-155 -140h-78z" />
    <glyph glyph-name="Uogonek" unicode="&#x172;" horiz-adv-x="701" 
d="M283 -9q-94 6 -149 56t-55 130q0 21 2 43t6 45l72 407h83l-72 -407q-6 -38 -6 -75q0 -62 41.5 -98.5t113.5 -36.5q99 0 148.5 43.5t66.5 140.5l70 401q3 17 9.5 24.5t26.5 7.5h53l-77 -439q-8 -48 -22 -84.5t-35.5 -65t-51.5 -49.5t-72 -37q-36 -14 -65.5 -30.5
t-50.5 -34.5t-33 -37t-12 -37q0 -39 49 -39q18 0 36 3l-9 -49q-11 -2 -23 -3t-26 -1q-48 0 -70.5 18.5t-22.5 56.5q0 37 32.5 75.5t89.5 70.5h-23t-24 1z" />
    <glyph glyph-name="Wgrave" unicode="&#x1e80;" horiz-adv-x="919" 
d="M569 672l59 -562h4l233 535q8 19 17.5 23t28.5 4h48l-303 -672h-89l-55 530h-3l-238 -530h-88l-72 672h82l53 -562h4l252 562h67zM591 740h-68l-109 140h50q20 0 27.5 -3t17.5 -17z" />
    <glyph glyph-name="Wacute" unicode="&#x1e82;" horiz-adv-x="919" 
d="M569 672l59 -562h4l233 535q8 19 17.5 23t28.5 4h48l-303 -672h-89l-55 530h-3l-238 -530h-88l-72 672h82l53 -562h4l252 562h67zM617 860q13 13 20.5 16.5t27.5 3.5h64l-155 -140h-77z" />
    <glyph glyph-name="Wcircumflex" unicode="&#x174;" horiz-adv-x="919" 
d="M569 672l59 -562h4l233 535q8 19 17.5 23t28.5 4h48l-303 -672h-89l-55 530h-3l-238 -530h-88l-72 672h82l53 -562h4l252 562h67zM503 860q13 13 20 16.5t27 3.5h49l97 -140h-67l-70 101h-4l-100 -101h-76z" />
    <glyph glyph-name="Wdieresis" unicode="&#x1e84;" horiz-adv-x="919" 
d="M569 672l59 -562h4l233 535q8 19 17.5 23t28.5 4h48l-303 -672h-89l-55 530h-3l-238 -530h-88l-72 672h82l53 -562h4l252 562h67zM410 799q0 60 59 60q42 0 42 -38q0 -29 -14.5 -44.5t-43.5 -15.5q-43 0 -43 38zM604 799q0 60 58 60q43 0 43 -38q0 -29 -15 -44.5
t-44 -15.5q-42 0 -42 38z" />
    <glyph glyph-name="Ygrave" unicode="&#x1ef2;" horiz-adv-x="579" 
d="M641 672l-303 -399l-48 -273h-83l49 280l-168 392h89l133 -323l214 289q8 11 14 18t12 10.5t13 4.5t18 1h60zM428 740h-68l-109 140h50q20 0 27.5 -3t17.5 -17z" />
    <glyph glyph-name="Yacute" unicode="&#xdd;" horiz-adv-x="579" 
d="M641 672l-303 -399l-48 -273h-83l49 280l-168 392h89l133 -323l214 289q8 11 14 18t12 10.5t13 4.5t18 1h60zM444 860q13 13 20.5 16.5t27.5 3.5h64l-155 -140h-77z" />
    <glyph glyph-name="Ycircumflex" unicode="&#x176;" horiz-adv-x="579" 
d="M641 672l-303 -399l-48 -273h-83l49 280l-168 392h89l133 -323l214 289q8 11 14 18t12 10.5t13 4.5t18 1h60zM338 860q13 13 20 16.5t27 3.5h49l97 -140h-67l-70 101h-4l-100 -101h-76z" />
    <glyph glyph-name="Ydieresis" unicode="&#x178;" horiz-adv-x="579" 
d="M641 672l-303 -399l-48 -273h-83l49 280l-168 392h89l133 -323l214 289q8 11 14 18t12 10.5t13 4.5t18 1h60zM239 799q0 60 59 60q42 0 42 -38q0 -29 -14.5 -44.5t-43.5 -15.5q-43 0 -43 38zM433 799q0 60 58 60q43 0 43 -38q0 -29 -15 -44.5t-44 -15.5q-42 0 -42 38z
" />
    <glyph glyph-name="Zacute" unicode="&#x179;" horiz-adv-x="604" 
d="M507 606h-391l12 66h497l-11 -65l-493 -541h407l-11 -66h-513l4 30q2 11 4 18.5t5 14t8.5 13t14.5 16.5zM456 860q13 13 20.5 16.5t27.5 3.5h64l-155 -140h-77z" />
    <glyph glyph-name="Zcaron" unicode="&#x17d;" horiz-adv-x="604" 
d="M507 606h-391l12 66h497l-11 -65l-493 -541h407l-11 -66h-513l4 30q2 11 4 18.5t5 14t8.5 13t14.5 16.5zM450 760q-7 -7 -11.5 -11t-9 -6t-10.5 -2.5t-16 -0.5h-53l-96 140h67l70 -99h4l101 99h76z" />
    <glyph glyph-name="Zdotaccent" unicode="&#x17b;" horiz-adv-x="604" 
d="M507 606h-391l12 66h497l-11 -65l-493 -541h407l-11 -66h-513l4 30q2 11 4 18.5t5 14t8.5 13t14.5 16.5zM349 799q0 60 58 60q43 0 43 -38q0 -29 -14.5 -44.5t-43.5 -15.5q-43 0 -43 38z" />
    <glyph glyph-name="agrave" unicode="&#xe0;" horiz-adv-x="562" 
d="M372 41v7.5t2 11.5q-23 -35 -65 -53.5t-96 -18.5q-81 0 -127 48.5t-46 137.5q0 78 21.5 144.5t65.5 111.5q31 32 68.5 50t91.5 18q57 0 90.5 -20.5t52.5 -55.5l11 38q7 26 34 26h38l-70 -402q-4 -21 1.5 -27.5t22.5 -8.5l17 -2l-9 -49q-11 -2 -23 -2.5t-20 -0.5
q-27 0 -43.5 11t-16.5 36zM399 284q14 77 -14 113.5t-90 36.5q-32 0 -57 -11.5t-46 -32.5q-16 -16 -29 -39.5t-22 -51t-14 -58.5t-5 -63q0 -71 29.5 -98.5t80.5 -27.5q41 0 68.5 14t44.5 35.5t25.5 46t12.5 45.5zM398 564h-68l-109 140h50q20 0 27.5 -3t17.5 -17z" />
    <glyph glyph-name="aacute" unicode="&#xe1;" horiz-adv-x="562" 
d="M372 41v7.5t2 11.5q-23 -35 -65 -53.5t-96 -18.5q-81 0 -127 48.5t-46 137.5q0 78 21.5 144.5t65.5 111.5q31 32 68.5 50t91.5 18q57 0 90.5 -20.5t52.5 -55.5l11 38q7 26 34 26h38l-70 -402q-4 -21 1.5 -27.5t22.5 -8.5l17 -2l-9 -49q-11 -2 -23 -2.5t-20 -0.5
q-27 0 -43.5 11t-16.5 36zM399 284q14 77 -14 113.5t-90 36.5q-32 0 -57 -11.5t-46 -32.5q-16 -16 -29 -39.5t-22 -51t-14 -58.5t-5 -63q0 -71 29.5 -98.5t80.5 -27.5q41 0 68.5 14t44.5 35.5t25.5 46t12.5 45.5zM399 684q13 13 20.5 16.5t27.5 3.5h64l-155 -140h-77z" />
    <glyph glyph-name="acircumflex" unicode="&#xe2;" horiz-adv-x="562" 
d="M372 41v7.5t2 11.5q-23 -35 -65 -53.5t-96 -18.5q-81 0 -127 48.5t-46 137.5q0 78 21.5 144.5t65.5 111.5q31 32 68.5 50t91.5 18q57 0 90.5 -20.5t52.5 -55.5l11 38q7 26 34 26h38l-70 -402q-4 -21 1.5 -27.5t22.5 -8.5l17 -2l-9 -49q-11 -2 -23 -2.5t-20 -0.5
q-27 0 -43.5 11t-16.5 36zM399 284q14 77 -14 113.5t-90 36.5q-32 0 -57 -11.5t-46 -32.5q-16 -16 -29 -39.5t-22 -51t-14 -58.5t-5 -63q0 -71 29.5 -98.5t80.5 -27.5q41 0 68.5 14t44.5 35.5t25.5 46t12.5 45.5zM290 684q13 13 20 16.5t27 3.5h49l97 -140h-67l-70 101h-4
l-100 -101h-76z" />
    <glyph glyph-name="atilde" unicode="&#xe3;" horiz-adv-x="562" 
d="M372 41v7.5t2 11.5q-23 -35 -65 -53.5t-96 -18.5q-81 0 -127 48.5t-46 137.5q0 78 21.5 144.5t65.5 111.5q31 32 68.5 50t91.5 18q57 0 90.5 -20.5t52.5 -55.5l11 38q7 26 34 26h38l-70 -402q-4 -21 1.5 -27.5t22.5 -8.5l17 -2l-9 -49q-11 -2 -23 -2.5t-20 -0.5
q-27 0 -43.5 11t-16.5 36zM399 284q14 77 -14 113.5t-90 36.5q-32 0 -57 -11.5t-46 -32.5q-16 -16 -29 -39.5t-22 -51t-14 -58.5t-5 -63q0 -71 29.5 -98.5t80.5 -27.5q41 0 68.5 14t44.5 35.5t25.5 46t12.5 45.5zM174 589q8 52 31 75t67 23q20 0 36 -8t29.5 -17.5
t26.5 -17.5t27 -8q19 0 30.5 11t15.5 37l2 10h58l-2 -14q-7 -53 -30 -76t-67 -23q-20 0 -36 8t-29.5 17.5t-26.5 17.5t-27 8q-20 0 -31 -11t-16 -37l-1 -9h-59z" />
    <glyph glyph-name="adieresis" unicode="&#xe4;" horiz-adv-x="562" 
d="M372 41v7.5t2 11.5q-23 -35 -65 -53.5t-96 -18.5q-81 0 -127 48.5t-46 137.5q0 78 21.5 144.5t65.5 111.5q31 32 68.5 50t91.5 18q57 0 90.5 -20.5t52.5 -55.5l11 38q7 26 34 26h38l-70 -402q-4 -21 1.5 -27.5t22.5 -8.5l17 -2l-9 -49q-11 -2 -23 -2.5t-20 -0.5
q-27 0 -43.5 11t-16.5 36zM399 284q14 77 -14 113.5t-90 36.5q-32 0 -57 -11.5t-46 -32.5q-16 -16 -29 -39.5t-22 -51t-14 -58.5t-5 -63q0 -71 29.5 -98.5t80.5 -27.5q41 0 68.5 14t44.5 35.5t25.5 46t12.5 45.5zM177 623q0 60 59 60q42 0 42 -38q0 -29 -14.5 -44.5
t-43.5 -15.5q-43 0 -43 38zM371 623q0 60 58 60q43 0 43 -38q0 -29 -15 -44.5t-44 -15.5q-42 0 -42 38z" />
    <glyph glyph-name="amacron" unicode="&#x101;" horiz-adv-x="562" 
d="M372 41v7.5t2 11.5q-23 -35 -65 -53.5t-96 -18.5q-81 0 -127 48.5t-46 137.5q0 78 21.5 144.5t65.5 111.5q31 32 68.5 50t91.5 18q57 0 90.5 -20.5t52.5 -55.5l11 38q7 26 34 26h38l-70 -402q-4 -21 1.5 -27.5t22.5 -8.5l17 -2l-9 -49q-11 -2 -23 -2.5t-20 -0.5
q-27 0 -43.5 11t-16.5 36zM399 284q14 77 -14 113.5t-90 36.5q-32 0 -57 -11.5t-46 -32.5q-16 -16 -29 -39.5t-22 -51t-14 -58.5t-5 -63q0 -71 29.5 -98.5t80.5 -27.5q41 0 68.5 14t44.5 35.5t25.5 46t12.5 45.5zM487 663l-10 -57h-295l5 28q2 14 10.5 21.5t27.5 7.5h262z
" />
    <glyph glyph-name="abreve" unicode="&#x103;" horiz-adv-x="562" 
d="M372 41v7.5t2 11.5q-23 -35 -65 -53.5t-96 -18.5q-81 0 -127 48.5t-46 137.5q0 78 21.5 144.5t65.5 111.5q31 32 68.5 50t91.5 18q57 0 90.5 -20.5t52.5 -55.5l11 38q7 26 34 26h38l-70 -402q-4 -21 1.5 -27.5t22.5 -8.5l17 -2l-9 -49q-11 -2 -23 -2.5t-20 -0.5
q-27 0 -43.5 11t-16.5 36zM399 284q14 77 -14 113.5t-90 36.5q-32 0 -57 -11.5t-46 -32.5q-16 -16 -29 -39.5t-22 -51t-14 -58.5t-5 -63q0 -71 29.5 -98.5t80.5 -27.5q41 0 68.5 14t44.5 35.5t25.5 46t12.5 45.5zM255 704q-8 -49 10.5 -71.5t67.5 -22.5t73.5 21.5t32.5 72.5
h58q-12 -80 -51.5 -114.5t-117.5 -34.5q-133 0 -133 106q0 10 1 20.5t3 22.5h56z" />
    <glyph glyph-name="acaron" unicode="&#x1ce;" horiz-adv-x="562" 
d="M372 41v7.5t2 11.5q-23 -35 -65 -53.5t-96 -18.5q-81 0 -127 48.5t-46 137.5q0 78 21.5 144.5t65.5 111.5q31 32 68.5 50t91.5 18q57 0 90.5 -20.5t52.5 -55.5l11 38q7 26 34 26h38l-70 -402q-4 -21 1.5 -27.5t22.5 -8.5l17 -2l-9 -49q-11 -2 -23 -2.5t-20 -0.5
q-27 0 -43.5 11t-16.5 36zM399 284q14 77 -14 113.5t-90 36.5q-32 0 -57 -11.5t-46 -32.5q-16 -16 -29 -39.5t-22 -51t-14 -58.5t-5 -63q0 -71 29.5 -98.5t80.5 -27.5q41 0 68.5 14t44.5 35.5t25.5 46t12.5 45.5zM389 584q-7 -7 -11.5 -11t-9 -6t-10.5 -2.5t-16 -0.5h-53
l-96 140h67l70 -99h4l101 99h76z" />
    <glyph glyph-name="aring" unicode="&#xe5;" horiz-adv-x="562" 
d="M372 41v7.5t2 11.5q-23 -35 -65 -53.5t-96 -18.5q-81 0 -127 48.5t-46 137.5q0 78 21.5 144.5t65.5 111.5q31 32 68.5 50t91.5 18q57 0 90.5 -20.5t52.5 -55.5l11 38q7 26 34 26h38l-70 -402q-4 -21 1.5 -27.5t22.5 -8.5l17 -2l-9 -49q-11 -2 -23 -2.5t-20 -0.5
q-27 0 -43.5 11t-16.5 36zM399 284q14 77 -14 113.5t-90 36.5q-32 0 -57 -11.5t-46 -32.5q-16 -16 -29 -39.5t-22 -51t-14 -58.5t-5 -63q0 -71 29.5 -98.5t80.5 -27.5q41 0 68.5 14t44.5 35.5t25.5 46t12.5 45.5zM233 614q0 54 31 84t85 30q89 0 89 -74q0 -53 -31 -83.5
t-85 -30.5q-89 0 -89 74zM278 619q0 -41 48 -41q29 0 48 19t19 52q0 42 -48 42q-30 0 -48.5 -19.5t-18.5 -52.5z" />
    <glyph glyph-name="aringacute" unicode="&#x1fb;" horiz-adv-x="562" 
d="M271 619q0 -41 48 -41q29 0 48 19t19 52q0 42 -48 42q-30 0 -48.5 -19.5t-18.5 -52.5zM517 832l-124 -113q38 -17 38 -65q0 -53 -31 -83.5t-85 -30.5q-89 0 -89 74q0 48 25 77t69 35l88 86l10 10t8.5 6t10.5 3t16 1h64zM372 41v7.5t2 11.5q-23 -35 -65 -53.5t-96 -18.5
q-81 0 -127 48.5t-46 137.5q0 78 21.5 144.5t65.5 111.5q31 32 68.5 50t91.5 18q57 0 90.5 -20.5t52.5 -55.5l11 38q7 26 34 26h38l-70 -402q-4 -21 1.5 -27.5t22.5 -8.5l17 -2l-9 -49q-11 -2 -23 -2.5t-20 -0.5q-27 0 -43.5 11t-16.5 36zM399 284q14 77 -14 113.5t-90 36.5
q-32 0 -57 -11.5t-46 -32.5q-16 -16 -29 -39.5t-22 -51t-14 -58.5t-5 -63q0 -71 29.5 -98.5t80.5 -27.5q41 0 68.5 14t44.5 35.5t25.5 46t12.5 45.5z" />
    <glyph glyph-name="aogonek" unicode="&#x105;" horiz-adv-x="562" 
d="M372 41v7.5t2 11.5q-23 -35 -65 -53.5t-96 -18.5q-81 0 -127 48.5t-46 137.5q0 78 21.5 144.5t65.5 111.5q31 32 68.5 50t91.5 18q57 0 90.5 -20.5t52.5 -55.5l11 38q7 26 34 26h38l-70 -402q-4 -21 1.5 -27.5t22.5 -8.5l17 -2l-9 -49q-63 -47 -91 -79t-28 -58
q0 -41 53 -41q18 0 36 3l-9 -49q-19 -4 -48 -4q-51 0 -73.5 18.5t-22.5 56.5q0 70 114 153q-34 8 -34 44zM399 284q14 77 -14 113.5t-90 36.5q-32 0 -57 -11.5t-46 -32.5q-16 -16 -29 -39.5t-22 -51t-14 -58.5t-5 -63q0 -71 29.5 -98.5t80.5 -27.5q41 0 68.5 14t44.5 35.5
t25.5 46t12.5 45.5z" />
    <glyph glyph-name="ae" unicode="&#xe6;" horiz-adv-x="836" 
d="M627 498q39 0 73 -9t58.5 -28.5t39 -51.5t14.5 -77q0 -13 -2 -32t-5 -33q-4 -20 -8 -31.5t-11.5 -17.5t-20.5 -8t-34 -2h-290v-18q0 -76 38.5 -107.5t120.5 -31.5q37 0 70.5 5t70.5 15l-11 -64q-67 -19 -146 -19q-81 0 -130.5 23t-69.5 69q-29 -50 -80.5 -71t-112.5 -21
q-81 0 -124 32t-43 91q0 81 52 118t152 37h142l6 34q5 25 5 48q0 44 -33 65.5t-96 21.5q-35 0 -67.5 -6t-70.5 -17l7 43q1 6 2.5 10.5t6 8t12.5 6.5t22 6q49 12 106 12q139 0 167 -88q33 45 81.5 66.5t108.5 21.5zM627 434q-32 0 -60.5 -10.5t-54.5 -36.5q-22 -22 -38 -55.5
t-23 -65.5h275q4 14 6 31t2 31q0 58 -28 82t-79 24zM208 46q59 0 96 27t45 73l11 62h-125q-64 0 -98.5 -20.5t-34.5 -72.5q0 -35 27.5 -52t78.5 -17z" />
    <glyph glyph-name="aeacute" unicode="&#x1fd;" horiz-adv-x="831" 
d="M627 498q39 0 73 -9t58.5 -28.5t39 -51.5t14.5 -77q0 -13 -2 -32t-5 -33q-4 -20 -8 -31.5t-11.5 -17.5t-20.5 -8t-34 -2h-290v-18q0 -76 38.5 -107.5t120.5 -31.5q37 0 70.5 5t70.5 15l-11 -64q-67 -19 -146 -19q-81 0 -130.5 23t-69.5 69q-29 -50 -80.5 -71t-112.5 -21
q-81 0 -124 32t-43 91q0 81 52 118t152 37h142l6 34q5 25 5 48q0 44 -33 65.5t-96 21.5q-35 0 -67.5 -6t-70.5 -17l7 43q1 6 2.5 10.5t6 8t12.5 6.5t22 6q49 12 106 12q139 0 167 -88q33 45 81.5 66.5t108.5 21.5zM627 434q-32 0 -60.5 -10.5t-54.5 -36.5q-22 -22 -38 -55.5
t-23 -65.5h275q4 14 6 31t2 31q0 58 -28 82t-79 24zM208 46q59 0 96 27t45 73l11 62h-125q-64 0 -98.5 -20.5t-34.5 -72.5q0 -35 27.5 -52t78.5 -17zM538 684q13 13 20.5 16.5t27.5 3.5h64l-155 -140h-77z" />
    <glyph glyph-name="cacute" unicode="&#x107;" horiz-adv-x="450" 
d="M315 498q30 0 57.5 -5t44.5 -10q13 -4 20 -6.5t10 -5.5t3 -7.5t-1 -10.5l-8 -44q-31 12 -59.5 18.5t-60.5 6.5q-39 0 -70.5 -11t-57.5 -37q-34 -34 -52.5 -90.5t-18.5 -116.5q0 -71 35 -99t111 -28q48 0 113 17l-12 -65q-31 -8 -61 -12t-56 -4q-109 0 -160.5 46.5
t-51.5 140.5q0 79 23 143.5t65 106.5q38 38 82.5 55.5t104.5 17.5zM386 684q13 13 20.5 16.5t27.5 3.5h64l-155 -140h-77z" />
    <glyph glyph-name="ccedilla" unicode="&#xe7;" horiz-adv-x="450" 
d="M190 -7q-150 24 -150 182q0 79 23 143.5t65 106.5q38 38 82.5 55.5t104.5 17.5q30 0 57.5 -5t44.5 -10q13 -4 20 -6.5t10 -5.5t3 -7.5t-1 -10.5l-8 -44q-31 12 -59.5 18.5t-60.5 6.5q-39 0 -70.5 -11t-57.5 -37q-34 -34 -52.5 -90.5t-18.5 -116.5q0 -71 35 -99t111 -28
q48 0 113 17l-12 -65q-31 -8 -61 -12t-56 -4h-7l-9 -48q67 -6 67 -67q0 -49 -34 -76.5t-94 -27.5q-23 0 -45.5 3t-45.5 10l8 46q19 -6 38 -9.5t39 -3.5q34 0 52.5 14t18.5 39q0 36 -59 36h-7z" />
    <glyph glyph-name="ccircumflex" unicode="&#x109;" horiz-adv-x="450" 
d="M315 498q30 0 57.5 -5t44.5 -10q13 -4 20 -6.5t10 -5.5t3 -7.5t-1 -10.5l-8 -44q-31 12 -59.5 18.5t-60.5 6.5q-39 0 -70.5 -11t-57.5 -37q-34 -34 -52.5 -90.5t-18.5 -116.5q0 -71 35 -99t111 -28q48 0 113 17l-12 -65q-31 -8 -61 -12t-56 -4q-109 0 -160.5 46.5
t-51.5 140.5q0 79 23 143.5t65 106.5q38 38 82.5 55.5t104.5 17.5zM281 684q13 13 20 16.5t27 3.5h49l97 -140h-67l-70 101h-4l-100 -101h-76z" />
    <glyph glyph-name="ccaron" unicode="&#x10d;" horiz-adv-x="450" 
d="M315 498q30 0 57.5 -5t44.5 -10q13 -4 20 -6.5t10 -5.5t3 -7.5t-1 -10.5l-8 -44q-31 12 -59.5 18.5t-60.5 6.5q-39 0 -70.5 -11t-57.5 -37q-34 -34 -52.5 -90.5t-18.5 -116.5q0 -71 35 -99t111 -28q48 0 113 17l-12 -65q-31 -8 -61 -12t-56 -4q-109 0 -160.5 46.5
t-51.5 140.5q0 79 23 143.5t65 106.5q38 38 82.5 55.5t104.5 17.5zM380 584q-7 -7 -11.5 -11t-9 -6t-10.5 -2.5t-16 -0.5h-53l-96 140h67l70 -99h4l101 99h76z" />
    <glyph glyph-name="cdotaccent" unicode="&#x10b;" horiz-adv-x="450" 
d="M315 498q30 0 57.5 -5t44.5 -10q13 -4 20 -6.5t10 -5.5t3 -7.5t-1 -10.5l-8 -44q-31 12 -59.5 18.5t-60.5 6.5q-39 0 -70.5 -11t-57.5 -37q-34 -34 -52.5 -90.5t-18.5 -116.5q0 -71 35 -99t111 -28q48 0 113 17l-12 -65q-31 -8 -61 -12t-56 -4q-109 0 -160.5 46.5
t-51.5 140.5q0 79 23 143.5t65 106.5q38 38 82.5 55.5t104.5 17.5zM279 623q0 60 58 60q43 0 43 -38q0 -29 -14.5 -44.5t-43.5 -15.5q-43 0 -43 38z" />
    <glyph glyph-name="dcaron" unicode="&#x10f;" horiz-adv-x="627" 
d="M644 674q9 21 16.5 25.5t27.5 4.5h43l-97 -188h-59zM408 284q14 79 -16.5 114.5t-92.5 35.5q-61 0 -105 -44q-35 -35 -53.5 -91t-18.5 -120q0 -71 33 -99t84 -28q41 0 69 13.5t45 34.5t26 46t13 47zM381 41v9.5t2 9.5q-23 -34 -65.5 -53t-97.5 -19q-39 0 -72 12t-57 35.5
t-37.5 58.5t-13.5 81q0 78 22.5 145t67.5 112q30 31 70 48.5t92 17.5q54 0 90.5 -20t49.5 -45l43 242q2 14 9.5 21.5t27.5 7.5h48l-108 -620q-4 -21 1.5 -27.5t22.5 -8.5l17 -2l-9 -49q-11 -2 -23 -2.5t-20 -0.5q-27 0 -43.5 11t-16.5 36z" />
    <glyph glyph-name="dcroat" unicode="&#x111;" horiz-adv-x="554" 
d="M370 41v9.5t2 9.5q-23 -34 -65.5 -53t-97.5 -19q-39 0 -72 12t-57 35.5t-37.5 58.5t-13.5 81q0 78 22.5 145t67.5 112q30 31 70 48.5t92 17.5q54 0 90.5 -20t49.5 -45l24 136h-175l9 56h176l9 50q2 14 9.5 21.5t27.5 7.5h48l-14 -79h67l-10 -56h-67l-84 -485
q-4 -21 1.5 -27.5t22.5 -8.5l17 -2l-9 -49q-11 -2 -23 -2.5t-20 -0.5q-27 0 -43.5 11t-16.5 36zM397 284q14 79 -16.5 114.5t-92.5 35.5q-61 0 -105 -44q-35 -35 -53.5 -91t-18.5 -120q0 -71 33 -99t84 -28q41 0 69 13.5t45 34.5t26 46t13 47z" />
    <glyph glyph-name="eth" unicode="&#xf0;" horiz-adv-x="547" 
d="M235 -12q-96 0 -145.5 48t-49.5 139q0 81 24 145t63 104q32 32 72.5 47t90.5 15q51 0 89.5 -17.5t51.5 -44.5q1 62 -14 104t-54 71l-78 -71l-37 36l70 64q-15 5 -33.5 8t-35.5 3t-37 -2t-39 -7l6 34q3 15 8 20t26 10q16 3 30 3.5t22 0.5q32 0 58.5 -7.5t45.5 -15.5l53 48
l37 -37l-44 -40q28 -23 46.5 -53t29 -65t15 -74t4.5 -78q0 -200 -72.5 -294t-202.5 -94zM122 179q0 -57 26.5 -92t90.5 -35q83 0 131.5 64t48.5 188q0 61 -31 91t-90 30q-26 0 -54 -8.5t-53 -33.5q-29 -29 -49 -82.5t-20 -121.5z" />
    <glyph glyph-name="egrave" unicode="&#xe8;" horiz-adv-x="517" 
d="M411 7q-67 -19 -146 -19q-113 0 -169 46t-56 151q0 32 5.5 65.5t17 65t28 60t37.5 49.5q35 35 78.5 54t101.5 19q39 0 73 -9t58.5 -28.5t39 -51.5t14.5 -77q0 -13 -2 -32t-5 -33q-4 -20 -8 -31.5t-11.5 -17.5t-20.5 -8t-34 -2h-290v-18q0 -76 38.5 -107.5t120.5 -31.5
q37 0 70.5 5t70.5 15zM308 434q-32 0 -60.5 -10.5t-54.5 -36.5q-22 -22 -38 -55.5t-23 -65.5h275q4 14 6 31t2 31q0 58 -28 82t-79 24zM358 564h-68l-109 140h50q20 0 27.5 -3t17.5 -17z" />
    <glyph glyph-name="eacute" unicode="&#xe9;" horiz-adv-x="517" 
d="M411 7q-67 -19 -146 -19q-113 0 -169 46t-56 151q0 32 5.5 65.5t17 65t28 60t37.5 49.5q35 35 78.5 54t101.5 19q39 0 73 -9t58.5 -28.5t39 -51.5t14.5 -77q0 -13 -2 -32t-5 -33q-4 -20 -8 -31.5t-11.5 -17.5t-20.5 -8t-34 -2h-290v-18q0 -76 38.5 -107.5t120.5 -31.5
q37 0 70.5 5t70.5 15zM308 434q-32 0 -60.5 -10.5t-54.5 -36.5q-22 -22 -38 -55.5t-23 -65.5h275q4 14 6 31t2 31q0 58 -28 82t-79 24zM378 684q13 13 20.5 16.5t27.5 3.5h64l-155 -140h-77z" />
    <glyph glyph-name="ecircumflex" unicode="&#xea;" horiz-adv-x="517" 
d="M411 7q-67 -19 -146 -19q-113 0 -169 46t-56 151q0 32 5.5 65.5t17 65t28 60t37.5 49.5q35 35 78.5 54t101.5 19q39 0 73 -9t58.5 -28.5t39 -51.5t14.5 -77q0 -13 -2 -32t-5 -33q-4 -20 -8 -31.5t-11.5 -17.5t-20.5 -8t-34 -2h-290v-18q0 -76 38.5 -107.5t120.5 -31.5
q37 0 70.5 5t70.5 15zM308 434q-32 0 -60.5 -10.5t-54.5 -36.5q-22 -22 -38 -55.5t-23 -65.5h275q4 14 6 31t2 31q0 58 -28 82t-79 24zM271 684q13 13 20 16.5t27 3.5h49l97 -140h-67l-70 101h-4l-100 -101h-76z" />
    <glyph glyph-name="ecaron" unicode="&#x11b;" horiz-adv-x="505" 
d="M411 7q-67 -19 -146 -19q-113 0 -169 46t-56 151q0 32 5.5 65.5t17 65t28 60t37.5 49.5q35 35 78.5 54t101.5 19q39 0 73 -9t58.5 -28.5t39 -51.5t14.5 -77q0 -13 -2 -32t-5 -33q-4 -20 -8 -31.5t-11.5 -17.5t-20.5 -8t-34 -2h-290v-18q0 -76 38.5 -107.5t120.5 -31.5
q37 0 70.5 5t70.5 15zM308 434q-32 0 -60.5 -10.5t-54.5 -36.5q-22 -22 -38 -55.5t-23 -65.5h275q4 14 6 31t2 31q0 58 -28 82t-79 24zM374 584q-7 -7 -11.5 -11t-9 -6t-10.5 -2.5t-16 -0.5h-53l-96 140h67l70 -99h4l101 99h76z" />
    <glyph glyph-name="edieresis" unicode="&#xeb;" horiz-adv-x="517" 
d="M411 7q-67 -19 -146 -19q-113 0 -169 46t-56 151q0 32 5.5 65.5t17 65t28 60t37.5 49.5q35 35 78.5 54t101.5 19q39 0 73 -9t58.5 -28.5t39 -51.5t14.5 -77q0 -13 -2 -32t-5 -33q-4 -20 -8 -31.5t-11.5 -17.5t-20.5 -8t-34 -2h-290v-18q0 -76 38.5 -107.5t120.5 -31.5
q37 0 70.5 5t70.5 15zM308 434q-32 0 -60.5 -10.5t-54.5 -36.5q-22 -22 -38 -55.5t-23 -65.5h275q4 14 6 31t2 31q0 58 -28 82t-79 24zM172 623q0 60 59 60q42 0 42 -38q0 -29 -14.5 -44.5t-43.5 -15.5q-43 0 -43 38zM366 623q0 60 58 60q43 0 43 -38q0 -29 -15 -44.5
t-44 -15.5q-42 0 -42 38z" />
    <glyph glyph-name="emacron" unicode="&#x113;" horiz-adv-x="517" 
d="M411 7q-67 -19 -146 -19q-113 0 -169 46t-56 151q0 32 5.5 65.5t17 65t28 60t37.5 49.5q35 35 78.5 54t101.5 19q39 0 73 -9t58.5 -28.5t39 -51.5t14.5 -77q0 -13 -2 -32t-5 -33q-4 -20 -8 -31.5t-11.5 -17.5t-20.5 -8t-34 -2h-290v-18q0 -76 38.5 -107.5t120.5 -31.5
q37 0 70.5 5t70.5 15zM308 434q-32 0 -60.5 -10.5t-54.5 -36.5q-22 -22 -38 -55.5t-23 -65.5h275q4 14 6 31t2 31q0 58 -28 82t-79 24zM472 663l-10 -57h-295l5 28q2 14 10.5 21.5t27.5 7.5h262z" />
    <glyph glyph-name="ebreve" unicode="&#x115;" horiz-adv-x="517" 
d="M411 7q-67 -19 -146 -19q-113 0 -169 46t-56 151q0 32 5.5 65.5t17 65t28 60t37.5 49.5q35 35 78.5 54t101.5 19q39 0 73 -9t58.5 -28.5t39 -51.5t14.5 -77q0 -13 -2 -32t-5 -33q-4 -20 -8 -31.5t-11.5 -17.5t-20.5 -8t-34 -2h-290v-18q0 -76 38.5 -107.5t120.5 -31.5
q37 0 70.5 5t70.5 15zM308 434q-32 0 -60.5 -10.5t-54.5 -36.5q-22 -22 -38 -55.5t-23 -65.5h275q4 14 6 31t2 31q0 58 -28 82t-79 24zM240 704q-8 -49 10.5 -71.5t67.5 -22.5t73.5 21.5t32.5 72.5h58q-12 -80 -51.5 -114.5t-117.5 -34.5q-133 0 -133 106q0 10 1 20.5
t3 22.5h56z" />
    <glyph glyph-name="edotaccent" unicode="&#x117;" horiz-adv-x="517" 
d="M411 7q-67 -19 -146 -19q-113 0 -169 46t-56 151q0 32 5.5 65.5t17 65t28 60t37.5 49.5q35 35 78.5 54t101.5 19q39 0 73 -9t58.5 -28.5t39 -51.5t14.5 -77q0 -13 -2 -32t-5 -33q-4 -20 -8 -31.5t-11.5 -17.5t-20.5 -8t-34 -2h-290v-18q0 -76 38.5 -107.5t120.5 -31.5
q37 0 70.5 5t70.5 15zM308 434q-32 0 -60.5 -10.5t-54.5 -36.5q-22 -22 -38 -55.5t-23 -65.5h275q4 14 6 31t2 31q0 58 -28 82t-79 24zM270 623q0 60 58 60q43 0 43 -38q0 -29 -14.5 -44.5t-43.5 -15.5q-43 0 -43 38z" />
    <glyph glyph-name="eogonek" unicode="&#x119;" horiz-adv-x="517" 
d="M411 7q-64 -49 -92 -84.5t-28 -62.5q0 -41 53 -41q18 0 36 3l-9 -49q-19 -4 -48 -4q-50 0 -73 18.5t-23 56.5q0 18 7.5 38t21 39t30.5 37t37 33q-29 -3 -58 -3q-113 0 -169 46t-56 151q0 32 5.5 65.5t17 65t28 60t37.5 49.5q35 35 78.5 54t101.5 19q39 0 73 -9
t58.5 -28.5t39 -51.5t14.5 -77q0 -13 -2 -32t-5 -33q-4 -20 -8 -31.5t-11.5 -17.5t-20.5 -8t-34 -2h-290v-18q0 -76 38.5 -107.5t120.5 -31.5q37 0 70.5 5t70.5 15zM308 434q-32 0 -60.5 -10.5t-54.5 -36.5q-22 -22 -38 -55.5t-23 -65.5h275q4 14 6 31t2 31q0 58 -28 82
t-79 24z" />
    <glyph glyph-name="gcircumflex" unicode="&#x11d;" horiz-adv-x="547" 
d="M404 284q14 77 -15 113.5t-91 36.5q-61 0 -105 -44q-16 -16 -29 -39t-22.5 -50.5t-14.5 -58.5t-5 -63q0 -71 31 -99t82 -28q41 0 69 13.5t45 34.5t26 46t13 47zM289 498q57 0 92 -20.5t54 -55.5l11 38q7 26 34 26h38l-88 -501q-10 -55 -26.5 -94t-43.5 -63.5t-67 -36
t-97 -11.5q-21 0 -56 3t-67 10l11 62q29 -6 57 -9.5t53 -3.5q36 0 62 6.5t45 23t30.5 43.5t19.5 68l10 56q-53 -51 -145 -51q-81 0 -128.5 49t-47.5 138q0 78 22 144t66 111q31 32 69 50t92 18zM291 684q13 13 20 16.5t27 3.5h49l97 -140h-67l-70 101h-4l-100 -101h-76z" />
    <glyph glyph-name="gbreve" unicode="&#x11f;" horiz-adv-x="547" 
d="M404 284q14 77 -15 113.5t-91 36.5q-61 0 -105 -44q-16 -16 -29 -39t-22.5 -50.5t-14.5 -58.5t-5 -63q0 -71 31 -99t82 -28q41 0 69 13.5t45 34.5t26 46t13 47zM289 498q57 0 92 -20.5t54 -55.5l11 38q7 26 34 26h38l-88 -501q-10 -55 -26.5 -94t-43.5 -63.5t-67 -36
t-97 -11.5q-21 0 -56 3t-67 10l11 62q29 -6 57 -9.5t53 -3.5q36 0 62 6.5t45 23t30.5 43.5t19.5 68l10 56q-53 -51 -145 -51q-81 0 -128.5 49t-47.5 138q0 78 22 144t66 111q31 32 69 50t92 18zM260 704q-8 -49 10.5 -71.5t67.5 -22.5t73.5 21.5t32.5 72.5h58
q-12 -80 -51.5 -114.5t-117.5 -34.5q-133 0 -133 106q0 10 1 20.5t3 22.5h56z" />
    <glyph glyph-name="gdotaccent" unicode="&#x121;" horiz-adv-x="547" 
d="M404 284q14 77 -15 113.5t-91 36.5q-61 0 -105 -44q-16 -16 -29 -39t-22.5 -50.5t-14.5 -58.5t-5 -63q0 -71 31 -99t82 -28q41 0 69 13.5t45 34.5t26 46t13 47zM289 498q57 0 92 -20.5t54 -55.5l11 38q7 26 34 26h38l-88 -501q-10 -55 -26.5 -94t-43.5 -63.5t-67 -36
t-97 -11.5q-21 0 -56 3t-67 10l11 62q29 -6 57 -9.5t53 -3.5q36 0 62 6.5t45 23t30.5 43.5t19.5 68l10 56q-53 -51 -145 -51q-81 0 -128.5 49t-47.5 138q0 78 22 144t66 111q31 32 69 50t92 18zM289 623q0 60 58 60q43 0 43 -38q0 -29 -14.5 -44.5t-43.5 -15.5q-43 0 -43 38
z" />
    <glyph glyph-name="gcommaaccent" unicode="&#x123;" horiz-adv-x="547" 
d="M359 584q-9 -21 -16.5 -25.5t-26.5 -4.5h-44l97 188h59zM404 284q14 77 -15 113.5t-91 36.5q-61 0 -105 -44q-16 -16 -29 -39t-22.5 -50.5t-14.5 -58.5t-5 -63q0 -71 31 -99t82 -28q41 0 69 13.5t45 34.5t26 46t13 47zM289 498q57 0 92 -20.5t54 -55.5l11 38q7 26 34 26
h38l-88 -501q-10 -55 -26.5 -94t-43.5 -63.5t-67 -36t-97 -11.5q-21 0 -56 3t-67 10l11 62q29 -6 57 -9.5t53 -3.5q36 0 62 6.5t45 23t30.5 43.5t19.5 68l10 56q-53 -51 -145 -51q-81 0 -128.5 49t-47.5 138q0 78 22 144t66 111q31 32 69 50t92 18z" />
    <glyph glyph-name="hcircumflex" unicode="&#x125;" horiz-adv-x="544" 
d="M178 880h79l100 -134h-68l-75 92l-105 -92h-76zM431 0h-80l52 290q5 28 5 51q0 91 -103 91q-57 0 -95.5 -32t-49.5 -98l-53 -302h-80l119 675q2 14 10.5 21.5t28.5 7.5h46l-47 -260q30 27 68.5 40.5t77.5 13.5q75 0 116.5 -37.5t41.5 -106.5q0 -33 -6 -64z" />
    <glyph glyph-name="hbar" unicode="&#x127;" horiz-adv-x="544" 
d="M432 0h-80l52 290q5 28 5 51q0 91 -103 91q-57 0 -95.5 -32t-49.5 -98l-53 -302h-80l100 569h-66l10 56h66l9 50q2 14 10.5 21.5t28.5 7.5h46l-14 -79h177l-10 -56h-177l-23 -125q30 27 68.5 40.5t77.5 13.5q75 0 116.5 -37.5t41.5 -106.5q0 -33 -6 -64z" />
    <glyph glyph-name="dotlessi" unicode="&#x131;" horiz-adv-x="221" 
d="M108 0h-80l80 457q2 14 10.5 21.5t28.5 7.5h46z" />
    <glyph glyph-name="igrave" unicode="&#xec;" horiz-adv-x="221" 
d="M108 0h-80l80 457q2 14 10.5 21.5t28.5 7.5h46zM218 564h-68l-109 140h50q20 0 27.5 -3t17.5 -17z" />
    <glyph glyph-name="iacute" unicode="&#xed;" horiz-adv-x="221" 
d="M105 0h-80l80 457q2 14 10.5 21.5t28.5 7.5h46zM232 684q13 13 20.5 16.5t27.5 3.5h64l-155 -140h-77z" />
    <glyph glyph-name="icircumflex" unicode="&#xee;" horiz-adv-x="221" 
d="M108 0h-80l80 457q2 14 10.5 21.5t28.5 7.5h46zM129 684q13 13 20 16.5t27 3.5h49l97 -140h-67l-70 101h-4l-100 -101h-76z" />
    <glyph glyph-name="itilde" unicode="&#x129;" horiz-adv-x="221" 
d="M105 0h-80l80 457q2 14 10.5 21.5t28.5 7.5h46zM9 589q8 52 31 75t67 23q20 0 36 -8t29.5 -17.5t26.5 -17.5t27 -8q19 0 30.5 11t15.5 37l2 10h58l-2 -14q-7 -53 -30 -76t-67 -23q-20 0 -36 8t-29.5 17.5t-26.5 17.5t-27 8q-20 0 -31 -11t-16 -37l-1 -9h-59z" />
    <glyph glyph-name="idieresis" unicode="&#xef;" horiz-adv-x="221" 
d="M105 0h-80l80 457q2 14 10.5 21.5t28.5 7.5h46zM27 623q0 60 59 60q42 0 42 -38q0 -29 -14.5 -44.5t-43.5 -15.5q-43 0 -43 38zM221 623q0 60 58 60q43 0 43 -38q0 -29 -15 -44.5t-44 -15.5q-42 0 -42 38z" />
    <glyph glyph-name="imacron" unicode="&#x12b;" horiz-adv-x="221" 
d="M105 0h-80l80 457q2 14 10.5 21.5t28.5 7.5h46zM323 663l-10 -57h-295l5 28q2 14 10.5 21.5t27.5 7.5h262z" />
    <glyph glyph-name="ibreve" unicode="&#x12d;" horiz-adv-x="221" 
d="M106 0h-80l80 457q2 14 10.5 21.5t28.5 7.5h46zM92 704q-8 -49 10.5 -71.5t67.5 -22.5t73.5 21.5t32.5 72.5h58q-12 -80 -51.5 -114.5t-117.5 -34.5q-133 0 -133 106q0 10 1 20.5t3 22.5h56z" />
    <glyph glyph-name="idotaccent" horiz-adv-x="221" 
d="M108 0h-80l80 457q2 14 10.5 21.5t28.5 7.5h46zM125 623q0 62 60 62q44 0 44 -40q0 -61 -60 -61q-44 0 -44 39z" />
    <glyph glyph-name="iogonek" unicode="&#x12f;" horiz-adv-x="221" 
d="M-79 -156q0 36 29 75.5t86 80.5h-12l80 457q2 14 10.5 21.5t28.5 7.5h46l-85 -486q-63 -47 -91 -80t-28 -60q0 -41 53 -41q18 0 36 3l-9 -49q-19 -4 -48 -4q-51 0 -73.5 18.5t-22.5 56.5zM121 623q0 62 60 62q44 0 44 -40q0 -61 -60 -61q-44 0 -44 39z" />
    <glyph glyph-name="ij" unicode="&#x133;" horiz-adv-x="441" 
d="M108 0h-80l80 457q2 14 10.5 21.5t28.5 7.5h46zM125 623q0 62 60 62q44 0 44 -40q0 -61 -60 -61q-44 0 -44 39zM328 457q2 14 10.5 21.5t28.5 7.5h46l-100 -572q-12 -72 -48.5 -103t-108.5 -31q-16 0 -37 1.5t-40 5.5l12 59q17 -2 31.5 -3.5t27.5 -1.5q19 0 33 3.5t24 13
t16.5 26t11.5 42.5zM345 623q0 62 60 62q44 0 44 -40q0 -61 -60 -61q-44 0 -44 39z" />
    <glyph glyph-name="jcircumflex" unicode="&#x135;" horiz-adv-x="221" 
d="M102 457q2 14 10.5 21.5t28.5 7.5h46l-100 -572q-12 -72 -48.5 -103t-108.5 -31q-16 0 -37 1.5t-40 5.5l12 59q17 -2 31.5 -3.5t27.5 -1.5q19 0 33 3.5t24 13t16.5 26t11.5 42.5l93 531v0zM123 684q13 13 20 16.5t27 3.5h49l97 -140h-67l-70 101h-4l-100 -101h-76z" />
    <glyph glyph-name="kcommaaccent" unicode="&#x137;" horiz-adv-x="466" 
d="M144 226l-40 -226h-77l119 675q2 14 10.5 21.5t28.5 7.5h43l-74 -418h38l173 169q11 10 17.5 16.5t12.5 9.5t12.5 4t17.5 1h65l-240 -233l159 -253h-87l-139 226h-39zM150 -98q9 21 17 25.5t28 4.5h41l-97 -188h-59z" />
    <glyph glyph-name="kgreenlandic" unicode="&#x138;" horiz-adv-x="462" 
d="M142 215l-38 -215h-77l81 457q2 14 10.5 21.5t28.5 7.5h43l-37 -211h39l177 180q10 11 17 17t13 9t12.5 4t17.5 1h57l-237 -243l158 -243h-85l-138 215h-42z" />
    <glyph glyph-name="lacute" unicode="&#x13a;" horiz-adv-x="221" 
d="M266 860q13 13 20.5 16.5t27.5 3.5h64l-153 -134h-77zM107 0h-80l119 675q2 14 10.5 21.5t28.5 7.5h46z" />
    <glyph glyph-name="lcaron" unicode="&#x13e;" horiz-adv-x="221" 
d="M316 674q9 21 16.5 25.5t27.5 4.5h43l-97 -188h-59zM107 0h-80l119 675q2 14 10.5 21.5t28.5 7.5h46z" />
    <glyph glyph-name="lcommaaccent" unicode="&#x13c;" horiz-adv-x="221" 
d="M107 0h-80l119 675q2 14 10.5 21.5t28.5 7.5h46zM26 -98q9 21 17 25.5t28 4.5h41l-97 -188h-59z" />
    <glyph glyph-name="lslash" unicode="&#x142;" horiz-adv-x="279" 
d="M56 0l55 312l-102 -47l11 66l103 47l52 297q2 14 10.5 21.5t28.5 7.5h46l-53 -301l103 47l-11 -65l-104 -47l-59 -338h-80z" />
    <glyph glyph-name="ldot" unicode="&#x140;" horiz-adv-x="314" 
d="M240 348q0 56 55 56q41 0 41 -36q0 -56 -55 -56q-41 0 -41 36zM107 0h-80l119 675q2 14 10.5 21.5t28.5 7.5h46z" />
    <glyph glyph-name="nacute" unicode="&#x144;" horiz-adv-x="545" 
d="M171 430q30 35 72.5 51.5t87.5 16.5q75 0 116.5 -37.5t41.5 -106.5q0 -33 -6 -64l-51 -290h-80l52 290q5 28 5 51q0 91 -103 91q-57 0 -95.5 -32t-49.5 -98l-53 -302h-80l80 457q2 14 10.5 21.5t27.5 7.5h27zM395 684q13 13 20.5 16.5t27.5 3.5h64l-155 -140h-77z" />
    <glyph glyph-name="ncaron" unicode="&#x148;" horiz-adv-x="545" 
d="M171 430q30 35 72.5 51.5t87.5 16.5q75 0 116.5 -37.5t41.5 -106.5q0 -33 -6 -64l-51 -290h-80l52 290q5 28 5 51q0 91 -103 91q-57 0 -95.5 -32t-49.5 -98l-53 -302h-80l80 457q2 14 10.5 21.5t27.5 7.5h27zM391 584q-7 -7 -11.5 -11t-9 -6t-10.5 -2.5t-16 -0.5h-53
l-96 140h67l70 -99h4l101 99h76z" />
    <glyph glyph-name="ntilde" unicode="&#xf1;" horiz-adv-x="545" 
d="M171 430q30 35 72.5 51.5t87.5 16.5q75 0 116.5 -37.5t41.5 -106.5q0 -33 -6 -64l-51 -290h-80l52 290q5 28 5 51q0 91 -103 91q-57 0 -95.5 -32t-49.5 -98l-53 -302h-80l80 457q2 14 10.5 21.5t27.5 7.5h27zM179 589q8 52 31 75t67 23q20 0 36 -8t29.5 -17.5t26.5 -17.5
t27 -8q19 0 30.5 11t15.5 37l2 10h58l-2 -14q-7 -53 -30 -76t-67 -23q-20 0 -36 8t-29.5 17.5t-26.5 17.5t-27 8q-20 0 -31 -11t-16 -37l-1 -9h-59z" />
    <glyph glyph-name="ncommaaccent" unicode="&#x146;" horiz-adv-x="545" 
d="M171 430q30 35 72.5 51.5t87.5 16.5q75 0 116.5 -37.5t41.5 -106.5q0 -33 -6 -64l-51 -290h-80l52 290q5 28 5 51q0 91 -103 91q-57 0 -95.5 -32t-49.5 -98l-53 -302h-80l80 457q2 14 10.5 21.5t27.5 7.5h27zM186 -98q9 21 17 25.5t28 4.5h41l-97 -188h-59z" />
    <glyph glyph-name="napostrophe" unicode="&#x149;" horiz-adv-x="663" 
d="M289 430q30 35 72.5 51.5t87.5 16.5q75 0 116.5 -37.5t41.5 -106.5q0 -33 -6 -64l-51 -290h-80l52 290q5 28 5 51q0 91 -103 91q-57 0 -95.5 -32t-49.5 -98l-53 -302h-80l80 457q2 14 10.5 21.5t27.5 7.5h27zM150 642q9 21 17 25.5t28 4.5h41l-97 -188h-59z" />
    <glyph glyph-name="eng" unicode="&#x14b;" horiz-adv-x="544" 
d="M416 -86q-13 -71 -49 -102.5t-108 -31.5q-16 0 -37 1.5t-40 5.5l12 59q17 -2 31.5 -3.5t27.5 -1.5q38 0 57.5 16.5t27.5 68.5l66 364q5 28 5 51q0 91 -103 91q-57 0 -95.5 -32t-49.5 -98l-53 -302h-80l80 457q2 14 10.5 21.5t27.5 7.5h27l-2 -56q30 35 72.5 51.5
t87.5 16.5q75 0 116.5 -37.5t41.5 -106.5q0 -33 -6 -64z" />
    <glyph glyph-name="ograve" unicode="&#xf2;" horiz-adv-x="547" 
d="M308 498q101 0 150 -48.5t49 -136.5q0 -86 -23 -150t-63 -104q-37 -38 -84.5 -54.5t-97.5 -16.5q-105 0 -152 50.5t-47 136.5q0 85 24.5 148t63.5 102t84 56t96 17zM239 52q70 0 116 46q35 36 52.5 92t17.5 119q0 36 -9 60t-25 38.5t-37.5 20.5t-45.5 6q-36 0 -64 -12.5
t-51 -35.5q-35 -36 -53 -91.5t-18 -115.5q0 -71 33 -99t84 -28zM380 564h-68l-109 140h50q20 0 27.5 -3t17.5 -17z" />
    <glyph glyph-name="oacute" unicode="&#xf3;" horiz-adv-x="547" 
d="M308 498q101 0 150 -48.5t49 -136.5q0 -86 -23 -150t-63 -104q-37 -38 -84.5 -54.5t-97.5 -16.5q-105 0 -152 50.5t-47 136.5q0 85 24.5 148t63.5 102t84 56t96 17zM239 52q70 0 116 46q35 36 52.5 92t17.5 119q0 36 -9 60t-25 38.5t-37.5 20.5t-45.5 6q-36 0 -64 -12.5
t-51 -35.5q-35 -36 -53 -91.5t-18 -115.5q0 -71 33 -99t84 -28zM396 684q13 13 20.5 16.5t27.5 3.5h64l-155 -140h-77z" />
    <glyph glyph-name="ocircumflex" unicode="&#xf4;" horiz-adv-x="547" 
d="M308 498q101 0 150 -48.5t49 -136.5q0 -86 -23 -150t-63 -104q-37 -38 -84.5 -54.5t-97.5 -16.5q-105 0 -152 50.5t-47 136.5q0 85 24.5 148t63.5 102t84 56t96 17zM239 52q70 0 116 46q35 36 52.5 92t17.5 119q0 36 -9 60t-25 38.5t-37.5 20.5t-45.5 6q-36 0 -64 -12.5
t-51 -35.5q-35 -36 -53 -91.5t-18 -115.5q0 -71 33 -99t84 -28zM290 684q13 13 20 16.5t27 3.5h49l97 -140h-67l-70 101h-4l-100 -101h-76z" />
    <glyph glyph-name="otilde" unicode="&#xf5;" horiz-adv-x="547" 
d="M308 498q101 0 150 -48.5t49 -136.5q0 -86 -23 -150t-63 -104q-37 -38 -84.5 -54.5t-97.5 -16.5q-105 0 -152 50.5t-47 136.5q0 85 24.5 148t63.5 102t84 56t96 17zM239 52q70 0 116 46q35 36 52.5 92t17.5 119q0 36 -9 60t-25 38.5t-37.5 20.5t-45.5 6q-36 0 -64 -12.5
t-51 -35.5q-35 -36 -53 -91.5t-18 -115.5q0 -71 33 -99t84 -28zM177 589q8 52 31 75t67 23q20 0 36 -8t29.5 -17.5t26.5 -17.5t27 -8q19 0 30.5 11t15.5 37l2 10h58l-2 -14q-7 -53 -30 -76t-67 -23q-20 0 -36 8t-29.5 17.5t-26.5 17.5t-27 8q-20 0 -31 -11t-16 -37l-1 -9
h-59z" />
    <glyph glyph-name="odieresis" unicode="&#xf6;" horiz-adv-x="547" 
d="M308 498q101 0 150 -48.5t49 -136.5q0 -86 -23 -150t-63 -104q-37 -38 -84.5 -54.5t-97.5 -16.5q-105 0 -152 50.5t-47 136.5q0 85 24.5 148t63.5 102t84 56t96 17zM239 52q70 0 116 46q35 36 52.5 92t17.5 119q0 36 -9 60t-25 38.5t-37.5 20.5t-45.5 6q-36 0 -64 -12.5
t-51 -35.5q-35 -36 -53 -91.5t-18 -115.5q0 -71 33 -99t84 -28zM191 623q0 60 59 60q42 0 42 -38q0 -29 -14.5 -44.5t-43.5 -15.5q-43 0 -43 38zM385 623q0 60 58 60q43 0 43 -38q0 -29 -15 -44.5t-44 -15.5q-42 0 -42 38z" />
    <glyph glyph-name="omacron" unicode="&#x14d;" horiz-adv-x="547" 
d="M308 498q101 0 150 -48.5t49 -136.5q0 -86 -23 -150t-63 -104q-37 -38 -84.5 -54.5t-97.5 -16.5q-105 0 -152 50.5t-47 136.5q0 85 24.5 148t63.5 102t84 56t96 17zM239 52q70 0 116 46q35 36 52.5 92t17.5 119q0 36 -9 60t-25 38.5t-37.5 20.5t-45.5 6q-36 0 -64 -12.5
t-51 -35.5q-35 -36 -53 -91.5t-18 -115.5q0 -71 33 -99t84 -28zM490 663l-10 -57h-295l5 28q2 14 10.5 21.5t27.5 7.5h262z" />
    <glyph glyph-name="obreve" unicode="&#x14f;" horiz-adv-x="547" 
d="M308 498q101 0 150 -48.5t49 -136.5q0 -86 -23 -150t-63 -104q-37 -38 -84.5 -54.5t-97.5 -16.5q-105 0 -152 50.5t-47 136.5q0 85 24.5 148t63.5 102t84 56t96 17zM239 52q70 0 116 46q35 36 52.5 92t17.5 119q0 36 -9 60t-25 38.5t-37.5 20.5t-45.5 6q-36 0 -64 -12.5
t-51 -35.5q-35 -36 -53 -91.5t-18 -115.5q0 -71 33 -99t84 -28zM258 704q-8 -49 10.5 -71.5t67.5 -22.5t73.5 21.5t32.5 72.5h58q-12 -80 -51.5 -114.5t-117.5 -34.5q-133 0 -133 106q0 10 1 20.5t3 22.5h56z" />
    <glyph glyph-name="ohungarumlaut" unicode="&#x151;" horiz-adv-x="547" 
d="M308 498q101 0 150 -48.5t49 -136.5q0 -86 -23 -150t-63 -104q-37 -38 -84.5 -54.5t-97.5 -16.5q-105 0 -152 50.5t-47 136.5q0 85 24.5 148t63.5 102t84 56t96 17zM239 52q70 0 116 46q35 36 52.5 92t17.5 119q0 36 -9 60t-25 38.5t-37.5 20.5t-45.5 6q-36 0 -64 -12.5
t-51 -35.5q-35 -36 -53 -91.5t-18 -115.5q0 -71 33 -99t84 -28zM302 684q14 13 21 16.5t27 3.5h64l-156 -140h-78zM493 684q13 13 20.5 16.5t27.5 3.5h64l-155 -140h-78z" />
    <glyph glyph-name="oslash" unicode="&#xf8;" horiz-adv-x="547" 
d="M308 498q80 0 129 -32l19 21q10 12 16.5 18t12 9t12 3.5t16.5 0.5h33l-74 -85q35 -47 35 -120q0 -86 -23 -150t-63 -104q-37 -38 -84.5 -54.5t-97.5 -16.5q-79 0 -127 31l-44 -51h-62l71 82q-20 23 -28.5 55t-8.5 70q0 85 24.5 148t63.5 102t84 56t96 17zM122 179
q0 -38 11 -65l256 296q-16 14 -37 19t-44 5q-36 0 -64 -12.5t-51 -35.5q-35 -36 -53 -91.5t-18 -115.5zM239 52q70 0 116 46q35 36 52.5 92t17.5 119q0 21 -3 37t-6 22l-256 -293q16 -13 36 -18t43 -5z" />
    <glyph glyph-name="oslashacute" unicode="&#x1ff;" horiz-adv-x="547" 
d="M308 498q80 0 129 -32l19 21q10 12 16.5 18t12 9t12 3.5t16.5 0.5h33l-74 -85q35 -47 35 -120q0 -86 -23 -150t-63 -104q-37 -38 -84.5 -54.5t-97.5 -16.5q-79 0 -127 31l-44 -51h-62l71 82q-20 23 -28.5 55t-8.5 70q0 85 24.5 148t63.5 102t84 56t96 17zM122 179
q0 -38 11 -65l256 296q-16 14 -37 19t-44 5q-36 0 -64 -12.5t-51 -35.5q-35 -36 -53 -91.5t-18 -115.5zM239 52q70 0 116 46q35 36 52.5 92t17.5 119q0 21 -3 37t-6 22l-256 -293q16 -13 36 -18t43 -5zM396 684q13 13 20.5 16.5t27.5 3.5h64l-155 -140h-77z" />
    <glyph glyph-name="oe" unicode="&#x153;" horiz-adv-x="893" 
d="M787 7q-67 -19 -146 -19q-78 0 -128.5 21t-74.5 69q-19 -25 -42.5 -42t-49.5 -27.5t-53.5 -15.5t-53.5 -5q-105 0 -152 50.5t-47 136.5q0 85 24.5 148t63.5 102t84 56t96 17q69 0 114 -23.5t66 -67.5q75 91 196 91q39 0 73 -9t58.5 -28.5t39 -51.5t14.5 -77q0 -13 -2 -32
t-5 -33q-4 -20 -8 -31.5t-11.5 -17.5t-20.5 -8t-34 -2h-289q-1 -5 -1 -10v-8q0 -76 38.5 -107.5t120.5 -31.5q37 0 70.5 5t70.5 15zM239 52q70 0 116 46q35 36 52.5 92t17.5 119q0 36 -9 60t-25 38.5t-37.5 20.5t-45.5 6q-36 0 -64 -12.5t-51 -35.5q-35 -36 -53 -91.5
t-18 -115.5q0 -71 33 -99t84 -28zM684 434q-32 0 -60.5 -10.5t-54.5 -36.5q-22 -22 -38 -55.5t-23 -65.5h275q4 14 6 31t2 31q0 58 -28 82t-79 24z" />
    <glyph glyph-name="thorn" unicode="&#xfe;" horiz-adv-x="551" 
d="M331 498q37 0 69.5 -11t57 -34.5t39 -58.5t14.5 -83q0 -80 -21.5 -146.5t-66.5 -111.5q-65 -65 -164 -65q-60 0 -94 19t-49 42l-45 -257h-80l156 883q2 14 10.5 21.5t28.5 7.5h46l-46 -260q26 26 62.5 40t82.5 14zM252 52q32 0 59.5 11.5t47.5 31.5q30 30 50 85.5
t20 126.5q0 65 -30 96t-87 31q-67 0 -104.5 -37.5t-48.5 -103.5l-16 -91q-6 -33 -3.5 -60.5t15 -47.5t36.5 -31t61 -11z" />
    <glyph glyph-name="racute" unicode="&#x155;" horiz-adv-x="360" 
d="M319 684q13 13 20.5 16.5t27.5 3.5h64l-155 -140h-77zM108 457q2 14 10.5 21.5t27.5 7.5h27l-1 -56q29 34 71.5 51t85.5 17q27 0 53 -6l-11 -66q-14 3 -29.5 4.5t-29.5 1.5q-64 0 -102 -33t-52 -112l-50 -287h-80l80 457v0z" />
    <glyph glyph-name="rcaron" unicode="&#x159;" horiz-adv-x="360" 
d="M108 457q2 14 10.5 21.5t27.5 7.5h27l-1 -56q29 34 71.5 51t85.5 17q27 0 53 -6l-11 -66q-14 3 -29.5 4.5t-29.5 1.5q-64 0 -102 -33t-52 -112l-50 -287h-80l80 457v0zM315 584q-7 -7 -11.5 -11t-9 -6t-10.5 -2.5t-16 -0.5h-53l-96 140h67l70 -99h4l101 99h76z" />
    <glyph glyph-name="rcommaaccent" unicode="&#x157;" horiz-adv-x="360" 
d="M108 457q2 14 10.5 21.5t27.5 7.5h27l-1 -56q29 34 71.5 51t85.5 17q27 0 53 -6l-11 -66q-14 3 -29.5 4.5t-29.5 1.5q-64 0 -102 -33t-52 -112l-50 -287h-80l80 457v0zM25 -98q9 21 17 25.5t28 4.5h41l-97 -188h-59z" />
    <glyph glyph-name="sacute" unicode="&#x15b;" horiz-adv-x="452" 
d="M408 409q-35 14 -68 20.5t-69 6.5q-57 0 -89 -19t-32 -61q0 -27 17.5 -42.5t43.5 -26t56.5 -19.5t56.5 -24t43.5 -39.5t17.5 -66.5q0 -74 -51.5 -112t-147.5 -38q-41 0 -86 6t-84 21l12 64q77 -28 156 -28q60 0 91.5 18t31.5 58q0 29 -17.5 44.5t-43.5 26t-57 19.5
t-57 24t-43.5 39.5t-17.5 66.5q0 73 51.5 112t142.5 39q40 0 72 -5t49 -10q21 -6 26.5 -12t2.5 -23l-7 -39v0zM349 684q13 13 20.5 16.5t27.5 3.5h64l-155 -140h-77z" />
    <glyph glyph-name="scircumflex" unicode="&#x15d;" horiz-adv-x="452" 
d="M408 409q-35 14 -68 20.5t-69 6.5q-57 0 -89 -19t-32 -61q0 -27 17.5 -42.5t43.5 -26t56.5 -19.5t56.5 -24t43.5 -39.5t17.5 -66.5q0 -74 -51.5 -112t-147.5 -38q-41 0 -86 6t-84 21l12 64q77 -28 156 -28q60 0 91.5 18t31.5 58q0 29 -17.5 44.5t-43.5 26t-57 19.5
t-57 24t-43.5 39.5t-17.5 66.5q0 73 51.5 112t142.5 39q40 0 72 -5t49 -10q21 -6 26.5 -12t2.5 -23l-7 -39v0zM244 684q13 13 20 16.5t27 3.5h49l97 -140h-67l-70 101h-4l-100 -101h-76z" />
    <glyph glyph-name="scaron" unicode="&#x161;" horiz-adv-x="452" 
d="M408 409q-35 14 -68 20.5t-69 6.5q-57 0 -89 -19t-32 -61q0 -27 17.5 -42.5t43.5 -26t56.5 -19.5t56.5 -24t43.5 -39.5t17.5 -66.5q0 -74 -51.5 -112t-147.5 -38q-41 0 -86 6t-84 21l12 64q77 -28 156 -28q60 0 91.5 18t31.5 58q0 29 -17.5 44.5t-43.5 26t-57 19.5
t-57 24t-43.5 39.5t-17.5 66.5q0 73 51.5 112t142.5 39q40 0 72 -5t49 -10q21 -6 26.5 -12t2.5 -23l-7 -39v0zM344 584q-7 -7 -11.5 -11t-9 -6t-10.5 -2.5t-16 -0.5h-53l-96 140h67l70 -99h4l101 99h76z" />
    <glyph glyph-name="scedilla" unicode="&#x15f;" horiz-adv-x="452" 
d="M155 -11q-35 2 -71 8t-68 18l12 64q77 -28 156 -28q60 0 91.5 18t31.5 58q0 29 -17.5 44.5t-43.5 26t-57 19.5t-57 24t-43.5 39.5t-17.5 66.5q0 73 51.5 112t142.5 39q40 0 72 -5t49 -10q21 -6 26.5 -12t2.5 -23l-7 -39q-35 14 -68 20.5t-69 6.5q-57 0 -89 -19t-32 -61
q0 -27 17.5 -42.5t43.5 -26t56.5 -19.5t56.5 -24t43.5 -39.5t17.5 -66.5q0 -69 -45 -106.5t-129 -42.5l-9 -49q67 -6 67 -67q0 -49 -34 -76.5t-94 -27.5q-23 0 -45.5 3t-45.5 10l8 46q19 -6 38 -9.5t39 -3.5q34 0 52.5 14t18.5 39q0 36 -59 36h-7z" />
    <glyph glyph-name="scommaaccent" unicode="&#x219;" horiz-adv-x="452" 
d="M408 409q-35 14 -68 20.5t-69 6.5q-57 0 -89 -19t-32 -61q0 -27 17.5 -42.5t43.5 -26t56.5 -19.5t56.5 -24t43.5 -39.5t17.5 -66.5q0 -74 -51.5 -112t-147.5 -38q-41 0 -86 6t-84 21l12 64q77 -28 156 -28q60 0 91.5 18t31.5 58q0 29 -17.5 44.5t-43.5 26t-57 19.5
t-57 24t-43.5 39.5t-17.5 66.5q0 73 51.5 112t142.5 39q40 0 72 -5t49 -10q21 -6 26.5 -12t2.5 -23l-7 -39v0zM142 -98q9 21 17 25.5t28 4.5h41l-97 -188h-59z" />
    <glyph glyph-name="germandbls" unicode="&#xdf;" horiz-adv-x="543" 
d="M261 337l6 33q3 14 11 21.5t28 7.5q36 0 63 12t45 33.5t27.5 51.5t9.5 65q0 91 -107 91q-63 0 -99.5 -34.5t-49.5 -109.5l-90 -508h-77l91 517q18 101 75 150t160 49q86 0 130 -36.5t44 -108.5t-32 -126t-90 -73q49 -11 74 -47.5t25 -95.5q0 -113 -62 -177t-171 -64
q-25 0 -51 2t-51 6l11 62q42 -6 82 -6q75 0 119 46.5t44 127.5q0 59 -31 85t-100 26h-34z" />
    <glyph glyph-name="tcaron" unicode="&#x165;" horiz-adv-x="394" 
d="M378 712q9 21 16.5 25.5t27.5 4.5h43l-97 -188h-59zM176 619q2 14 10.5 21.5t27.5 7.5h48l-29 -162h141l-12 -63h-140l-45 -261q-2 -10 -3 -19.5t-1 -19.5q0 -40 20.5 -55.5t68.5 -15.5q11 0 26 1t32 3l-11 -62q-32 -6 -70 -6q-74 0 -111 30.5t-37 89.5q0 23 5 51l46 264
h-90l4 29q2 11 6.5 15.5t19.5 6.5l71 12z" />
    <glyph glyph-name="tcommaaccent" unicode="&#x163;" horiz-adv-x="394" 
d="M176 619q2 14 10.5 21.5t27.5 7.5h48l-29 -162h141l-12 -63h-140l-45 -261q-2 -10 -3 -19.5t-1 -19.5q0 -40 20.5 -55.5t68.5 -15.5q11 0 26 1t32 3l-11 -62q-32 -6 -70 -6q-74 0 -111 30.5t-37 89.5q0 23 5 51l46 264h-90l4 29q2 11 6.5 15.5t19.5 6.5l71 12zM152 -98
q9 21 17 25.5t28 4.5h41l-97 -188h-59z" />
    <glyph glyph-name="uni021B" unicode="&#x21b;" horiz-adv-x="394" 
d="M176 619q2 14 10.5 21.5t27.5 7.5h48l-29 -162h141l-12 -63h-140l-45 -261q-2 -10 -3 -19.5t-1 -19.5q0 -40 20.5 -55.5t68.5 -15.5q11 0 26 1t32 3l-11 -62q-32 -6 -70 -6q-74 0 -111 30.5t-37 89.5q0 23 5 51l46 264h-90l4 29q2 11 6.5 15.5t19.5 6.5l71 12zM149 -98
q9 21 17 25.5t28 4.5h41l-97 -188h-59z" />
    <glyph glyph-name="tbar" unicode="&#x167;" horiz-adv-x="394" 
d="M180 619q2 14 10.5 21.5t27.5 7.5h48l-29 -162h141l-12 -63h-140l-24 -141h136l-12 -63h-135l-10 -57q-2 -10 -3 -19.5t-1 -19.5q0 -40 20.5 -55.5t68.5 -15.5q11 0 26 1t32 3l-11 -62q-32 -6 -70 -6q-74 0 -111 30.5t-37 89.5q0 23 5 51l10 60h-79l4 29q2 11 6.5 15.5
t19.5 6.5l60 12l25 141h-90l4 29q2 11 6.5 15.5t19.5 6.5l71 12z" />
    <glyph glyph-name="ugrave" unicode="&#xf9;" horiz-adv-x="544" 
d="M431 457q2 14 10.5 21.5t27.5 7.5h47l-55 -317q-17 -95 -71 -138t-157 -43q-82 0 -129.5 37.5t-47.5 103.5q0 32 6 64l51 293h80l-51 -293q-5 -28 -5 -51q0 -42 27.5 -66t76.5 -24q63 0 96.5 29t44.5 94l49 282v0zM380 564h-68l-109 140h50q20 0 27.5 -3t17.5 -17z" />
    <glyph glyph-name="uacute" unicode="&#xfa;" horiz-adv-x="544" 
d="M431 457q2 14 10.5 21.5t27.5 7.5h47l-55 -317q-17 -95 -71 -138t-157 -43q-82 0 -129.5 37.5t-47.5 103.5q0 32 6 64l51 293h80l-51 -293q-5 -28 -5 -51q0 -42 27.5 -66t76.5 -24q63 0 96.5 29t44.5 94l49 282v0zM396 684q13 13 20.5 16.5t27.5 3.5h64l-155 -140h-77z
" />
    <glyph glyph-name="ucircumflex" unicode="&#xfb;" horiz-adv-x="544" 
d="M431 457q2 14 10.5 21.5t27.5 7.5h47l-55 -317q-17 -95 -71 -138t-157 -43q-82 0 -129.5 37.5t-47.5 103.5q0 32 6 64l51 293h80l-51 -293q-5 -28 -5 -51q0 -42 27.5 -66t76.5 -24q63 0 96.5 29t44.5 94l49 282v0zM291 684q13 13 20 16.5t27 3.5h49l97 -140h-67l-70 101
h-4l-100 -101h-76z" />
    <glyph glyph-name="utilde" unicode="&#x169;" horiz-adv-x="544" 
d="M431 457q2 14 10.5 21.5t27.5 7.5h47l-55 -317q-17 -95 -71 -138t-157 -43q-82 0 -129.5 37.5t-47.5 103.5q0 32 6 64l51 293h80l-51 -293q-5 -28 -5 -51q0 -42 27.5 -66t76.5 -24q63 0 96.5 29t44.5 94l49 282v0zM178 589q8 52 31 75t67 23q20 0 36 -8t29.5 -17.5
t26.5 -17.5t27 -8q19 0 30.5 11t15.5 37l2 10h58l-2 -14q-7 -53 -30 -76t-67 -23q-20 0 -36 8t-29.5 17.5t-26.5 17.5t-27 8q-20 0 -31 -11t-16 -37l-1 -9h-59z" />
    <glyph glyph-name="udieresis" unicode="&#xfc;" horiz-adv-x="544" 
d="M431 457q2 14 10.5 21.5t27.5 7.5h47l-55 -317q-17 -95 -71 -138t-157 -43q-82 0 -129.5 37.5t-47.5 103.5q0 32 6 64l51 293h80l-51 -293q-5 -28 -5 -51q0 -42 27.5 -66t76.5 -24q63 0 96.5 29t44.5 94l49 282v0zM191 623q0 60 59 60q42 0 42 -38q0 -29 -14.5 -44.5
t-43.5 -15.5q-43 0 -43 38zM385 623q0 60 58 60q43 0 43 -38q0 -29 -15 -44.5t-44 -15.5q-42 0 -42 38z" />
    <glyph glyph-name="umacron" unicode="&#x16b;" horiz-adv-x="544" 
d="M431 457q2 14 10.5 21.5t27.5 7.5h47l-55 -317q-17 -95 -71 -138t-157 -43q-82 0 -129.5 37.5t-47.5 103.5q0 32 6 64l51 293h80l-51 -293q-5 -28 -5 -51q0 -42 27.5 -66t76.5 -24q63 0 96.5 29t44.5 94l49 282v0zM491 663l-10 -57h-295l5 28q2 14 10.5 21.5t27.5 7.5
h262z" />
    <glyph glyph-name="ubreve" unicode="&#x16d;" horiz-adv-x="544" 
d="M431 457q2 14 10.5 21.5t27.5 7.5h47l-55 -317q-17 -95 -71 -138t-157 -43q-82 0 -129.5 37.5t-47.5 103.5q0 32 6 64l51 293h80l-51 -293q-5 -28 -5 -51q0 -42 27.5 -66t76.5 -24q63 0 96.5 29t44.5 94l49 282v0zM259 704q-8 -49 10.5 -71.5t67.5 -22.5t73.5 21.5
t32.5 72.5h58q-12 -80 -51.5 -114.5t-117.5 -34.5q-133 0 -133 106q0 10 1 20.5t3 22.5h56z" />
    <glyph glyph-name="uring" unicode="&#x16f;" horiz-adv-x="544" 
d="M431 457q2 14 10.5 21.5t27.5 7.5h47l-55 -317q-17 -95 -71 -138t-157 -43q-82 0 -129.5 37.5t-47.5 103.5q0 32 6 64l51 293h80l-51 -293q-5 -28 -5 -51q0 -42 27.5 -66t76.5 -24q63 0 96.5 29t44.5 94l49 282v0zM236 614q0 54 31 84t85 30q89 0 89 -74q0 -53 -31 -83.5
t-85 -30.5q-89 0 -89 74zM281 619q0 -41 48 -41q29 0 48 19t19 52q0 42 -48 42q-30 0 -48.5 -19.5t-18.5 -52.5z" />
    <glyph glyph-name="uhungarumlaut" unicode="&#x171;" horiz-adv-x="544" 
d="M431 457q2 14 10.5 21.5t27.5 7.5h47l-55 -317q-17 -95 -71 -138t-157 -43q-82 0 -129.5 37.5t-47.5 103.5q0 32 6 64l51 293h80l-51 -293q-5 -28 -5 -51q0 -42 27.5 -66t76.5 -24q63 0 96.5 29t44.5 94l49 282v0zM302 684q14 13 21 16.5t27 3.5h64l-156 -140h-78z
M493 684q13 13 20.5 16.5t27.5 3.5h64l-155 -140h-78z" />
    <glyph glyph-name="uogonek" unicode="&#x173;" horiz-adv-x="544" 
d="M461 169q-11 -66 -39.5 -104t-86.5 -66q-71 -34 -108.5 -70.5t-37.5 -68.5q0 -41 52 -41q18 0 36 3l-9 -49q-20 -4 -49 -4q-48 0 -70.5 18.5t-22.5 56.5q0 37 31 76.5t85 71.5q-17 -3 -39 -1q-68 5 -107.5 41.5t-39.5 96.5q0 32 6 64l51 293h80l-51 -293q-5 -28 -5 -51
q0 -42 27.5 -66t76.5 -24q63 0 96.5 29t44.5 94l49 282q2 14 10.5 21.5t27.5 7.5h47l-55 -317v0z" />
    <glyph glyph-name="wgrave" unicode="&#x1e81;" horiz-adv-x="755" 
d="M773 486l-226 -486h-95l-46 403h-4l-174 -403h-91l-64 486h76l46 -403h4l174 403h90l47 -403h4l168 376q8 17 17.5 22t27.5 5h46zM483 564h-68l-109 140h50q20 0 27.5 -3t17.5 -17z" />
    <glyph glyph-name="wacute" unicode="&#x1e83;" horiz-adv-x="755" 
d="M773 486l-226 -486h-95l-46 403h-4l-174 -403h-91l-64 486h76l46 -403h4l174 403h90l47 -403h4l168 376q8 17 17.5 22t27.5 5h46zM500 684q13 13 20.5 16.5t27.5 3.5h64l-155 -140h-77z" />
    <glyph glyph-name="wcircumflex" unicode="&#x175;" horiz-adv-x="755" 
d="M773 486l-226 -486h-95l-46 403h-4l-174 -403h-91l-64 486h76l46 -403h4l174 403h90l47 -403h4l168 376q8 17 17.5 22t27.5 5h46zM397 684q13 13 20 16.5t27 3.5h49l97 -140h-67l-70 101h-4l-100 -101h-76z" />
    <glyph glyph-name="wdieresis" unicode="&#x1e85;" horiz-adv-x="755" 
d="M773 486l-226 -486h-95l-46 403h-4l-174 -403h-91l-64 486h76l46 -403h4l174 403h90l47 -403h4l168 376q8 17 17.5 22t27.5 5h46zM297 623q0 60 59 60q42 0 42 -38q0 -29 -14.5 -44.5t-43.5 -15.5q-43 0 -43 38zM491 623q0 60 58 60q43 0 43 -38q0 -29 -15 -44.5
t-44 -15.5q-42 0 -42 38z" />
    <glyph glyph-name="ygrave" unicode="&#x1ef3;" horiz-adv-x="545" 
d="M361 46l-1 -4q-21 -25 -61.5 -39.5t-80.5 -14.5q-79 0 -120.5 37.5t-41.5 103.5q0 32 6 64l51 293h80l-51 -293q-5 -28 -5 -51q0 -41 26 -64t74 -23q42 0 69 12t44 32.5t25 46t13 52.5l44 259q2 14 10.5 21.5t27.5 7.5h47l-87 -501q-9 -54 -26 -92.5t-44.5 -63.5
t-67.5 -37t-96 -12q-21 0 -56 3t-67 10l11 62q29 -6 57 -9.5t53 -3.5q37 0 63.5 7.5t44 24t28.5 42.5t18 63zM380 564h-68l-109 140h50q20 0 27.5 -3t17.5 -17z" />
    <glyph glyph-name="yacute" unicode="&#xfd;" horiz-adv-x="545" 
d="M361 46l-1 -4q-21 -25 -61.5 -39.5t-80.5 -14.5q-79 0 -120.5 37.5t-41.5 103.5q0 32 6 64l51 293h80l-51 -293q-5 -28 -5 -51q0 -41 26 -64t74 -23q42 0 69 12t44 32.5t25 46t13 52.5l44 259q2 14 10.5 21.5t27.5 7.5h47l-87 -501q-9 -54 -26 -92.5t-44.5 -63.5
t-67.5 -37t-96 -12q-21 0 -56 3t-67 10l11 62q29 -6 57 -9.5t53 -3.5q37 0 63.5 7.5t44 24t28.5 42.5t18 63zM394 684q13 13 20.5 16.5t27.5 3.5h64l-155 -140h-77z" />
    <glyph glyph-name="ycircumflex" unicode="&#x177;" horiz-adv-x="545" 
d="M361 46l-1 -4q-21 -25 -61.5 -39.5t-80.5 -14.5q-79 0 -120.5 37.5t-41.5 103.5q0 32 6 64l51 293h80l-51 -293q-5 -28 -5 -51q0 -41 26 -64t74 -23q42 0 69 12t44 32.5t25 46t13 52.5l44 259q2 14 10.5 21.5t27.5 7.5h47l-87 -501q-9 -54 -26 -92.5t-44.5 -63.5
t-67.5 -37t-96 -12q-21 0 -56 3t-67 10l11 62q29 -6 57 -9.5t53 -3.5q37 0 63.5 7.5t44 24t28.5 42.5t18 63zM291 684q13 13 20 16.5t27 3.5h49l97 -140h-67l-70 101h-4l-100 -101h-76z" />
    <glyph glyph-name="ydieresis" unicode="&#xff;" horiz-adv-x="545" 
d="M361 46l-1 -4q-21 -25 -61.5 -39.5t-80.5 -14.5q-79 0 -120.5 37.5t-41.5 103.5q0 32 6 64l51 293h80l-51 -293q-5 -28 -5 -51q0 -41 26 -64t74 -23q42 0 69 12t44 32.5t25 46t13 52.5l44 259q2 14 10.5 21.5t27.5 7.5h47l-87 -501q-9 -54 -26 -92.5t-44.5 -63.5
t-67.5 -37t-96 -12q-21 0 -56 3t-67 10l11 62q29 -6 57 -9.5t53 -3.5q37 0 63.5 7.5t44 24t28.5 42.5t18 63zM191 623q0 60 59 60q42 0 42 -38q0 -29 -14.5 -44.5t-43.5 -15.5q-43 0 -43 38zM385 623q0 60 58 60q43 0 43 -38q0 -29 -15 -44.5t-44 -15.5q-42 0 -42 38z" />
    <glyph glyph-name="zacute" unicode="&#x17a;" horiz-adv-x="470" 
d="M353 423h-267l11 63h362l-10 -60l-338 -363h283l-11 -63h-382l6 33q2 14 8.5 24t20.5 25zM359 684q13 13 20.5 16.5t27.5 3.5h64l-155 -140h-77z" />
    <glyph glyph-name="zcaron" unicode="&#x17e;" horiz-adv-x="470" 
d="M353 423h-267l11 63h362l-10 -60l-338 -363h283l-11 -63h-382l6 33q2 14 8.5 24t20.5 25zM355 584q-7 -7 -11.5 -11t-9 -6t-10.5 -2.5t-16 -0.5h-53l-96 140h67l70 -99h4l101 99h76z" />
    <glyph glyph-name="zdotaccent" unicode="&#x17c;" horiz-adv-x="470" 
d="M353 423h-267l11 63h362l-10 -60l-338 -363h283l-11 -63h-382l6 33q2 14 8.5 24t20.5 25zM253 623q0 60 58 60q43 0 43 -38q0 -29 -14.5 -44.5t-43.5 -15.5q-43 0 -43 38z" />
    <glyph glyph-name="apple" unicode="&#xf8ff;" horiz-adv-x="591" 
d="M230 202v65h196v66h-196v195h261v-65h-196v-65h196v-196h-261zM165 594v-529h73v-65h-138v659h391v-65h-326z" />
	k="-16" />
  </font>
</defs>
</svg>
